{"glyphs":{"0":{"ha":848,"x_min":90,"x_max":880,"o":"m 90 357 q 231 855 90 656 q 581 1054 372 1054 q 805 952 730 1054 q 880 692 880 850 q 823 371 880 562 q 656 77 766 180 q 387 -26 547 -26 q 90 357 90 -26 m 222 369 q 408 104 222 104 q 656 299 570 104 q 743 692 743 494 q 559 924 743 924 q 320 768 418 924 q 222 369 222 612 z "},"1":{"ha":625,"x_min":109,"x_max":585,"o":"m 203 0 q 129 9 148 0 q 109 46 109 18 q 228 126 109 126 l 288 123 q 297 221 294 181 q 363 578 307 345 q 418 840 410 766 q 292 770 319 770 q 250 786 265 770 q 235 826 235 802 q 307 914 235 865 q 422 997 346 940 q 546 1057 492 1057 q 585 1021 585 1057 q 566 933 585 1003 q 548 805 555 895 q 492 546 543 744 q 429 220 435 339 q 420 127 424 148 l 492 129 q 532 114 516 130 q 548 75 548 99 q 526 22 548 43 q 473 0 505 0 l 203 0 z "},"2":{"ha":848,"x_min":122,"x_max":864,"o":"m 260 129 l 403 142 q 610 150 493 150 q 710 130 666 150 q 755 75 755 109 q 732 23 755 48 q 680 -1 709 -1 q 634 9 671 -1 q 589 20 597 20 q 484 16 553 20 q 379 11 423 11 q 298 4 351 11 q 220 -1 257 -1 l 178 3 q 122 67 122 3 q 156 237 122 153 q 240 371 190 321 q 493 547 291 421 q 688 711 654 645 q 722 816 722 778 q 677 881 722 852 q 585 911 631 911 q 460 875 522 911 l 353 800 q 302 777 319 777 q 239 821 239 777 q 372 960 239 879 q 606 1042 505 1042 q 790 984 715 1042 q 864 842 864 926 q 814 667 864 772 q 551 439 764 562 q 337 291 399 352 q 260 129 275 231 z "},"3":{"ha":848,"x_min":111,"x_max":825,"o":"m 631 553 q 772 349 772 500 q 659 81 772 193 q 393 -31 545 -31 q 204 19 279 -31 q 115 150 130 68 l 114 162 q 135 213 111 189 q 195 237 159 237 q 236 212 222 237 l 260 165 q 414 98 294 98 q 565 155 497 98 q 632 301 632 212 q 573 433 632 384 q 414 492 515 481 q 348 543 348 498 q 416 614 348 591 l 585 654 q 666 704 632 666 q 700 797 700 741 q 656 875 700 846 q 534 904 612 904 q 441 882 488 904 l 357 835 q 319 819 328 819 q 279 836 295 819 q 263 877 263 853 q 372 985 263 935 q 539 1035 481 1035 q 750 979 676 1035 q 825 822 825 922 q 631 553 825 615 z "},"4":{"ha":848,"x_min":83,"x_max":859,"o":"m 656 46 q 582 -18 646 -18 q 525 47 525 -18 q 539 146 525 58 l 564 300 l 267 307 q 119 318 155 310 q 83 354 83 326 q 134 439 83 386 l 201 509 l 614 994 q 739 1059 669 1059 q 806 991 816 1059 l 715 428 l 728 429 q 809 422 758 433 q 859 371 859 412 q 694 296 859 286 l 656 46 m 654 869 q 302 437 460 621 l 585 431 l 654 869 z "},"5":{"ha":848,"x_min":105,"x_max":901,"o":"m 406 903 q 346 677 401 870 q 604 751 450 751 q 787 675 726 751 q 848 476 848 599 q 716 111 848 265 q 372 -43 583 -43 q 174 18 243 -43 q 105 129 105 79 q 131 180 105 158 q 184 203 157 203 q 232 174 214 203 q 294 106 266 124 q 392 87 322 87 q 620 195 526 87 q 715 455 715 302 q 583 621 715 621 q 474 606 520 621 q 379 549 429 591 l 293 467 q 227 436 261 436 q 187 453 203 436 q 172 492 172 469 q 182 541 172 502 q 272 918 272 890 q 267 956 272 932 q 260 991 260 983 q 339 1039 260 1039 q 402 1036 346 1039 l 657 1040 l 768 1038 q 806 1042 781 1038 q 843 1047 831 1047 q 883 1030 866 1047 q 901 991 901 1014 q 728 905 901 905 l 704 905 q 675 907 690 905 l 649 908 l 636 908 l 521 907 l 406 903 z "},"6":{"ha":848,"x_min":139,"x_max":826,"o":"m 359 593 q 542 646 484 646 q 753 581 680 646 q 826 397 826 515 q 709 82 826 214 q 414 -49 593 -49 q 139 253 139 -49 q 233 618 139 439 q 513 946 326 798 l 587 1011 q 665 1055 637 1055 q 706 1039 688 1055 q 723 999 723 1022 q 639 896 723 967 l 479 761 q 359 593 418 709 m 296 435 q 273 277 273 355 q 435 69 273 69 q 623 162 556 69 q 690 365 690 256 q 501 509 690 509 q 432 500 471 509 q 296 435 393 491 z "},"7":{"ha":848,"x_min":189,"x_max":973,"o":"m 844 814 q 643 564 743 714 l 477 293 q 395 138 460 267 q 308 -10 338 24 q 246 -45 278 -45 q 205 -29 222 -45 q 189 9 189 -14 q 253 151 189 39 l 464 525 q 567 681 490 571 q 725 868 645 791 l 742 882 l 250 893 q 193 943 193 895 q 216 1000 193 977 q 271 1022 239 1022 q 526 1017 391 1022 q 783 1013 697 1013 l 907 1013 q 973 976 973 1013 q 918 886 973 943 l 844 814 z "},"8":{"ha":848,"x_min":110,"x_max":828,"o":"m 313 530 q 222 694 222 592 q 331 934 222 833 q 581 1035 440 1035 q 828 825 828 1035 q 802 681 828 752 q 656 553 777 610 q 766 464 728 513 q 804 332 804 415 q 694 62 804 159 q 404 -36 584 -36 q 190 21 269 -36 q 110 185 110 79 q 157 377 110 275 q 313 530 205 479 m 492 604 q 644 671 595 631 q 694 802 694 711 q 665 888 694 861 q 561 914 635 914 q 408 852 458 914 q 358 722 358 789 q 492 604 358 640 m 480 485 q 329 402 369 435 q 266 318 288 369 q 243 214 243 267 q 296 117 243 152 q 423 82 348 82 q 608 150 556 82 q 661 305 661 218 q 480 485 661 425 z "},"9":{"ha":848,"x_min":138,"x_max":895,"o":"m 671 416 q 465 358 548 358 q 259 428 342 358 q 176 613 176 498 q 292 915 176 789 q 616 1042 408 1042 q 821 962 747 1042 q 895 751 895 883 q 782 363 895 590 q 462 37 669 137 q 192 -64 254 -64 q 138 -8 138 -64 q 195 64 138 41 l 314 103 q 470 181 389 128 q 632 358 550 235 l 671 416 m 732 586 q 760 722 760 665 q 711 868 760 810 q 579 926 663 926 q 372 837 435 926 q 309 648 309 748 q 362 531 309 576 q 507 486 416 486 q 732 586 623 486 z "}," ":{"ha":415,"x_min":0,"x_max":0,"o":""},"!":{"ha":330,"x_min":85,"x_max":393,"o":"m 264 273 q 194 212 255 212 q 142 257 142 212 l 148 308 q 169 460 155 380 l 222 788 q 269 1052 262 1035 q 292 1079 277 1069 q 333 1089 308 1089 q 384 1028 393 1089 l 264 273 m 151 -45 q 106 -15 127 -45 q 85 42 85 16 q 107 90 85 69 q 158 111 130 111 q 204 82 184 111 q 224 26 224 54 q 200 -24 224 -4 q 151 -45 176 -45 z "},"\"":{"ha":589,"x_min":178,"x_max":611,"o":"m 229 632 q 178 703 178 632 q 205 882 178 747 l 228 1017 q 252 1059 233 1042 q 298 1076 272 1076 q 349 1027 349 1076 q 327 886 349 1016 q 303 743 304 776 q 283 656 300 680 q 229 632 265 632 m 597 954 l 549 690 q 479 629 537 629 q 435 689 425 629 l 478 958 q 511 1053 490 1033 q 560 1074 532 1074 q 611 1025 611 1074 q 600 967 611 1009 q 597 954 598 959 z "},"#":{"ha":1171,"x_min":62,"x_max":1264,"o":"m 298 392 l 426 672 l 244 672 q 190 722 190 672 q 300 791 190 791 l 479 791 q 524 899 504 845 q 588 1042 565 1014 q 655 1069 611 1069 q 686 1055 673 1069 q 699 1021 699 1040 q 666 922 699 1000 l 610 791 l 940 791 l 1038 1011 q 1112 1069 1064 1069 q 1163 1027 1163 1069 q 1070 791 1163 988 l 1202 791 q 1264 752 1264 791 q 1176 669 1264 669 l 1112 672 l 1013 672 l 897 392 l 1036 392 q 1133 342 1133 392 q 1062 267 1133 267 l 844 267 l 748 47 q 661 -20 718 -20 q 612 20 612 -20 q 655 151 612 58 l 707 267 l 368 267 q 291 95 332 176 q 233 1 250 15 q 186 -14 216 -14 q 138 26 138 -14 q 165 109 138 54 l 239 267 l 109 267 q 62 312 62 267 q 90 375 62 357 q 142 392 117 392 l 298 392 m 426 392 l 765 392 l 886 672 l 555 672 l 426 392 z "},"$":{"ha":963,"x_min":62,"x_max":897,"o":"m 651 994 l 654 994 q 814 968 730 994 q 897 902 897 941 q 881 860 897 881 q 826 839 864 839 q 733 852 795 839 q 631 867 659 869 l 587 590 q 786 514 714 580 q 858 349 858 448 q 765 116 858 221 q 489 -28 672 11 l 461 -207 q 437 -250 457 -233 q 390 -268 416 -268 q 340 -208 330 -268 l 367 -36 q 62 112 62 -31 q 129 197 62 197 q 186 172 161 197 q 273 110 233 125 q 387 92 313 95 l 448 476 l 443 476 q 274 524 351 476 q 197 658 197 572 q 295 848 197 758 q 528 975 393 938 l 549 1105 q 574 1148 553 1131 q 621 1166 595 1166 q 669 1109 677 1166 l 651 994 m 507 844 q 381 765 416 812 q 347 678 347 718 q 468 602 347 621 l 507 844 m 511 106 q 660 195 604 137 q 716 317 716 254 q 566 458 716 417 l 511 106 z "},"%":{"ha":1139,"x_min":238,"x_max":1126,"o":"m 238 880 q 322 1048 238 982 q 476 1114 407 1114 q 609 1064 562 1114 q 656 932 656 1015 q 578 766 656 827 q 408 705 501 705 q 282 755 326 705 q 238 880 238 804 m 352 898 q 426 819 352 819 q 499 838 458 819 q 541 916 541 857 q 455 1000 541 1000 q 389 977 426 1000 q 352 898 352 954 m 920 888 l 854 778 l 471 170 l 431 100 q 352 -12 370 -3 q 321 -21 334 -21 q 286 -7 300 -21 q 271 26 271 7 q 425 297 271 60 q 576 533 537 465 l 825 940 q 907 1059 880 1031 q 959 1088 933 1088 q 994 1073 979 1088 q 1008 1038 1008 1058 q 991 996 1008 1019 q 920 888 952 944 m 661 155 q 734 344 661 259 q 916 429 807 429 q 1064 380 1002 429 q 1126 256 1126 331 q 1049 74 1126 160 q 848 -12 972 -12 q 711 35 761 -12 q 661 155 661 81 m 776 173 q 882 100 776 100 q 980 148 949 100 q 1011 239 1011 196 q 978 293 1011 271 q 898 315 945 315 q 809 269 842 315 q 776 173 776 222 z "},"&":{"ha":909,"x_min":71,"x_max":875,"o":"m 589 616 q 703 329 625 496 q 736 406 726 371 q 780 516 760 484 q 828 549 800 549 q 875 487 875 549 q 848 363 875 441 q 763 205 821 285 q 843 1 843 37 q 820 -42 843 -21 q 770 -64 797 -64 q 723 -29 739 -64 l 667 106 q 339 -28 508 -28 q 146 41 221 -28 q 71 209 71 109 q 132 404 71 299 q 449 661 193 509 q 437 768 437 715 q 507 982 437 902 q 660 1061 576 1061 q 760 1021 723 1061 q 797 914 797 980 q 589 616 797 758 m 563 734 q 674 897 674 818 q 641 939 674 939 q 585 901 610 939 q 560 790 560 863 q 563 734 560 764 m 482 550 q 194 231 194 387 q 240 133 194 172 q 359 93 286 93 q 614 210 496 93 q 482 550 574 290 z "},"'":{"ha":539,"x_min":330,"x_max":486,"o":"m 381 774 q 330 814 330 774 q 336 868 330 825 q 345 957 339 883 q 435 1126 356 1126 q 486 1078 486 1126 q 477 1024 486 1065 q 461 920 466 980 q 437 806 455 838 q 381 774 419 774 z "},"(":{"ha":509,"x_min":60,"x_max":574,"o":"m 521 957 l 448 895 q 277 614 360 820 q 194 190 194 408 q 222 -3 194 97 q 343 -175 250 -102 q 372 -228 372 -202 q 351 -274 372 -254 q 304 -293 330 -293 q 152 -178 244 -293 q 60 174 60 -62 q 164 672 60 448 q 377 992 269 896 q 522 1089 484 1089 q 559 1073 543 1089 q 574 1033 574 1056 q 521 957 574 1008 z "},")":{"ha":509,"x_min":37,"x_max":545,"o":"m 88 -293 q 53 -278 68 -293 q 37 -243 37 -264 q 49 -212 37 -231 q 123 -151 60 -193 q 333 139 259 -61 q 407 534 407 338 q 389 724 407 644 q 350 844 371 804 q 270 957 330 884 q 239 1021 239 998 q 261 1067 239 1045 q 309 1089 283 1089 q 405 1016 341 1089 q 507 812 469 943 q 545 545 545 681 q 472 144 545 360 q 273 -183 399 -73 q 88 -293 148 -293 z "},"*":{"ha":736,"x_min":166,"x_max":784,"o":"m 410 890 q 426 1026 421 1003 q 451 1065 431 1049 q 496 1080 471 1080 q 548 1031 548 1080 l 534 905 q 736 930 696 930 q 784 880 784 930 q 754 820 784 833 q 553 786 725 807 q 668 595 668 659 q 646 551 668 572 q 596 529 625 529 q 553 554 570 529 q 444 714 530 597 q 229 555 279 555 q 192 571 208 555 q 177 608 177 586 q 215 669 177 641 q 351 781 253 698 q 185 844 204 831 q 166 882 166 858 q 188 932 166 909 q 236 956 209 956 q 410 890 254 956 z "},"+":{"ha":667,"x_min":90,"x_max":679,"o":"m 427 378 l 400 218 q 330 157 390 157 q 279 218 271 157 l 303 375 q 186 371 222 371 q 90 423 90 371 q 112 476 90 460 q 205 492 135 492 q 322 496 241 492 l 334 575 q 361 674 343 639 q 418 710 379 710 q 457 696 442 710 q 472 661 472 682 q 458 593 472 647 q 454 576 455 583 l 444 498 l 493 496 q 559 499 498 496 q 679 446 679 506 q 659 396 679 419 q 610 374 639 374 l 562 379 l 493 378 q 427 378 431 376 z "},",":{"ha":385,"x_min":105,"x_max":342,"o":"m 105 -184 q 168 -53 105 -161 q 250 75 230 54 q 292 96 269 96 q 328 80 313 96 q 342 44 342 64 q 322 -5 342 32 q 251 -126 302 -41 q 188 -222 200 -212 q 154 -233 175 -233 q 119 -219 133 -233 q 105 -184 105 -205 z "},"-":{"ha":578,"x_min":123,"x_max":565,"o":"m 172 313 q 123 351 123 313 q 189 418 123 418 q 351 422 256 418 q 513 428 437 428 q 565 387 565 428 q 522 326 565 339 q 172 313 478 313 z "},".":{"ha":346,"x_min":97,"x_max":268,"o":"m 97 7 q 127 75 97 45 q 196 106 158 106 q 248 84 228 106 q 268 34 268 62 q 237 -33 268 -4 q 168 -62 206 -62 q 117 -42 136 -62 q 97 7 97 -21 z "},"/":{"ha":711,"x_min":54,"x_max":821,"o":"m 808 1006 l 703 821 q 528 532 593 630 l 335 252 l 170 -21 q 109 -61 145 -61 q 70 -46 85 -61 q 54 -11 54 -32 q 329 440 54 43 q 596 863 522 719 q 768 1103 722 1103 q 804 1089 787 1103 q 821 1053 821 1076 q 808 1006 821 1034 z "},":":{"ha":415,"x_min":161,"x_max":371,"o":"m 288 579 q 228 637 228 579 l 230 674 q 252 741 230 716 q 312 765 275 765 q 371 690 371 765 q 288 579 371 579 m 220 83 q 161 140 161 83 l 164 212 q 190 273 164 251 q 247 294 216 294 q 306 210 306 294 q 220 83 306 83 z "},";":{"ha":415,"x_min":34,"x_max":375,"o":"m 290 575 q 231 630 231 575 q 233 695 231 674 q 256 739 235 715 q 314 762 278 762 q 375 687 375 762 q 290 575 375 575 m 34 -86 q 111 59 34 -33 q 227 151 189 151 q 265 136 250 151 q 280 100 280 121 q 220 11 280 72 q 153 -74 161 -48 q 83 -132 138 -132 q 34 -86 34 -132 z "},"<":{"ha":530,"x_min":75,"x_max":527,"o":"m 267 416 q 346 330 300 390 q 421 240 400 261 q 439 202 439 222 q 417 154 439 176 q 368 132 395 132 q 333 145 349 132 q 235 258 317 157 q 118 354 176 331 q 75 404 75 370 q 132 467 75 441 q 288 576 201 498 l 419 692 q 477 720 450 720 q 513 704 498 720 q 527 667 527 688 q 517 634 527 648 q 434 555 508 619 q 267 416 361 492 z "},"=":{"ha":709,"x_min":104,"x_max":686,"o":"m 634 676 q 686 630 686 676 q 615 555 686 555 l 298 557 q 225 553 287 557 q 154 602 154 549 q 186 662 154 646 q 317 677 219 677 l 634 676 m 431 311 l 510 310 q 564 310 539 309 q 604 299 589 311 q 618 262 618 288 q 547 189 618 189 l 491 189 l 280 193 q 218 191 257 193 q 158 187 169 187 q 104 232 104 187 q 135 297 104 279 q 298 314 166 314 q 431 311 342 314 z "},">":{"ha":530,"x_min":66,"x_max":569,"o":"m 396 437 q 258 568 338 479 q 178 696 178 656 q 201 740 178 718 q 252 762 224 762 q 294 741 279 762 q 538 501 424 564 q 569 457 569 484 q 551 416 569 437 q 419 311 532 395 q 220 177 305 228 q 118 126 134 126 q 81 142 97 126 q 66 180 66 157 q 100 236 66 214 l 396 437 z "},"?":{"ha":728,"x_min":136,"x_max":756,"o":"m 327 395 l 509 517 q 621 682 621 591 q 562 806 621 748 q 427 864 503 864 q 311 819 386 864 q 223 777 240 777 q 182 794 198 777 q 165 838 165 812 q 277 950 165 897 q 450 1003 389 1003 q 665 911 574 1003 q 756 705 756 820 q 716 549 756 629 q 500 358 675 469 q 337 236 383 282 q 281 208 309 208 q 239 226 256 208 q 222 269 222 243 q 327 395 222 319 m 136 9 q 166 90 136 47 q 242 134 197 134 q 297 78 297 134 q 269 -9 297 30 q 203 -49 241 -49 q 156 -31 176 -49 q 136 9 136 -14 z "},"@":{"ha":1293,"x_min":109,"x_max":1256,"o":"m 701 363 q 549 290 613 290 q 425 344 479 290 q 370 461 370 397 q 491 701 370 583 q 747 819 612 819 q 803 760 803 819 q 724 688 803 708 q 541 576 571 643 q 510 480 510 509 q 526 446 510 462 q 566 429 542 429 q 698 539 630 429 q 794 633 760 633 q 846 576 846 633 q 829 496 846 561 q 824 467 824 480 q 849 426 824 433 q 918 418 873 418 q 1115 656 1115 418 q 1008 880 1115 793 q 744 966 902 966 q 387 789 524 966 q 250 400 250 611 q 350 141 250 247 q 622 36 450 36 q 749 58 678 36 l 874 102 q 915 113 905 113 q 956 94 939 113 q 972 50 972 75 q 845 -55 972 -16 q 602 -94 718 -94 q 373 -40 487 -94 q 184 130 258 14 q 109 388 109 245 q 180 700 109 536 q 404 985 251 865 q 766 1105 557 1105 q 1118 984 981 1105 q 1256 683 1256 862 q 1165 396 1256 512 q 895 279 1075 279 q 701 363 753 279 z "},"A":{"ha":1016,"x_min":94,"x_max":923,"o":"m 755 353 q 570 319 681 344 l 383 282 q 216 11 243 37 q 154 -16 189 -16 q 112 1 129 -16 q 94 41 94 18 q 237 300 94 77 q 230 330 230 313 q 309 411 230 394 q 578 772 396 541 q 799 1003 761 1003 q 860 928 852 1003 l 865 700 l 893 229 l 914 121 q 923 56 923 77 q 898 3 923 26 q 842 -21 873 -21 q 777 69 798 -21 q 755 353 757 159 m 733 754 l 489 441 q 747 493 556 459 l 733 754 z "},"B":{"ha":876,"x_min":134,"x_max":877,"o":"m 694 478 q 865 288 865 399 q 699 73 865 178 q 208 -32 533 -32 q 157 -5 179 -32 q 138 52 134 22 l 170 249 q 231 545 188 357 q 290 828 274 733 q 318 975 305 923 q 348 1036 331 1027 q 432 1055 364 1044 q 566 1065 499 1065 q 780 986 682 1065 q 877 798 877 907 q 835 634 877 722 q 694 478 793 547 m 439 922 l 418 804 l 365 542 l 466 533 q 582 562 510 533 q 697 652 654 590 q 739 772 739 713 q 679 877 739 828 q 544 926 618 926 q 439 922 471 926 m 465 396 l 409 393 q 332 400 374 393 l 304 248 l 283 107 q 627 179 524 118 q 730 270 730 240 q 670 331 730 298 q 534 383 610 364 l 465 396 z "},"C":{"ha":837,"x_min":102,"x_max":953,"o":"m 836 999 q 902 1034 865 1034 q 953 954 953 1034 q 928 800 953 839 q 862 761 904 761 q 805 811 819 761 q 774 867 791 862 q 709 872 758 872 q 415 665 590 872 q 241 298 241 458 q 286 176 241 229 q 404 122 330 122 q 520 145 463 122 q 684 239 576 168 q 747 267 728 267 q 789 249 772 267 q 806 206 806 231 q 792 165 806 186 q 696 90 779 144 q 535 9 613 36 q 382 -17 457 -17 q 180 70 258 -17 q 102 275 102 157 q 322 752 102 492 q 731 1011 543 1011 q 836 999 806 1011 z "},"D":{"ha":1002,"x_min":129,"x_max":998,"o":"m 195 -4 l 189 -4 q 145 13 161 -4 q 129 53 129 29 q 146 155 129 69 l 194 401 q 266 868 210 486 l 279 962 q 318 1026 284 997 q 380 1055 351 1055 q 481 1010 395 1055 q 593 954 576 959 q 884 757 770 889 q 998 471 998 625 q 915 196 998 330 q 714 -3 831 61 q 413 -66 596 -66 q 292 -48 359 -66 q 195 -4 225 -31 m 404 878 l 347 489 l 277 118 q 282 115 279 117 q 434 69 346 69 q 690 132 608 69 q 815 278 772 194 q 859 449 859 362 q 810 610 859 536 q 680 735 762 684 q 404 878 597 785 z "},"E":{"ha":867,"x_min":119,"x_max":975,"o":"m 391 907 q 332 578 391 842 l 635 607 q 796 619 762 619 q 857 563 857 619 q 782 481 857 490 l 300 437 q 254 135 254 227 q 272 82 254 94 q 366 71 289 71 l 620 77 q 683 83 629 77 q 762 31 762 94 q 713 -49 762 -31 q 415 -66 664 -66 q 171 -26 222 -66 q 119 123 119 14 q 172 472 119 243 q 169 496 169 488 q 191 547 169 526 q 242 799 232 735 q 253 909 253 862 q 276 1033 258 1000 q 339 1065 294 1065 q 386 1044 368 1065 q 682 1089 559 1089 q 862 1072 786 1089 q 956 1038 938 1055 q 975 996 975 1021 q 950 938 975 963 q 896 913 926 913 q 875 917 888 913 q 660 949 762 949 q 391 907 547 949 z "},"F":{"ha":843,"x_min":111,"x_max":965,"o":"m 401 901 l 353 608 q 556 643 490 643 q 710 637 618 643 q 813 613 802 631 q 823 577 823 596 q 800 516 823 541 q 744 492 777 492 q 638 497 696 492 q 534 503 583 503 q 327 464 484 503 l 248 -3 q 220 -53 243 -33 q 169 -72 197 -72 q 126 -55 142 -72 q 111 -14 111 -39 q 140 164 111 3 l 220 625 q 263 889 252 808 q 271 942 267 920 l 276 979 q 303 1030 281 1010 q 355 1050 324 1050 q 393 1038 377 1050 q 666 1067 555 1067 q 862 1039 760 1067 q 965 969 965 1011 q 942 918 965 943 q 887 892 919 892 q 862 897 873 892 q 644 928 784 928 q 401 901 553 928 z "},"G":{"ha":944,"x_min":45,"x_max":944,"o":"m 895 410 q 666 79 821 206 q 328 -47 511 -47 q 45 220 45 -47 q 104 508 45 348 q 269 799 163 668 q 466 998 374 930 q 650 1065 558 1065 q 812 1022 711 1065 q 913 927 913 979 q 889 871 913 897 q 833 846 865 846 q 793 863 818 846 q 627 926 702 926 q 356 700 530 926 q 182 239 182 474 q 224 122 182 153 q 350 92 266 92 q 580 175 475 92 q 740 401 686 258 q 407 329 551 391 q 375 321 389 321 q 335 339 351 321 q 319 381 319 357 q 365 453 319 422 q 538 514 410 484 q 883 543 667 543 q 927 527 910 543 q 944 486 944 510 q 895 410 944 432 z "},"H":{"ha":1067,"x_min":99,"x_max":1145,"o":"m 895 447 q 604 412 767 444 l 310 357 q 269 183 304 312 q 231 9 237 58 q 204 -38 225 -18 q 154 -57 182 -57 q 99 -5 99 -57 q 144 225 99 31 q 205 551 191 414 l 215 618 q 221 665 219 646 q 234 733 225 692 q 286 987 279 937 q 313 1035 290 1015 q 363 1054 335 1054 q 418 999 418 1054 q 385 825 418 980 q 351 663 357 703 l 330 492 l 628 546 q 926 579 811 579 q 981 872 950 680 q 1020 989 990 930 q 1088 1048 1050 1048 q 1129 1033 1112 1048 q 1145 993 1145 1017 q 1133 956 1145 979 q 1107 846 1118 926 q 1050 549 1091 713 q 1008 363 1017 412 q 987 192 1000 315 q 973 39 979 73 q 945 -12 966 6 q 896 -29 923 -29 q 857 -13 872 -29 q 841 27 841 4 l 859 192 q 886 397 873 331 q 895 447 890 422 z "},"I":{"ha":759,"x_min":69,"x_max":863,"o":"m 566 868 q 484 438 509 621 q 435 140 446 163 l 650 143 q 691 127 676 143 q 707 87 707 111 q 684 30 707 56 q 628 4 662 4 q 514 1 591 4 l 447 0 q 262 -12 338 -2 q 127 -25 175 -25 q 85 -8 101 -25 q 69 32 69 9 q 93 90 69 64 q 150 115 117 115 q 297 129 202 115 q 344 431 318 195 q 432 873 358 564 l 254 868 q 214 883 230 867 q 197 924 197 899 q 216 982 197 960 q 271 1008 234 1004 q 478 1013 309 1013 q 688 1000 572 1013 q 823 982 804 987 q 852 964 842 977 q 863 928 863 951 q 837 866 863 888 q 781 844 811 844 q 673 854 733 844 l 566 868 z "},"J":{"ha":924,"x_min":78,"x_max":1013,"o":"m 769 886 l 760 806 q 704 497 747 704 q 610 152 661 291 q 509 -34 560 14 q 395 -82 458 -82 q 179 0 281 -82 q 78 186 78 82 q 162 306 78 306 q 221 247 221 306 l 218 212 q 285 108 218 157 q 418 58 352 58 q 548 396 476 58 q 627 833 619 734 q 631 878 628 850 l 556 878 q 511 879 536 878 l 464 880 q 431 880 444 881 q 402 886 418 880 q 378 906 387 892 q 369 939 369 920 q 476 1021 369 1021 q 544 1018 500 1021 l 583 1017 q 740 1022 644 1015 q 869 1028 827 1028 q 1013 960 1013 1028 q 989 904 1013 930 q 933 878 966 878 l 847 888 l 812 888 q 769 886 792 888 z "},"K":{"ha":848,"x_min":144,"x_max":955,"o":"m 340 357 l 282 -7 q 212 -75 271 -75 q 161 -50 178 -75 q 144 3 144 -24 q 231 493 144 44 q 315 968 281 757 q 343 1018 319 998 q 395 1039 366 1039 q 436 1022 421 1039 q 451 980 451 1004 q 410 764 451 961 q 370 558 383 637 q 610 775 466 635 l 840 1000 q 896 1026 867 1026 q 938 1009 922 1026 q 955 967 955 991 q 443 452 955 893 q 660 205 505 372 l 721 146 q 798 102 748 119 q 848 53 848 83 q 826 -3 848 22 q 775 -28 804 -28 q 511 153 671 -28 l 340 357 z "},"L":{"ha":765,"x_min":65,"x_max":744,"o":"m 204 77 q 667 160 382 75 q 688 163 677 163 q 744 104 744 163 q 699 33 744 62 q 475 -30 654 3 q 186 -62 296 -62 q 91 -40 117 -62 q 65 26 65 -18 q 68 62 65 43 l 117 288 q 245 977 188 620 q 272 1026 249 1006 q 322 1046 294 1046 q 380 989 380 1046 q 337 726 380 970 q 250 279 294 481 l 224 175 q 214 123 220 162 q 204 77 209 98 z "},"M":{"ha":1226,"x_min":79,"x_max":1173,"o":"m 1006 742 l 796 277 l 730 147 q 651 10 681 50 q 579 -29 621 -29 q 511 86 528 -29 l 486 368 q 469 730 476 495 l 420 608 l 267 196 l 232 89 q 196 -1 210 23 q 168 -35 182 -26 q 134 -45 153 -45 q 79 12 79 -45 q 102 121 79 39 q 171 309 124 203 l 281 581 l 357 794 q 440 975 401 918 q 525 1031 479 1031 q 581 976 567 1031 q 597 733 595 921 q 628 196 597 523 q 896 794 761 469 l 932 895 q 1060 1040 984 1040 q 1131 847 1131 1040 l 1127 640 q 1149 244 1127 426 l 1164 127 q 1173 28 1173 61 q 1145 -33 1173 -9 q 1088 -57 1118 -57 q 1015 90 1021 -57 l 1008 207 q 1001 462 1001 340 q 1006 742 1001 599 z "},"N":{"ha":1107,"x_min":87,"x_max":1165,"o":"m 357 777 l 304 467 q 266 200 288 375 q 155 -54 233 -54 q 105 -34 122 -54 q 87 9 87 -14 q 106 106 87 33 q 142 287 112 127 q 179 500 172 446 l 201 659 q 220 842 217 770 l 231 958 q 268 1025 235 999 q 333 1051 301 1051 q 410 974 368 1051 q 940 174 660 477 q 954 260 945 192 l 989 518 q 1009 692 1001 604 q 1017 818 1017 781 q 1009 890 1017 836 q 1006 940 1006 923 q 1091 1040 1006 1040 q 1165 865 1165 1040 q 1134 566 1165 747 l 1076 223 q 1029 18 1049 62 q 952 -26 1008 -26 q 870 22 922 -26 q 674 272 819 71 q 357 777 528 474 z "},"O":{"ha":1109,"x_min":109,"x_max":1128,"o":"m 109 312 q 183 606 109 441 q 410 899 257 770 q 743 1028 562 1028 q 1128 707 1128 1028 q 946 201 1128 444 q 513 -41 763 -41 q 221 59 333 -41 q 109 312 109 160 m 249 336 q 329 163 249 230 q 534 97 409 97 q 851 289 714 97 q 988 685 988 480 q 923 845 988 800 q 721 889 857 889 q 393 700 538 889 q 249 336 249 511 z "},"P":{"ha":723,"x_min":71,"x_max":805,"o":"m 261 407 q 199 49 250 366 q 174 2 195 20 q 127 -17 154 -17 q 85 2 99 -17 q 75 49 71 20 l 107 248 q 164 528 125 358 q 222 810 166 536 l 236 903 q 335 1051 260 1066 q 497 1065 379 1065 q 713 985 621 1065 q 805 797 805 904 q 671 520 805 641 q 343 399 537 399 q 261 407 323 399 m 368 930 l 347 807 l 290 536 l 364 528 q 490 548 408 522 q 626 641 573 574 q 678 779 678 708 q 613 888 678 841 q 461 936 548 936 q 368 930 392 936 z "},"Q":{"ha":1217,"x_min":107,"x_max":1215,"o":"m 778 -32 q 543 -79 656 -79 q 230 61 352 -79 q 107 372 107 201 q 318 828 107 629 q 803 1028 528 1028 q 1111 905 1006 1028 q 1215 574 1215 782 q 1145 255 1215 376 q 922 39 1075 134 l 1048 -97 l 1124 -172 q 1141 -216 1141 -190 q 1116 -272 1141 -247 q 1060 -297 1090 -297 q 917 -180 1029 -297 l 778 -32 m 664 74 q 561 241 561 180 q 587 298 561 273 q 644 322 612 322 q 696 289 677 322 q 824 134 759 193 q 1005 282 939 194 q 1072 543 1072 370 q 999 794 1072 701 q 781 888 926 888 q 410 736 572 888 q 249 396 249 585 q 340 164 249 268 q 566 61 431 61 q 664 74 613 61 z "},"R":{"ha":873,"x_min":93,"x_max":882,"o":"m 267 346 l 249 179 l 231 46 q 205 -2 227 20 q 151 -24 183 -24 q 109 -7 125 -24 q 93 33 93 10 l 114 205 q 178 551 136 400 q 231 839 223 710 q 244 959 236 927 q 281 1017 252 990 q 349 1042 311 1044 l 511 1029 q 758 916 635 1020 q 882 677 882 811 q 553 347 882 447 q 754 200 667 282 q 842 73 842 117 q 818 18 842 43 q 761 -7 793 -7 q 715 14 736 -7 q 267 346 492 279 m 372 897 l 361 766 q 351 700 359 743 q 326 599 342 657 l 290 463 l 350 463 q 646 525 548 463 q 744 652 744 587 q 659 806 744 734 q 471 889 574 878 l 372 897 z "},"S":{"ha":963,"x_min":102,"x_max":973,"o":"m 183 233 q 236 196 217 233 q 283 127 263 144 q 346 98 303 109 q 447 87 389 87 q 686 153 579 87 q 792 317 792 219 q 718 429 792 387 q 520 476 644 472 q 337 527 403 482 q 271 650 271 572 q 426 887 271 780 q 730 994 582 994 q 891 968 808 994 q 973 902 973 941 q 957 860 973 881 q 903 839 940 839 q 810 852 872 839 q 717 867 745 867 q 508 807 593 867 q 422 679 422 747 q 469 622 422 641 q 654 591 515 604 q 861 514 787 582 q 935 349 935 447 q 783 73 935 185 q 426 -39 631 -39 q 198 13 294 -39 q 102 148 102 64 q 127 213 102 193 q 183 233 152 233 z "},"T":{"ha":944,"x_min":155,"x_max":1070,"o":"m 993 871 l 960 871 q 838 873 891 871 l 784 875 l 708 875 q 683 873 694 875 l 635 872 q 621 749 631 825 q 602 568 610 673 q 569 262 585 354 l 562 191 q 462 -5 551 -5 q 419 11 438 -5 q 401 51 401 27 q 410 94 401 62 q 430 222 420 125 q 441 323 438 300 q 469 596 456 408 q 484 758 476 691 l 496 864 l 399 861 q 219 872 282 857 q 155 926 155 888 q 178 989 155 964 q 234 1014 201 1014 q 273 1012 245 1014 q 429 1001 389 1001 q 615 1009 501 1001 q 732 1014 682 1014 q 854 1011 778 1014 l 944 1010 q 1005 1010 973 1009 q 1054 997 1037 1010 q 1070 958 1070 983 q 1049 898 1070 924 q 993 871 1027 871 z "},"U":{"ha":1023,"x_min":155,"x_max":1070,"o":"m 366 901 l 304 503 q 292 365 292 426 q 526 92 292 92 q 907 783 795 92 l 926 904 q 1015 1019 946 1019 q 1070 958 1070 1019 q 1067 926 1070 943 l 1041 758 q 511 -28 920 -28 q 243 60 332 -28 q 155 349 155 149 q 192 679 155 429 q 257 972 230 930 q 321 1015 284 1015 q 370 947 370 1015 q 366 901 370 927 z "},"V":{"ha":903,"x_min":247,"x_max":1051,"o":"m 481 193 l 745 696 l 829 863 q 898 970 848 899 q 991 1042 948 1042 q 1035 1024 1018 1042 q 1051 983 1051 1007 q 1031 929 1051 954 q 941 798 978 863 l 865 648 l 606 155 q 533 30 570 87 q 478 -41 496 -28 q 436 -54 460 -54 q 388 -35 405 -54 q 341 152 371 -15 q 283 591 311 319 l 260 779 q 247 932 247 879 q 275 1010 247 988 q 329 1032 302 1032 q 386 977 379 1032 l 393 859 l 448 408 q 481 193 461 294 z "},"W":{"ha":1444,"x_min":244,"x_max":1578,"o":"m 887 3 q 867 136 867 85 q 861 429 867 226 q 856 760 850 652 q 608 240 766 546 q 523 61 552 134 q 528 38 528 50 q 498 -15 528 7 q 433 -37 468 -37 q 355 45 340 -37 l 347 131 l 326 463 q 251 945 319 566 q 262 1003 244 972 q 331 1035 279 1035 q 378 1013 359 1035 q 418 861 398 991 q 452 550 438 730 l 475 237 q 695 672 570 399 q 833 944 785 874 q 922 1014 881 1014 q 977 982 963 1014 q 991 833 991 951 q 987 689 991 772 q 991 421 985 631 l 1000 142 l 1227 553 l 1333 753 q 1383 873 1343 774 q 1518 1035 1446 1035 q 1578 984 1578 1035 q 1545 899 1578 962 l 1506 825 l 1449 704 l 1170 215 l 1095 78 q 1033 -27 1046 -9 q 1001 -55 1020 -45 q 958 -65 981 -65 q 902 -45 923 -65 q 887 3 881 -25 z "},"X":{"ha":1005,"x_min":47,"x_max":1105,"o":"m 693 490 l 808 272 q 932 60 869 157 q 944 24 944 43 q 919 -32 944 -7 q 863 -57 895 -57 q 745 93 821 -57 l 676 232 l 593 385 l 318 115 l 171 -25 q 106 -47 147 -47 q 63 -30 80 -47 q 47 14 47 -12 q 73 69 47 45 l 217 205 l 518 501 q 391 701 448 618 l 329 808 q 257 905 298 862 q 235 951 235 925 q 260 1007 235 981 q 315 1032 285 1032 q 422 931 366 1032 q 621 607 479 829 l 810 822 q 1044 1032 994 1032 q 1087 1014 1070 1032 q 1105 971 1105 996 q 1078 916 1105 943 q 909 733 975 811 l 806 608 q 693 490 755 547 z "},"Y":{"ha":882,"x_min":169,"x_max":982,"o":"m 453 318 q 334 566 354 475 q 261 749 315 643 q 197 878 224 821 q 169 954 169 936 q 194 1007 169 983 q 250 1032 220 1032 q 301 1000 282 1032 l 343 916 q 435 724 413 774 q 469 615 456 673 q 541 463 481 564 l 755 840 l 828 950 q 881 1019 865 1007 q 922 1031 896 1031 q 965 1014 947 1031 q 982 974 982 998 q 905 835 982 942 q 873 787 891 814 l 713 500 q 539 216 654 394 l 431 65 l 383 -8 q 317 -47 357 -47 q 274 -31 292 -47 q 257 9 257 -14 q 343 165 257 37 l 453 318 z "},"Z":{"ha":963,"x_min":39,"x_max":1079,"o":"m 881 786 q 553 481 766 715 l 220 86 l 485 96 q 750 104 731 104 q 892 93 855 104 q 930 50 930 82 q 905 -8 930 12 q 846 -29 881 -29 q 787 -26 826 -29 l 753 -25 l 109 -35 q 39 18 39 -35 q 100 146 39 68 l 488 587 q 820 899 651 774 l 579 885 l 304 885 l 254 884 q 214 898 229 884 q 199 937 199 911 q 221 998 199 972 q 322 1023 243 1023 q 460 1014 382 1023 q 599 1004 541 1004 q 755 1010 671 1004 q 913 1017 861 1017 q 1079 958 1079 1017 q 982 848 1079 913 l 881 786 z "},"[":{"ha":523,"x_min":74,"x_max":593,"o":"m 387 897 q 368 760 380 836 l 203 -150 l 264 -147 l 288 -147 l 381 -151 q 431 -204 431 -151 q 412 -259 431 -235 q 360 -283 393 -283 q 302 -281 340 -283 l 267 -279 q 171 -283 248 -279 q 74 -221 74 -288 q 161 273 74 -184 l 246 751 l 267 956 l 270 965 q 339 1031 289 1031 l 365 1031 q 400 1029 380 1031 l 437 1028 l 539 1031 q 593 979 593 1031 q 560 910 593 928 q 387 897 528 892 z "},"\\":{"ha":764,"x_min":271,"x_max":684,"o":"m 507 109 l 389 614 q 277 932 372 690 q 271 960 271 945 q 295 1010 271 987 q 348 1034 319 1034 q 386 1017 370 1034 q 438 903 401 1000 q 511 671 475 806 l 594 322 q 680 1 643 117 q 684 -22 684 -13 q 660 -72 684 -49 q 608 -96 635 -96 q 556 -55 574 -96 q 507 109 538 -14 z "},"]":{"ha":523,"x_min":81,"x_max":631,"o":"m 250 -279 l 224 -279 l 129 -283 q 81 -230 81 -283 q 101 -175 81 -198 q 149 -151 122 -151 q 210 -149 168 -151 l 245 -147 l 270 -147 l 327 -150 l 452 760 q 480 897 463 840 q 320 904 347 892 q 294 948 294 915 q 368 1031 294 1031 l 444 1028 l 470 1028 q 505 1029 486 1028 l 541 1031 q 617 965 631 1034 l 613 956 l 572 751 q 507 273 555 668 q 437 -212 452 -141 q 340 -283 422 -283 l 250 -279 z "},"^":{"ha":807,"x_min":262,"x_max":825,"o":"m 569 972 q 315 761 361 761 q 278 777 293 761 q 262 817 262 793 q 291 867 262 844 q 532 1096 342 908 q 578 1117 557 1117 q 683 1044 627 1117 q 723 994 698 1025 l 812 879 q 825 846 825 861 q 803 799 825 821 q 752 777 781 777 q 712 796 728 777 q 569 972 666 861 z "},"_":{"ha":871,"x_min":-60,"x_max":879,"o":"m 623 -233 q 478 -231 574 -233 q 335 -228 380 -228 l 33 -228 l -60 -233 l -40 -109 l 43 -109 q 161 -107 93 -109 l 366 -107 q 509 -110 414 -107 q 652 -114 604 -114 l 879 -109 l 860 -233 l 623 -233 z "},"`":{"ha":772,"x_min":265,"x_max":525,"o":"m 406 828 l 353 928 q 284 1015 328 976 q 265 1055 265 1032 q 288 1105 265 1084 q 336 1126 311 1126 q 451 1021 376 1126 q 525 867 525 915 q 502 821 525 842 q 451 799 479 799 q 406 828 420 799 z "},"a":{"ha":711,"x_min":56,"x_max":715,"o":"m 518 35 q 309 -36 372 -36 q 56 205 56 -36 q 198 569 56 430 q 509 708 340 708 q 645 674 575 708 q 715 596 715 641 q 697 553 715 568 q 659 400 684 526 q 634 218 634 273 q 669 29 634 149 l 672 18 q 597 -45 657 -45 q 559 -17 587 -45 q 518 35 531 10 m 568 562 q 500 587 525 587 q 289 485 387 587 q 191 231 191 383 q 319 82 191 82 q 509 157 420 82 q 568 562 520 441 z "},"b":{"ha":824,"x_min":110,"x_max":814,"o":"m 220 12 q 162 -21 193 -21 q 124 -6 139 -21 q 110 31 110 8 q 115 65 110 41 q 151 283 136 160 q 191 578 165 406 l 254 960 q 286 1032 259 996 q 348 1068 313 1068 q 393 1025 393 1068 q 378 966 393 1006 q 374 954 375 958 l 321 632 q 545 713 450 713 q 742 629 670 713 q 814 420 814 546 q 690 102 814 233 q 402 -29 566 -29 q 220 12 299 -29 m 298 486 l 277 368 l 245 151 q 352 107 321 115 q 423 100 382 100 q 612 186 533 100 q 690 399 690 272 q 646 532 690 481 q 524 583 602 583 q 298 486 437 583 z "},"c":{"ha":713,"x_min":91,"x_max":720,"o":"m 486 107 l 570 149 q 602 160 594 160 q 638 144 624 160 q 653 104 653 127 q 544 3 653 49 q 376 -43 435 -43 q 168 31 244 -43 q 91 214 91 104 q 223 547 91 372 q 487 721 355 721 q 640 686 561 721 q 720 602 720 651 q 698 550 720 574 q 650 526 677 526 q 594 559 623 526 q 467 593 564 593 q 305 462 395 593 q 214 237 214 331 q 263 128 214 171 q 395 85 311 85 q 486 107 437 85 z "},"d":{"ha":816,"x_min":94,"x_max":888,"o":"m 595 41 q 373 -31 488 -31 q 169 48 244 -31 q 94 242 94 126 q 210 564 94 420 q 507 707 326 707 q 681 636 617 707 q 764 1020 744 960 q 837 1080 783 1080 q 888 1034 888 1080 q 795 599 888 987 q 741 302 761 457 q 722 58 720 146 l 722 50 q 700 4 722 27 q 646 -20 678 -20 q 595 41 605 -20 m 600 196 l 616 313 l 644 471 q 491 581 610 581 q 281 480 346 581 q 217 275 217 379 q 266 151 217 204 q 393 97 315 97 q 600 196 498 97 z "},"e":{"ha":761,"x_min":78,"x_max":738,"o":"m 197 204 q 406 92 256 92 q 531 113 458 92 q 630 168 604 135 q 686 204 658 204 q 723 189 708 204 q 738 153 738 174 q 620 27 738 84 q 386 -31 501 -31 q 159 38 241 -31 q 78 221 78 106 q 191 548 78 388 q 484 708 304 708 q 667 668 604 708 q 730 555 730 628 q 689 451 730 494 q 600 385 648 408 q 475 328 552 361 l 197 204 m 205 329 l 427 429 q 619 532 568 493 q 465 586 570 586 q 205 329 298 586 z "},"f":{"ha":706,"x_min":140,"x_max":809,"o":"m 700 954 q 563 897 617 954 q 481 725 509 840 l 471 684 q 623 692 587 692 q 720 624 730 692 q 657 566 711 576 q 631 562 646 563 q 602 561 617 561 q 446 553 571 563 l 415 399 q 408 345 412 377 q 397 271 404 313 q 388 198 392 229 q 380 146 384 167 q 334 -54 360 19 q 262 -109 314 -109 q 237 -104 248 -109 q 217 -91 225 -99 q 206 -71 210 -82 q 204 -46 202 -59 q 206 -39 205 -43 q 208 -32 206 -36 q 234 61 223 13 q 254 160 245 109 l 281 346 l 311 542 q 241 536 269 538 q 203 534 214 534 q 154 551 168 534 q 146 602 140 568 q 275 671 156 669 l 340 673 q 351 718 345 692 q 367 777 357 744 q 478 999 408 925 q 713 1084 564 1084 q 799 1018 809 1084 q 700 954 788 954 z "},"g":{"ha":737,"x_min":-16,"x_max":766,"o":"m 691 292 l 612 -49 q 575 -158 597 -104 q 521 -254 553 -212 q 447 -323 489 -295 q 347 -366 406 -351 q 208 -382 288 -382 q -16 -309 -16 -382 q -1 -262 -16 -286 q 52 -239 14 -239 q 85 -242 64 -239 q 245 -261 187 -261 q 430 -177 364 -261 q 532 118 495 -93 q 308 -17 433 -17 q 135 48 199 -17 q 72 218 72 113 q 198 547 72 399 q 544 694 324 694 q 704 629 671 694 q 766 570 766 627 q 705 341 766 536 q 691 292 694 309 m 519 586 q 289 478 373 586 q 205 231 205 370 q 328 96 205 96 q 457 158 389 96 q 552 286 525 220 q 630 545 578 352 q 519 586 581 586 z "},"h":{"ha":802,"x_min":104,"x_max":762,"o":"m 300 334 q 231 29 258 73 q 164 -16 204 -16 q 121 1 138 -16 q 104 41 104 18 q 115 81 104 58 q 139 179 124 99 l 236 778 l 256 871 q 264 957 264 916 q 283 1057 264 1028 q 345 1086 303 1086 q 401 1026 401 1086 q 366 760 401 930 q 338 611 347 668 l 329 551 q 606 700 463 700 q 719 669 676 700 q 762 543 762 638 q 755 453 762 505 l 741 323 l 732 182 q 731 107 731 168 q 732 35 730 47 q 727 6 734 24 q 700 -26 720 -12 q 654 -41 680 -41 q 607 -18 620 -41 q 595 98 595 5 q 613 353 595 266 q 633 490 633 449 q 585 564 633 564 q 459 520 521 564 q 300 334 398 477 z "},"i":{"ha":389,"x_min":131,"x_max":448,"o":"m 286 924 q 315 988 286 960 q 379 1015 343 1015 q 429 996 410 1015 q 448 950 448 977 q 419 886 448 914 q 354 859 391 859 q 306 878 325 859 q 286 924 286 897 m 188 -3 q 131 50 131 -3 l 158 257 q 197 467 168 338 q 229 627 222 583 q 307 694 241 694 q 364 642 364 694 q 331 467 364 624 q 291 257 298 323 q 264 67 277 137 q 188 -3 251 -3 z "},"j":{"ha":560,"x_min":-114,"x_max":458,"o":"m 296 923 q 325 986 296 958 q 389 1014 353 1014 q 439 994 420 1014 q 458 948 458 975 q 429 886 458 913 q 364 859 400 859 q 315 878 334 859 q 296 923 296 897 m 240 249 l 275 623 q 302 680 278 650 q 357 710 326 710 q 402 692 382 710 q 421 659 422 675 l 380 267 l 332 -150 q 251 -320 322 -235 q 87 -406 180 -406 q -61 -314 -9 -406 q -114 -186 -114 -222 q -89 -134 -114 -157 q -32 -110 -64 -110 q 44 -216 5 -110 q 110 -269 63 -269 q 168 -233 139 -269 q 207 -102 196 -197 q 240 249 218 -8 z "},"k":{"ha":750,"x_min":106,"x_max":799,"o":"m 416 338 q 280 250 388 317 q 241 45 254 128 q 214 -5 236 14 q 163 -24 193 -24 q 106 39 106 -24 q 142 236 106 66 q 215 614 169 347 q 267 947 260 881 q 278 1030 273 1008 q 304 1070 283 1053 q 354 1088 325 1088 q 410 1031 410 1088 l 400 945 q 391 872 395 890 l 353 654 q 313 418 326 503 q 515 572 399 476 l 688 726 q 741 750 715 750 q 782 732 765 750 q 799 689 799 713 q 788 654 799 670 q 697 564 777 637 q 533 425 616 490 l 650 224 q 724 46 724 96 q 699 -5 724 18 q 643 -28 674 -28 q 591 11 605 -28 q 509 174 563 88 l 416 338 z "},"l":{"ha":380,"x_min":113,"x_max":427,"o":"m 341 533 l 258 90 q 238 12 247 31 q 213 -18 230 -7 q 170 -29 195 -29 q 113 23 113 -29 q 134 142 113 39 l 208 533 l 292 1017 q 320 1078 299 1065 q 369 1092 342 1092 q 427 1042 427 1092 q 361 648 427 1013 q 341 533 349 587 z "},"m":{"ha":1079,"x_min":90,"x_max":1036,"o":"m 659 469 q 644 343 648 404 l 634 161 q 621 -12 627 23 q 593 -66 614 -47 q 542 -85 571 -85 q 486 -31 486 -85 q 493 29 486 -28 q 507 227 500 85 q 530 469 517 389 q 535 528 535 503 q 527 581 535 559 q 420 511 475 560 l 324 421 l 286 378 q 258 258 281 350 q 229 84 229 138 q 225 20 229 39 q 199 -17 220 1 q 148 -35 177 -35 q 90 60 90 -35 q 124 261 90 117 q 154 394 151 367 q 161 490 157 421 q 203 706 177 659 q 266 753 230 753 q 308 733 290 753 q 326 688 326 713 q 310 616 326 675 q 306 599 307 606 l 296 526 q 420 658 342 599 q 547 717 499 717 q 675 611 653 717 q 898 710 766 710 q 1036 552 1036 710 q 1028 238 1036 424 q 1016 -4 1019 6 q 988 -41 1009 -25 q 941 -57 966 -57 q 885 3 885 -57 q 895 212 885 111 l 905 424 q 894 521 907 466 q 854 576 881 576 q 762 537 833 576 q 659 469 690 498 z "},"n":{"ha":727,"x_min":93,"x_max":727,"o":"m 322 574 q 581 725 459 725 q 727 543 727 725 q 720 440 727 498 l 697 310 q 688 164 688 258 q 669 -13 688 24 q 602 -49 650 -49 q 546 16 542 -49 l 550 164 q 566 316 551 224 q 591 441 581 409 q 597 513 597 484 q 558 587 597 587 q 376 470 469 587 q 262 260 283 353 q 253 224 258 243 q 236 132 239 177 l 229 47 q 204 -11 226 10 q 150 -32 182 -32 q 93 21 93 -32 l 103 132 q 146 351 107 198 q 193 610 184 509 l 199 667 q 225 720 203 699 q 279 741 248 741 q 334 653 342 741 l 322 574 z "},"o":{"ha":730,"x_min":82,"x_max":703,"o":"m 82 232 q 199 557 82 412 q 494 703 315 703 q 649 631 595 703 q 703 442 703 560 q 595 104 703 249 q 326 -40 486 -40 q 149 38 215 -40 q 82 232 82 116 m 458 566 q 284 461 352 566 q 216 250 216 356 q 253 138 216 179 q 348 97 290 97 q 506 178 437 97 q 574 419 574 260 q 462 566 574 566 l 458 566 z "},"p":{"ha":743,"x_min":41,"x_max":744,"o":"m 232 -1 l 179 -326 q 103 -395 168 -395 q 57 -375 73 -395 q 46 -326 41 -356 l 135 215 q 167 486 153 326 l 179 624 q 209 706 182 665 q 275 746 236 746 q 327 693 327 746 q 310 619 327 667 q 539 700 438 700 q 744 444 744 700 q 640 103 744 231 q 378 -24 536 -24 q 232 -1 309 -24 m 298 464 q 257 142 289 363 q 399 113 322 113 q 555 197 501 113 q 610 426 610 281 q 518 564 610 564 q 425 547 471 564 q 298 464 378 530 z "},"q":{"ha":722,"x_min":60,"x_max":723,"o":"m 558 -47 q 500 -310 520 -184 q 475 -358 496 -339 q 423 -376 454 -376 q 366 -320 366 -376 q 383 -233 366 -288 l 441 -8 q 355 -24 375 -24 q 139 44 217 -24 q 60 222 60 111 q 111 434 60 315 q 277 637 161 553 q 551 721 393 721 q 611 692 599 721 q 667 718 644 718 q 707 701 690 718 q 723 657 723 683 q 697 503 723 637 q 631 214 671 370 l 558 -47 m 589 604 q 564 600 581 600 l 502 605 q 368 554 450 605 q 242 409 286 503 q 198 241 198 314 q 239 136 198 178 q 362 94 281 94 q 484 181 442 94 q 551 422 525 267 l 589 604 z "},"r":{"ha":667,"x_min":87,"x_max":713,"o":"m 701 501 q 676 445 697 474 q 619 416 656 416 q 571 465 571 416 l 574 501 q 576 530 574 513 l 583 587 q 281 395 380 566 l 224 24 q 146 -46 213 -46 q 97 24 87 -46 l 172 498 q 215 681 198 661 q 267 701 233 701 q 321 625 321 701 q 318 589 321 609 q 627 715 465 715 q 713 609 713 715 q 708 549 713 582 l 701 501 z "},"s":{"ha":676,"x_min":31,"x_max":705,"o":"m 570 621 q 503 602 544 613 q 334 539 382 570 q 279 465 286 508 q 317 456 296 459 q 548 370 476 427 q 619 216 619 313 q 528 27 619 94 q 285 -40 436 -40 q 109 -6 186 -40 q 31 82 31 28 q 57 138 31 114 q 113 163 83 163 q 161 131 133 163 q 224 106 176 116 q 306 96 273 96 q 484 191 484 96 q 372 297 484 268 l 304 313 q 172 370 199 337 q 146 444 146 403 q 178 562 146 505 q 268 652 210 618 q 450 720 326 686 q 585 762 548 745 q 648 775 612 775 q 705 720 705 775 l 701 671 l 703 625 q 678 543 704 563 q 624 522 652 522 q 579 542 589 522 q 570 621 570 561 z "},"t":{"ha":654,"x_min":104,"x_max":675,"o":"m 428 574 q 407 498 420 541 q 350 211 350 310 q 404 94 350 94 q 484 127 458 94 q 549 174 519 174 q 592 157 571 174 q 612 113 612 140 q 537 11 612 53 q 389 -32 463 -32 q 214 186 214 -32 q 267 477 214 305 q 294 568 281 523 q 126 593 147 576 q 104 647 104 610 q 125 697 104 677 q 180 717 145 717 l 321 705 q 327 746 325 723 q 332 798 328 769 l 343 882 q 369 928 347 909 q 419 947 390 947 q 476 856 476 947 q 468 787 476 829 l 454 705 q 551 717 545 717 q 648 703 622 717 q 675 652 675 689 q 652 598 675 618 q 597 578 629 578 l 530 581 q 428 574 480 581 z "},"u":{"ha":722,"x_min":119,"x_max":766,"o":"m 708 396 l 684 249 q 658 58 661 107 q 648 -7 654 8 q 621 -38 642 -22 q 574 -54 600 -54 q 519 9 523 -54 q 316 -33 427 -33 q 170 8 222 -33 q 119 127 119 50 q 129 345 119 228 q 169 575 139 463 q 219 705 199 687 q 270 724 240 724 q 313 709 297 724 q 330 671 330 694 q 302 557 330 649 q 266 380 280 486 q 251 197 251 274 q 255 129 251 157 q 337 104 294 104 q 536 134 428 104 l 574 403 q 603 557 580 438 q 648 698 625 676 q 705 720 671 720 q 750 701 734 720 q 760 653 766 682 l 708 396 z "},"v":{"ha":675,"x_min":143,"x_max":760,"o":"m 411 35 q 340 -28 401 -28 q 278 31 292 -28 l 218 307 l 146 618 q 143 648 143 629 q 167 692 143 667 q 225 717 191 717 q 277 675 265 717 l 374 201 q 551 515 450 321 q 648 687 624 661 q 700 713 672 713 q 743 695 726 713 q 760 654 760 677 q 602 355 760 628 l 411 35 z "},"w":{"ha":950,"x_min":142,"x_max":1015,"o":"m 546 439 l 469 310 l 322 29 q 289 -9 309 3 q 218 -52 260 -52 q 161 52 179 -52 q 146 436 142 155 l 146 538 q 175 682 146 658 q 232 705 204 705 q 273 691 257 705 q 289 617 289 677 q 286 550 289 593 l 281 452 l 272 146 q 504 628 363 319 q 594 703 540 703 q 648 654 637 703 q 659 375 659 606 q 665 109 659 205 l 743 293 l 889 663 q 954 704 905 704 q 998 688 981 704 q 1015 648 1015 671 q 963 508 1015 633 q 846 238 911 382 q 745 37 781 93 q 684 -37 710 -19 q 632 -56 659 -56 q 570 -1 597 -56 q 543 288 543 54 l 546 439 z "},"x":{"ha":820,"x_min":50,"x_max":888,"o":"m 693 489 l 554 370 l 730 81 q 741 45 741 63 q 715 -6 741 18 q 663 -29 690 -29 q 635 -21 646 -29 q 571 68 623 -12 q 444 275 519 149 l 290 139 l 176 41 q 106 1 130 1 q 66 19 83 1 q 50 60 50 37 q 142 172 50 100 q 214 229 205 221 l 382 380 l 313 509 q 237 621 270 588 q 219 663 219 640 q 243 715 219 690 q 294 741 268 741 q 399 636 333 741 l 490 473 l 642 596 q 774 718 739 675 q 831 750 800 750 q 871 732 854 750 q 888 692 888 715 q 808 582 888 652 l 693 489 z "},"y":{"ha":723,"x_min":102,"x_max":808,"o":"m 479 97 q 296 -212 348 -116 l 231 -345 q 163 -393 207 -393 q 120 -378 137 -393 q 102 -338 102 -363 q 311 65 102 -276 l 142 532 l 119 582 q 109 624 109 605 q 135 680 109 656 q 191 704 161 704 q 230 688 212 704 q 304 535 248 671 q 410 225 361 399 l 547 458 q 638 601 582 517 q 712 694 694 684 q 747 705 730 705 q 790 688 773 705 q 808 648 808 671 q 795 606 808 629 l 479 97 z "},"z":{"ha":747,"x_min":75,"x_max":803,"o":"m 348 113 q 473 115 420 115 q 549 104 499 115 q 627 94 597 94 q 685 39 685 94 q 663 -17 685 7 q 606 -41 641 -41 q 529 -32 573 -41 q 451 -22 484 -22 q 158 -50 304 -22 q 132 -53 143 -53 q 75 -7 75 -53 q 120 71 75 35 q 583 570 325 233 q 452 564 493 564 q 312 571 400 564 q 211 595 224 578 q 197 632 197 611 q 220 691 197 665 q 275 717 242 717 q 373 708 313 717 q 473 700 441 700 q 612 707 519 700 q 752 714 719 714 q 803 677 803 714 q 733 549 803 619 q 544 339 658 473 q 348 113 393 157 z "},"{":{"ha":509,"x_min":58,"x_max":631,"o":"m 232 389 q 291 235 291 297 q 274 155 291 205 q 254 43 254 92 q 273 -74 254 -15 q 328 -134 291 -134 q 405 -140 383 -134 q 427 -179 427 -147 q 409 -235 427 -208 q 309 -261 391 -261 q 170 -175 216 -261 q 123 15 123 -90 q 144 144 123 75 q 160 217 160 201 q 111 301 160 261 q 58 372 58 343 q 119 457 58 404 q 222 521 180 509 l 262 810 q 361 1029 283 958 q 532 1101 439 1101 q 601 1083 571 1101 q 631 1034 631 1064 q 534 975 631 981 q 423 928 453 970 q 381 780 393 885 q 353 559 361 613 q 307 456 344 506 q 232 389 269 406 z "},"|":{"ha":585,"x_min":213,"x_max":543,"o":"m 532 1103 l 330 -167 q 260 -245 318 -245 q 213 -186 213 -245 q 239 17 213 -150 l 411 1103 q 436 1145 415 1127 q 484 1162 456 1162 q 532 1103 543 1162 z "},"}":{"ha":509,"x_min":-20,"x_max":526,"o":"m 357 389 q 305 453 324 407 q 286 533 286 500 q 315 693 286 553 q 344 873 344 833 q 321 947 344 923 q 241 975 299 971 q 161 1018 161 979 q 200 1079 161 1056 q 282 1101 239 1101 q 411 1053 353 1101 q 468 892 468 1005 q 461 810 468 854 l 435 673 l 410 521 q 484 464 443 509 q 526 385 526 418 q 450 301 526 351 q 395 254 412 277 q 373 213 377 231 q 366 144 368 196 q 270 -138 359 -15 q 75 -261 180 -261 q -5 -247 10 -261 q -20 -210 -20 -232 q 2 -151 -20 -168 q 94 -134 24 -134 q 150 -103 122 -134 q 204 -13 178 -72 q 235 78 231 45 q 245 194 239 111 q 357 389 250 279 z "},"~":{"ha":830,"x_min":130,"x_max":861,"o":"m 514 585 l 575 494 q 661 440 612 440 q 725 522 688 440 q 808 606 764 606 q 846 592 831 606 q 861 557 861 578 q 793 402 861 488 q 637 317 726 317 q 543 341 591 317 q 439 463 495 366 q 396 513 410 513 q 241 385 340 513 q 183 350 219 350 q 145 365 161 350 q 130 399 130 379 q 224 540 130 447 q 415 633 319 633 q 514 585 473 633 z "},"Ä":{"ha":1016,"x_min":94,"x_max":1088,"o":"m 755 353 q 570 319 681 344 l 383 282 q 216 11 243 37 q 154 -16 189 -16 q 112 1 129 -16 q 94 41 94 18 q 237 300 94 77 q 230 330 230 313 q 309 411 230 394 q 578 772 396 541 q 799 1003 761 1003 q 860 928 852 1003 l 865 700 l 893 229 l 914 121 q 923 56 923 77 q 898 3 923 26 q 842 -21 873 -21 q 777 69 798 -21 q 755 353 757 159 m 733 754 l 489 441 q 747 493 556 459 l 733 754 m 1088 1183 q 1064 1137 1088 1158 q 981 1116 1040 1116 q 936 1130 956 1116 q 916 1166 916 1145 q 939 1222 916 1203 q 1027 1242 962 1242 q 1069 1223 1049 1242 q 1088 1183 1088 1204 m 741 1179 q 708 1128 741 1147 q 649 1109 675 1109 q 576 1164 576 1109 q 607 1217 576 1197 q 662 1236 639 1236 q 741 1179 741 1236 z "},"Å":{"ha":1016,"x_min":94,"x_max":1065,"o":"m 755 353 q 570 319 681 344 l 383 282 q 216 11 243 37 q 154 -16 189 -16 q 112 1 129 -16 q 94 41 94 18 q 237 300 94 77 q 230 330 230 313 q 309 411 230 394 q 578 772 396 541 q 799 1003 761 1003 q 860 928 852 1003 l 865 700 l 893 229 l 914 121 q 923 56 923 77 q 898 3 923 26 q 842 -21 873 -21 q 777 69 798 -21 q 755 353 757 159 m 733 754 l 489 441 q 747 493 556 459 l 733 754 m 879 1357 q 1014 1313 964 1357 q 1065 1203 1065 1268 q 999 1042 1065 1114 q 786 970 932 970 q 645 1017 692 970 q 597 1120 597 1063 q 675 1288 597 1219 q 879 1357 753 1357 m 961 1187 q 932 1237 961 1217 q 864 1257 903 1257 q 738 1220 774 1257 q 702 1140 702 1183 q 735 1091 702 1112 q 812 1069 769 1069 q 928 1106 895 1069 q 961 1187 961 1143 z "},"Ç":{"ha":837,"x_min":102,"x_max":953,"o":"m 836 999 q 902 1034 865 1034 q 953 954 953 1034 q 928 800 953 839 q 862 761 904 761 q 805 811 819 761 q 774 867 791 862 q 709 872 758 872 q 415 665 590 872 q 241 298 241 458 q 286 176 241 229 q 404 122 330 122 q 520 145 463 122 q 684 239 576 168 q 747 267 728 267 q 789 249 772 267 q 806 206 806 231 q 792 165 806 186 q 696 90 779 144 q 535 9 613 36 q 382 -17 457 -17 q 180 70 258 -17 q 102 275 102 157 q 322 752 102 492 q 731 1011 543 1011 q 836 999 806 1011 m 326 -280 q 211 -255 256 -280 q 166 -191 166 -230 q 220 -144 166 -144 q 273 -161 235 -144 q 335 -178 310 -178 q 411 -105 411 -178 q 378 -42 411 -71 q 296 -3 345 -14 q 260 38 260 6 q 316 99 260 99 q 456 42 394 99 q 517 -85 517 -16 q 473 -220 517 -159 q 326 -280 429 -280 z "},"É":{"ha":867,"x_min":119,"x_max":980,"o":"m 391 907 q 332 578 391 842 l 635 607 q 796 619 762 619 q 857 563 857 619 q 782 481 857 490 l 300 437 q 254 135 254 227 q 272 82 254 94 q 366 71 289 71 l 620 77 q 683 83 629 77 q 762 31 762 94 q 713 -49 762 -31 q 415 -66 664 -66 q 171 -26 222 -66 q 119 123 119 14 q 172 472 119 243 q 169 496 169 488 q 191 547 169 526 q 242 799 232 735 q 253 909 253 862 q 276 1033 258 1000 q 339 1065 294 1065 q 386 1044 368 1065 q 682 1089 559 1089 q 862 1072 786 1089 q 956 1038 938 1055 q 975 996 975 1021 q 950 938 975 963 q 896 913 926 913 q 875 917 888 913 q 660 949 762 949 q 391 907 547 949 m 640 1253 q 669 1303 640 1278 q 775 1411 703 1332 q 853 1483 806 1446 q 928 1521 901 1521 q 964 1506 949 1521 q 980 1468 980 1490 q 946 1410 980 1434 q 840 1313 886 1368 q 692 1198 739 1198 q 655 1213 671 1198 q 640 1253 640 1229 z "},"Ñ":{"ha":1107,"x_min":87,"x_max":1165,"o":"m 357 777 l 304 467 q 266 200 288 375 q 155 -54 233 -54 q 105 -34 122 -54 q 87 9 87 -14 q 106 106 87 33 q 142 287 112 127 q 179 500 172 446 l 201 659 q 220 842 217 770 l 231 958 q 268 1025 235 999 q 333 1051 301 1051 q 410 974 368 1051 q 940 174 660 477 q 954 260 945 192 l 989 518 q 1009 692 1001 604 q 1017 818 1017 781 q 1009 890 1017 836 q 1006 940 1006 923 q 1091 1040 1006 1040 q 1165 865 1165 1040 q 1134 566 1165 747 l 1076 223 q 1029 18 1049 62 q 952 -26 1008 -26 q 870 22 922 -26 q 674 272 819 71 q 357 777 528 474 m 760 1332 l 806 1261 q 875 1221 832 1221 q 936 1246 913 1221 l 976 1305 l 997 1346 q 1042 1365 1006 1365 q 1084 1328 1084 1365 q 1024 1207 1084 1294 q 880 1121 964 1121 q 768 1143 802 1121 q 700 1232 733 1166 q 642 1271 676 1271 q 570 1239 600 1271 l 530 1182 q 483 1152 509 1152 q 437 1192 437 1152 l 439 1207 q 506 1308 442 1243 q 658 1372 570 1372 q 760 1332 726 1372 z "},"Ö":{"ha":1109,"x_min":109,"x_max":1128,"o":"m 109 312 q 183 606 109 441 q 410 899 257 770 q 743 1028 562 1028 q 1128 707 1128 1028 q 946 201 1128 444 q 513 -41 763 -41 q 221 59 333 -41 q 109 312 109 160 m 249 336 q 329 163 249 230 q 534 97 409 97 q 851 289 714 97 q 988 685 988 480 q 923 845 988 800 q 721 889 857 889 q 393 700 538 889 q 249 336 249 511 m 1078 1199 q 1053 1153 1078 1174 q 970 1132 1029 1132 q 925 1146 945 1132 q 905 1182 905 1161 q 928 1239 905 1219 q 1016 1258 951 1258 q 1058 1239 1038 1258 q 1078 1199 1078 1220 m 730 1196 q 697 1144 730 1164 q 638 1125 665 1125 q 565 1180 565 1125 q 596 1233 565 1213 q 651 1253 628 1253 q 730 1196 730 1253 z "},"Ü":{"ha":1023,"x_min":155,"x_max":1070,"o":"m 366 901 l 304 503 q 292 365 292 426 q 526 92 292 92 q 907 783 795 92 l 926 904 q 1015 1019 946 1019 q 1070 958 1070 1019 q 1067 926 1070 943 l 1041 758 q 511 -28 920 -28 q 243 60 332 -28 q 155 349 155 149 q 192 679 155 429 q 257 972 230 930 q 321 1015 284 1015 q 370 947 370 1015 q 366 901 370 927 m 987 1184 q 963 1138 987 1159 q 880 1117 939 1117 q 834 1132 854 1117 q 814 1167 814 1146 q 838 1224 814 1204 q 926 1243 861 1243 q 968 1224 948 1243 q 987 1184 987 1205 m 640 1181 q 607 1129 640 1149 q 548 1110 574 1110 q 475 1165 475 1110 q 506 1218 475 1198 q 561 1238 538 1238 q 640 1181 640 1238 z "},"á":{"ha":711,"x_min":56,"x_max":808,"o":"m 518 35 q 309 -36 372 -36 q 56 205 56 -36 q 198 569 56 430 q 509 708 340 708 q 645 674 575 708 q 715 596 715 641 q 697 553 715 568 q 659 400 684 526 q 634 218 634 273 q 669 29 634 149 l 672 18 q 597 -45 657 -45 q 559 -17 587 -45 q 518 35 531 10 m 568 562 q 500 587 525 587 q 289 485 387 587 q 191 231 191 383 q 319 82 191 82 q 509 157 420 82 q 568 562 520 441 m 469 861 q 497 911 469 886 q 604 1019 532 940 q 682 1092 634 1054 q 757 1129 729 1129 q 793 1114 777 1129 q 808 1076 808 1098 q 774 1018 808 1042 q 668 921 714 976 q 520 806 567 806 q 484 821 499 806 q 469 861 469 837 z "},"à":{"ha":711,"x_min":56,"x_max":715,"o":"m 518 35 q 309 -36 372 -36 q 56 205 56 -36 q 198 569 56 430 q 509 708 340 708 q 645 674 575 708 q 715 596 715 641 q 697 553 715 568 q 659 400 684 526 q 634 218 634 273 q 669 29 634 149 l 672 18 q 597 -45 657 -45 q 559 -17 587 -45 q 518 35 531 10 m 568 562 q 500 587 525 587 q 289 485 387 587 q 191 231 191 383 q 319 82 191 82 q 509 157 420 82 q 568 562 520 441 m 506 825 l 453 924 q 384 1012 427 972 q 365 1052 365 1029 q 388 1102 365 1080 q 435 1123 411 1123 q 550 1017 476 1123 q 625 864 625 911 q 602 817 625 839 q 551 795 578 795 q 506 825 520 795 z "},"â":{"ha":711,"x_min":56,"x_max":796,"o":"m 518 35 q 309 -36 372 -36 q 56 205 56 -36 q 198 569 56 430 q 509 708 340 708 q 645 674 575 708 q 715 596 715 641 q 697 553 715 568 q 659 400 684 526 q 634 218 634 273 q 669 29 634 149 l 672 18 q 597 -45 657 -45 q 559 -17 587 -45 q 518 35 531 10 m 568 562 q 500 587 525 587 q 289 485 387 587 q 191 231 191 383 q 319 82 191 82 q 509 157 420 82 q 568 562 520 441 m 543 1008 q 288 795 336 795 q 252 812 267 795 q 236 849 236 828 q 263 903 236 879 q 507 1131 292 925 q 551 1152 528 1152 q 607 1129 578 1152 q 695 1030 635 1107 l 784 915 q 796 883 796 899 q 774 834 796 857 q 724 812 753 812 q 677 841 696 812 q 543 1008 658 869 z "},"ä":{"ha":711,"x_min":56,"x_max":790,"o":"m 518 35 q 309 -36 372 -36 q 56 205 56 -36 q 198 569 56 430 q 509 708 340 708 q 645 674 575 708 q 715 596 715 641 q 697 553 715 568 q 659 400 684 526 q 634 218 634 273 q 669 29 634 149 l 672 18 q 597 -45 657 -45 q 559 -17 587 -45 q 518 35 531 10 m 568 562 q 500 587 525 587 q 289 485 387 587 q 191 231 191 383 q 319 82 191 82 q 509 157 420 82 q 568 562 520 441 m 790 877 q 766 831 790 852 q 683 810 741 810 q 637 824 657 810 q 617 860 617 839 q 641 917 617 897 q 728 936 664 936 q 770 917 751 936 q 790 877 790 898 m 443 873 q 410 822 443 842 q 351 803 377 803 q 277 858 277 803 q 309 911 277 891 q 363 930 340 930 q 443 873 443 930 z "},"ã":{"ha":711,"x_min":56,"x_max":865,"o":"m 518 35 q 309 -36 372 -36 q 56 205 56 -36 q 198 569 56 430 q 509 708 340 708 q 645 674 575 708 q 715 596 715 641 q 697 553 715 568 q 659 400 684 526 q 634 218 634 273 q 669 29 634 149 l 672 18 q 597 -45 657 -45 q 559 -17 587 -45 q 518 35 531 10 m 568 562 q 500 587 525 587 q 289 485 387 587 q 191 231 191 383 q 319 82 191 82 q 509 157 420 82 q 568 562 520 441 m 540 1001 l 586 930 q 655 890 612 890 q 716 915 693 890 l 756 975 l 777 1015 q 822 1034 787 1034 q 865 997 865 1034 q 805 877 865 963 q 661 790 745 790 q 548 812 583 790 q 480 901 513 835 q 422 940 456 940 q 351 908 380 940 l 311 851 q 263 821 289 821 q 217 861 217 821 l 220 876 q 286 977 222 912 q 438 1041 350 1041 q 540 1001 506 1041 z "},"å":{"ha":711,"x_min":56,"x_max":788,"o":"m 518 35 q 309 -36 372 -36 q 56 205 56 -36 q 198 569 56 430 q 509 708 340 708 q 645 674 575 708 q 715 596 715 641 q 697 553 715 568 q 659 400 684 526 q 634 218 634 273 q 669 29 634 149 l 672 18 q 597 -45 657 -45 q 559 -17 587 -45 q 518 35 531 10 m 568 562 q 500 587 525 587 q 289 485 387 587 q 191 231 191 383 q 319 82 191 82 q 509 157 420 82 q 568 562 520 441 m 602 1192 q 738 1147 687 1192 q 788 1038 788 1103 q 722 876 788 948 q 509 804 656 804 q 368 851 416 804 q 321 955 321 898 q 399 1123 321 1054 q 602 1192 477 1192 m 684 1022 q 655 1072 684 1051 q 587 1092 627 1092 q 461 1055 497 1092 q 425 975 425 1017 q 459 925 425 947 q 536 904 492 904 q 651 941 618 904 q 684 1022 684 978 z "},"ç":{"ha":713,"x_min":104,"x_max":733,"o":"m 473 -28 q 498 -106 498 -65 q 454 -239 498 -177 q 305 -301 410 -301 q 191 -276 237 -301 q 144 -212 144 -251 q 199 -165 144 -165 q 252 -182 215 -165 q 313 -199 288 -199 q 391 -123 391 -199 q 304 -32 391 -70 q 157 57 210 -12 q 104 216 104 126 q 237 547 104 373 q 500 721 369 721 q 654 686 574 721 q 733 602 733 651 q 712 550 733 574 q 663 526 690 526 q 607 559 637 526 q 480 593 578 593 q 318 462 409 593 q 228 237 228 331 q 276 128 228 171 q 409 85 325 85 q 499 107 450 85 l 584 149 q 616 160 608 160 q 652 144 637 160 q 667 104 667 127 q 473 -28 667 28 z "},"é":{"ha":761,"x_min":78,"x_max":817,"o":"m 197 204 q 406 92 256 92 q 531 113 458 92 q 630 168 604 135 q 686 204 658 204 q 723 189 708 204 q 738 153 738 174 q 620 27 738 84 q 386 -31 501 -31 q 159 38 241 -31 q 78 221 78 106 q 191 548 78 388 q 484 708 304 708 q 667 668 604 708 q 730 555 730 628 q 689 451 730 494 q 600 385 648 408 q 475 328 552 361 l 197 204 m 205 329 l 427 429 q 619 532 568 493 q 465 586 570 586 q 205 329 298 586 m 477 861 q 505 911 477 886 q 612 1019 540 940 q 690 1092 642 1054 q 765 1129 737 1129 q 801 1114 785 1129 q 817 1076 817 1098 q 783 1018 817 1042 q 676 921 722 976 q 528 806 575 806 q 492 821 507 806 q 477 861 477 837 z "},"è":{"ha":761,"x_min":78,"x_max":738,"o":"m 197 204 q 406 92 256 92 q 531 113 458 92 q 630 168 604 135 q 686 204 658 204 q 723 189 708 204 q 738 153 738 174 q 620 27 738 84 q 386 -31 501 -31 q 159 38 241 -31 q 78 221 78 106 q 191 548 78 388 q 484 708 304 708 q 667 668 604 708 q 730 555 730 628 q 689 451 730 494 q 600 385 648 408 q 475 328 552 361 l 197 204 m 205 329 l 427 429 q 619 532 568 493 q 465 586 570 586 q 205 329 298 586 m 513 828 l 460 928 q 391 1015 435 976 q 372 1055 372 1032 q 395 1105 372 1084 q 443 1126 418 1126 q 558 1021 484 1126 q 632 867 632 915 q 609 821 632 842 q 558 799 586 799 q 513 828 528 799 z "},"ê":{"ha":761,"x_min":78,"x_max":823,"o":"m 197 204 q 406 92 256 92 q 531 113 458 92 q 630 168 604 135 q 686 204 658 204 q 723 189 708 204 q 738 153 738 174 q 620 27 738 84 q 386 -31 501 -31 q 159 38 241 -31 q 78 221 78 106 q 191 548 78 388 q 484 708 304 708 q 667 668 604 708 q 730 555 730 628 q 689 451 730 494 q 600 385 648 408 q 475 328 552 361 l 197 204 m 205 329 l 427 429 q 619 532 568 493 q 465 586 570 586 q 205 329 298 586 m 569 1003 q 315 790 362 790 q 278 806 294 790 q 262 844 262 823 q 290 897 262 873 q 533 1125 319 920 q 577 1146 554 1146 q 633 1124 605 1146 q 722 1025 662 1101 l 810 909 q 823 878 823 893 q 801 829 823 851 q 751 807 779 807 q 703 836 722 807 q 569 1003 684 864 z "},"ë":{"ha":761,"x_min":78,"x_max":830,"o":"m 197 204 q 406 92 256 92 q 531 113 458 92 q 630 168 604 135 q 686 204 658 204 q 723 189 708 204 q 738 153 738 174 q 620 27 738 84 q 386 -31 501 -31 q 159 38 241 -31 q 78 221 78 106 q 191 548 78 388 q 484 708 304 708 q 667 668 604 708 q 730 555 730 628 q 689 451 730 494 q 600 385 648 408 q 475 328 552 361 l 197 204 m 205 329 l 427 429 q 619 532 568 493 q 465 586 570 586 q 205 329 298 586 m 830 942 q 806 896 830 917 q 723 875 781 875 q 677 889 697 875 q 657 925 657 904 q 681 982 657 962 q 768 1001 704 1001 q 810 982 791 1001 q 830 942 830 963 m 483 939 q 450 887 483 907 q 391 868 417 868 q 317 923 317 868 q 349 976 317 956 q 404 996 380 996 q 483 939 483 996 z "},"í":{"ha":389,"x_min":131,"x_max":541,"o":"m 188 -3 q 131 50 131 -3 l 158 257 q 197 467 168 338 q 229 627 222 583 q 307 694 241 694 q 364 642 364 694 q 331 467 364 624 q 291 257 298 323 q 264 67 277 137 q 188 -3 251 -3 m 201 861 q 229 911 201 886 q 336 1019 264 940 q 414 1092 366 1054 q 489 1129 461 1129 q 525 1114 509 1129 q 541 1076 541 1098 q 507 1018 541 1042 q 400 921 446 976 q 252 806 299 806 q 216 821 231 806 q 201 861 201 837 z "},"ì":{"ha":389,"x_min":131,"x_max":441,"o":"m 188 -3 q 131 50 131 -3 l 158 257 q 197 467 168 338 q 229 627 222 583 q 307 694 241 694 q 364 642 364 694 q 331 467 364 624 q 291 257 298 323 q 264 67 277 137 q 188 -3 251 -3 m 322 828 l 269 928 q 200 1015 243 976 q 181 1055 181 1032 q 204 1105 181 1084 q 252 1126 227 1126 q 367 1021 292 1126 q 441 867 441 915 q 418 821 441 842 q 367 799 395 799 q 322 828 336 799 z "},"î":{"ha":389,"x_min":33,"x_max":593,"o":"m 188 -3 q 131 50 131 -3 l 158 257 q 197 467 168 338 q 229 627 222 583 q 307 694 241 694 q 364 642 364 694 q 331 467 364 624 q 291 257 298 323 q 264 67 277 137 q 188 -3 251 -3 m 340 970 q 85 758 133 758 q 49 774 64 758 q 33 811 33 790 q 60 865 33 841 q 304 1093 90 887 q 348 1114 325 1114 q 404 1091 376 1114 q 492 992 433 1069 l 581 877 q 593 845 593 861 q 572 797 593 819 q 522 774 550 774 q 474 803 493 774 q 340 970 455 831 z "},"ï":{"ha":389,"x_min":67,"x_max":580,"o":"m 188 -3 q 131 50 131 -3 l 158 257 q 197 467 168 338 q 229 627 222 583 q 307 694 241 694 q 364 642 364 694 q 331 467 364 624 q 291 257 298 323 q 264 67 277 137 q 188 -3 251 -3 m 580 877 q 555 831 580 852 q 473 810 531 810 q 427 824 447 810 q 407 860 407 839 q 430 917 407 897 q 518 936 454 936 q 560 917 541 936 q 580 877 580 898 m 233 873 q 200 822 233 842 q 140 803 167 803 q 67 858 67 803 q 99 911 67 891 q 153 930 130 930 q 233 873 233 930 z "},"ñ":{"ha":727,"x_min":93,"x_max":859,"o":"m 322 574 q 581 725 459 725 q 727 543 727 725 q 720 440 727 498 l 697 310 q 688 164 688 258 q 669 -13 688 24 q 602 -49 650 -49 q 546 16 542 -49 l 550 164 q 566 316 551 224 q 591 441 581 409 q 597 513 597 484 q 558 587 597 587 q 376 470 469 587 q 262 260 283 353 q 253 224 258 243 q 236 132 239 177 l 229 47 q 204 -11 226 10 q 150 -32 182 -32 q 93 21 93 -32 l 103 132 q 146 351 107 198 q 193 610 184 509 l 199 667 q 225 720 203 699 q 279 741 248 741 q 334 653 342 741 l 322 574 m 534 1014 l 581 943 q 650 903 607 903 q 711 928 688 903 l 751 987 l 772 1028 q 817 1047 781 1047 q 859 1010 859 1047 q 799 889 859 976 q 655 803 739 803 q 543 825 577 803 q 475 914 508 848 q 416 953 451 953 q 345 921 375 953 l 305 864 q 258 833 283 833 q 212 873 212 833 l 214 889 q 281 989 217 925 q 433 1054 345 1054 q 534 1014 500 1054 z "},"ó":{"ha":730,"x_min":82,"x_max":811,"o":"m 82 232 q 199 557 82 412 q 494 703 315 703 q 649 631 595 703 q 703 442 703 560 q 595 104 703 249 q 326 -40 486 -40 q 149 38 215 -40 q 82 232 82 116 m 458 566 q 284 461 352 566 q 216 250 216 356 q 253 138 216 179 q 348 97 290 97 q 506 178 437 97 q 574 419 574 260 q 462 566 574 566 l 458 566 m 471 861 q 500 911 471 886 q 606 1019 534 940 q 684 1092 637 1054 q 760 1129 732 1129 q 795 1114 780 1129 q 811 1076 811 1098 q 777 1018 811 1042 q 671 921 717 976 q 523 806 570 806 q 487 821 502 806 q 471 861 471 837 z "},"ò":{"ha":730,"x_min":82,"x_max":703,"o":"m 82 232 q 199 557 82 412 q 494 703 315 703 q 649 631 595 703 q 703 442 703 560 q 595 104 703 249 q 326 -40 486 -40 q 149 38 215 -40 q 82 232 82 116 m 458 566 q 284 461 352 566 q 216 250 216 356 q 253 138 216 179 q 348 97 290 97 q 506 178 437 97 q 574 419 574 260 q 462 566 574 566 l 458 566 m 557 828 l 505 928 q 435 1015 479 976 q 416 1055 416 1032 q 439 1105 416 1084 q 487 1126 463 1126 q 602 1021 528 1126 q 676 867 676 915 q 653 821 676 842 q 602 799 630 799 q 557 828 572 799 z "},"ô":{"ha":730,"x_min":82,"x_max":813,"o":"m 82 232 q 199 557 82 412 q 494 703 315 703 q 649 631 595 703 q 703 442 703 560 q 595 104 703 249 q 326 -40 486 -40 q 149 38 215 -40 q 82 232 82 116 m 458 566 q 284 461 352 566 q 216 250 216 356 q 253 138 216 179 q 348 97 290 97 q 506 178 437 97 q 574 419 574 260 q 462 566 574 566 l 458 566 m 559 1003 q 305 790 353 790 q 269 806 284 790 q 253 844 253 823 q 280 897 253 873 q 524 1125 309 920 q 568 1146 545 1146 q 624 1124 595 1146 q 712 1025 652 1101 l 801 909 q 813 878 813 893 q 791 829 813 851 q 741 807 770 807 q 694 836 713 807 q 559 1003 675 864 z "},"ö":{"ha":730,"x_min":82,"x_max":817,"o":"m 82 232 q 199 557 82 412 q 494 703 315 703 q 649 631 595 703 q 703 442 703 560 q 595 104 703 249 q 326 -40 486 -40 q 149 38 215 -40 q 82 232 82 116 m 458 566 q 284 461 352 566 q 216 250 216 356 q 253 138 216 179 q 348 97 290 97 q 506 178 437 97 q 574 419 574 260 q 462 566 574 566 l 458 566 m 817 877 q 792 831 817 852 q 709 810 768 810 q 664 824 684 810 q 644 860 644 839 q 667 917 644 897 q 755 936 690 936 q 797 917 777 936 q 817 877 817 898 m 469 873 q 436 822 469 842 q 377 803 404 803 q 304 858 304 803 q 335 911 304 891 q 390 930 367 930 q 469 873 469 930 z "},"õ":{"ha":730,"x_min":82,"x_max":894,"o":"m 82 232 q 199 557 82 412 q 494 703 315 703 q 649 631 595 703 q 703 442 703 560 q 595 104 703 249 q 326 -40 486 -40 q 149 38 215 -40 q 82 232 82 116 m 458 566 q 284 461 352 566 q 216 250 216 356 q 253 138 216 179 q 348 97 290 97 q 506 178 437 97 q 574 419 574 260 q 462 566 574 566 l 458 566 m 569 1014 l 615 943 q 684 903 642 903 q 745 928 722 903 l 785 987 l 806 1028 q 851 1047 816 1047 q 894 1010 894 1047 q 834 889 894 976 q 690 803 774 803 q 577 825 612 803 q 509 914 543 848 q 451 953 486 953 q 380 921 410 953 l 340 864 q 292 833 318 833 q 246 873 246 833 l 249 889 q 315 989 252 925 q 467 1054 379 1054 q 569 1014 535 1054 z "},"ú":{"ha":722,"x_min":119,"x_max":800,"o":"m 708 396 l 684 249 q 658 58 661 107 q 648 -7 654 8 q 621 -38 642 -22 q 574 -54 600 -54 q 519 9 523 -54 q 316 -33 427 -33 q 170 8 222 -33 q 119 127 119 50 q 129 345 119 228 q 169 575 139 463 q 219 705 199 687 q 270 724 240 724 q 313 709 297 724 q 330 671 330 694 q 302 557 330 649 q 266 380 280 486 q 251 197 251 274 q 255 129 251 157 q 337 104 294 104 q 536 134 428 104 l 574 403 q 603 557 580 438 q 648 698 625 676 q 705 720 671 720 q 750 701 734 720 q 760 653 766 682 l 708 396 m 460 861 q 488 911 460 886 q 595 1019 523 940 q 673 1092 625 1054 q 748 1129 720 1129 q 784 1114 768 1129 q 800 1076 800 1098 q 766 1018 800 1042 q 659 921 705 976 q 511 806 558 806 q 475 821 490 806 q 460 861 460 837 z "},"ù":{"ha":722,"x_min":119,"x_max":766,"o":"m 708 396 l 684 249 q 658 58 661 107 q 648 -7 654 8 q 621 -38 642 -22 q 574 -54 600 -54 q 519 9 523 -54 q 316 -33 427 -33 q 170 8 222 -33 q 119 127 119 50 q 129 345 119 228 q 169 575 139 463 q 219 705 199 687 q 270 724 240 724 q 313 709 297 724 q 330 671 330 694 q 302 557 330 649 q 266 380 280 486 q 251 197 251 274 q 255 129 251 157 q 337 104 294 104 q 536 134 428 104 l 574 403 q 603 557 580 438 q 648 698 625 676 q 705 720 671 720 q 750 701 734 720 q 760 653 766 682 l 708 396 m 534 833 l 481 933 q 412 1021 455 981 q 393 1061 393 1038 q 416 1111 393 1089 q 463 1132 439 1132 q 578 1026 504 1132 q 652 873 652 920 q 629 826 652 848 q 578 804 606 804 q 534 833 548 804 z "},"û":{"ha":722,"x_min":119,"x_max":778,"o":"m 708 396 l 684 249 q 658 58 661 107 q 648 -7 654 8 q 621 -38 642 -22 q 574 -54 600 -54 q 519 9 523 -54 q 316 -33 427 -33 q 170 8 222 -33 q 119 127 119 50 q 129 345 119 228 q 169 575 139 463 q 219 705 199 687 q 270 724 240 724 q 313 709 297 724 q 330 671 330 694 q 302 557 330 649 q 266 380 280 486 q 251 197 251 274 q 255 129 251 157 q 337 104 294 104 q 536 134 428 104 l 574 403 q 603 557 580 438 q 648 698 625 676 q 705 720 671 720 q 750 701 734 720 q 760 653 766 682 l 708 396 m 524 1003 q 270 790 317 790 q 233 806 249 790 q 218 844 218 823 q 245 897 218 873 q 488 1125 274 920 q 532 1146 509 1146 q 589 1124 560 1146 q 677 1025 617 1101 l 766 909 q 778 878 778 893 q 756 829 778 851 q 706 807 734 807 q 659 836 677 807 q 524 1003 640 864 z "},"ü":{"ha":722,"x_min":119,"x_max":800,"o":"m 708 396 l 684 249 q 658 58 661 107 q 648 -7 654 8 q 621 -38 642 -22 q 574 -54 600 -54 q 519 9 523 -54 q 316 -33 427 -33 q 170 8 222 -33 q 119 127 119 50 q 129 345 119 228 q 169 575 139 463 q 219 705 199 687 q 270 724 240 724 q 313 709 297 724 q 330 671 330 694 q 302 557 330 649 q 266 380 280 486 q 251 197 251 274 q 255 129 251 157 q 337 104 294 104 q 536 134 428 104 l 574 403 q 603 557 580 438 q 648 698 625 676 q 705 720 671 720 q 750 701 734 720 q 760 653 766 682 l 708 396 m 800 939 q 775 893 800 914 q 692 872 751 872 q 647 887 667 872 q 627 922 627 901 q 650 979 627 960 q 738 998 673 998 q 780 979 760 998 q 800 939 800 960 m 452 936 q 419 885 452 904 q 360 865 387 865 q 287 920 287 865 q 318 973 287 954 q 373 993 350 993 q 452 936 452 993 z "},"†":{"ha":829,"x_min":141,"x_max":893,"o":"m 431 -74 q 405 -121 427 -101 q 352 -142 383 -142 q 297 -74 286 -142 l 359 318 l 422 667 l 328 665 q 170 682 199 663 q 141 726 141 700 q 164 783 141 759 q 219 807 188 807 q 283 803 239 807 q 349 800 326 800 l 450 802 l 503 1083 q 580 1152 515 1152 q 625 1132 610 1152 q 635 1083 640 1113 l 583 799 q 687 794 662 794 q 764 800 711 794 q 838 807 814 807 q 893 751 893 807 q 866 695 893 718 q 801 667 840 672 q 672 661 763 661 l 557 664 l 494 314 l 431 -74 z "},"°":{"ha":568,"x_min":180,"x_max":660,"o":"m 660 937 q 568 739 660 817 q 368 661 477 661 q 228 717 275 661 q 180 854 180 773 q 263 1057 180 975 q 456 1139 345 1139 q 606 1080 551 1139 q 660 937 660 1021 m 283 873 q 308 796 283 831 q 383 761 333 761 q 499 803 441 761 q 557 921 557 844 q 526 1006 557 974 q 440 1039 495 1039 q 334 992 385 1039 q 283 873 283 946 z "},"¢":{"ha":865,"x_min":153,"x_max":872,"o":"m 460 186 l 454 147 q 372 22 432 22 q 323 64 323 22 q 347 205 323 81 q 196 307 239 243 q 153 469 153 370 q 264 813 153 673 q 512 990 376 954 q 541 1140 530 1099 q 597 1181 551 1181 q 635 1164 620 1181 q 647 1122 651 1147 l 627 1002 q 757 954 694 996 q 836 1000 785 1000 q 872 968 872 1000 q 834 856 872 932 q 770 779 797 779 q 743 796 760 779 q 667 866 694 850 q 606 888 640 883 q 545 593 596 825 l 480 300 q 614 350 564 304 l 707 460 q 761 492 734 492 q 810 448 810 492 q 710 291 810 391 q 460 186 609 191 m 372 325 l 490 868 q 265 481 265 753 q 289 390 265 427 q 372 325 312 353 z "},"£":{"ha":1102,"x_min":101,"x_max":1040,"o":"m 292 604 q 448 959 319 825 q 762 1092 576 1092 q 955 1043 870 1092 q 1040 916 1040 995 q 1015 851 1040 871 q 964 832 990 832 q 917 872 931 832 q 858 951 899 926 q 734 975 817 975 q 526 882 611 975 q 418 642 440 789 q 414 612 414 619 q 572 621 518 621 q 689 616 612 621 q 807 612 768 612 q 859 562 859 612 q 839 513 859 534 q 789 492 818 492 q 669 496 749 492 q 554 500 593 500 q 416 493 500 500 q 422 328 422 390 q 367 98 422 204 l 385 98 q 535 60 451 98 q 688 20 623 20 q 791 33 751 20 q 847 67 831 47 q 885 154 863 88 q 950 203 904 203 q 1002 155 1002 203 q 973 55 1002 120 q 868 -56 944 -11 q 668 -102 793 -102 q 514 -61 605 -102 q 360 -22 427 -22 q 248 -50 311 -22 q 174 -79 183 -79 q 125 -28 125 -79 q 168 36 125 -3 q 275 175 249 110 q 302 334 302 239 q 295 485 302 395 q 191 482 243 482 q 101 534 101 482 q 121 585 101 563 q 171 607 142 607 l 243 604 l 292 604 z "},"§":{"ha":882,"x_min":92,"x_max":872,"o":"m 717 350 q 758 228 758 296 q 665 27 758 108 q 409 -53 571 -53 q 174 8 256 -53 q 92 176 92 68 q 110 266 92 241 q 167 290 127 290 q 216 253 205 290 l 225 182 q 427 56 242 56 q 579 99 522 56 q 635 208 635 143 q 528 323 635 286 l 304 400 q 243 454 279 409 q 208 567 208 499 q 315 774 208 692 q 296 854 296 810 q 388 1041 296 969 q 614 1112 480 1112 q 799 1060 725 1112 q 872 964 872 1007 q 852 915 872 936 q 806 893 831 893 q 723 946 787 893 q 599 1000 658 1000 q 481 968 536 1000 q 425 882 425 936 q 528 761 425 818 l 710 663 q 802 501 802 612 q 773 396 802 435 q 717 350 744 357 m 665 400 q 668 408 665 402 q 682 465 682 443 q 570 593 682 536 l 388 688 q 330 593 330 655 q 363 516 330 550 q 528 449 397 483 q 665 400 629 422 z "},"•":{"ha":538,"x_min":200,"x_max":475,"o":"m 360 650 q 443 617 411 650 q 475 538 475 585 q 428 426 475 473 q 317 378 380 378 q 233 411 265 378 q 200 494 200 445 q 248 602 200 554 q 360 650 296 650 z "},"¶":{"ha":964,"x_min":117,"x_max":1027,"o":"m 804 936 q 705 472 769 712 q 588 81 641 232 q 514 -102 535 -71 q 456 -134 493 -134 q 404 -85 404 -134 q 410 -56 404 -73 q 465 106 437 14 l 513 268 q 471 264 491 264 q 221 340 326 264 q 117 534 117 416 q 225 829 117 680 q 547 1051 333 979 l 800 1120 q 825 1124 814 1124 q 860 1109 846 1124 q 874 1071 874 1094 q 814 1002 874 1018 l 804 936 m 688 968 q 332 786 425 907 q 239 556 239 665 q 315 433 239 482 q 489 385 391 385 q 561 399 521 385 q 673 865 635 620 l 688 968 m 646 -125 q 607 -111 624 -125 q 591 -75 591 -96 q 600 -43 591 -59 q 762 377 671 106 q 875 756 852 649 q 899 950 899 863 q 913 1081 899 1052 q 975 1109 927 1109 q 1015 1089 1003 1109 q 1027 1010 1027 1069 q 966 654 1027 872 q 821 193 905 437 q 705 -88 736 -52 q 646 -125 673 -125 z "},"ß":{"ha":616,"x_min":20,"x_max":699,"o":"m 517 553 q 636 283 636 459 q 359 -50 636 -50 q 257 -21 299 -50 q 216 56 216 9 q 269 126 216 126 q 318 102 288 126 q 376 78 350 78 q 486 134 466 78 q 506 262 506 189 q 488 368 506 320 q 395 478 471 415 q 353 546 353 514 q 407 621 353 578 l 498 696 q 562 844 562 747 q 486 935 562 935 q 294 701 355 935 q 199 174 233 467 q 150 -55 178 -2 q 78 -107 121 -107 q 37 -92 54 -107 q 20 -54 20 -76 l 23 -39 q 25 -31 23 -36 q 77 202 44 29 q 119 441 111 376 l 132 521 q 281 956 185 847 q 510 1065 376 1065 q 651 1005 603 1065 q 699 853 699 945 q 663 713 699 777 q 517 553 628 649 z "},"®":{"ha":1105,"x_min":134,"x_max":1142,"o":"m 1142 730 q 952 315 1142 489 q 532 140 762 140 q 241 235 347 140 q 134 484 134 329 q 197 763 134 614 q 412 1008 260 911 q 796 1105 564 1105 q 1048 991 955 1105 q 1142 730 1142 878 m 257 507 q 334 326 257 391 q 551 261 412 261 q 875 394 731 261 q 1019 713 1019 526 q 950 905 1019 824 q 764 986 882 986 q 469 916 584 986 q 306 726 354 846 q 257 507 257 605 m 660 582 l 686 546 q 757 489 716 501 q 797 439 797 472 q 775 390 797 412 q 726 368 753 368 q 571 486 649 368 q 506 561 532 541 q 452 408 471 447 q 392 370 433 370 q 353 384 369 370 q 337 418 337 398 l 340 434 q 342 440 340 437 l 456 781 q 546 900 495 897 q 562 903 552 900 q 632 917 614 917 q 848 886 788 917 q 908 795 908 856 q 851 667 908 726 q 660 582 795 607 m 549 686 q 785 774 776 707 q 637 796 756 796 l 611 796 q 579 791 595 796 q 549 686 575 772 z "},"©":{"ha":1105,"x_min":123,"x_max":1117,"o":"m 1117 752 q 933 348 1117 526 q 554 171 750 171 q 123 512 123 171 q 334 935 123 771 q 760 1099 545 1099 q 1025 1002 932 1099 q 1117 752 1117 906 m 245 534 q 323 350 245 410 q 574 290 401 290 q 858 432 719 290 q 997 749 997 573 q 940 913 997 851 q 768 975 882 975 q 393 856 541 975 q 245 534 245 736 m 478 630 q 513 575 478 598 q 587 551 549 551 q 697 593 638 551 q 771 636 753 636 q 809 620 793 636 q 824 582 824 604 q 735 482 824 532 q 570 432 646 432 q 416 485 476 432 q 355 610 355 537 q 473 809 355 723 q 715 895 591 895 q 777 876 752 895 q 802 825 802 857 q 740 765 802 765 q 720 769 732 765 q 701 772 709 772 q 546 728 613 772 q 478 630 478 684 z "},"™":{"ha":1226,"x_min":207,"x_max":1276,"o":"m 1133 896 q 909 586 977 586 q 875 611 885 586 q 865 722 865 637 q 861 895 865 883 q 656 590 726 590 q 625 603 637 590 q 612 635 612 616 q 628 673 612 652 q 738 856 690 745 l 825 1046 q 878 1082 842 1082 q 956 950 943 1082 l 961 765 q 1017 876 971 777 q 1167 1092 1116 1092 q 1208 1050 1204 1092 l 1230 893 l 1240 770 q 1271 652 1245 717 q 1276 630 1276 640 q 1256 591 1276 608 q 1214 574 1236 574 q 1149 711 1165 574 l 1133 896 m 518 970 q 502 857 510 929 q 490 743 496 783 q 488 706 488 725 l 492 641 q 471 592 492 608 q 429 576 450 576 q 382 625 384 576 l 395 753 l 403 863 q 416 970 408 932 q 332 974 386 970 q 250 979 288 979 q 207 1017 207 979 q 267 1079 207 1079 q 339 1075 291 1079 q 412 1071 387 1071 l 633 1074 l 716 1079 q 787 1042 787 1082 q 777 1004 787 1022 q 737 980 766 985 q 518 970 708 975 z "},"´":{"ha":772,"x_min":279,"x_max":619,"o":"m 279 861 q 308 911 279 886 q 414 1019 342 940 q 492 1092 445 1054 q 568 1129 540 1129 q 604 1114 588 1129 q 619 1076 619 1098 q 585 1018 619 1042 q 479 921 525 976 q 331 806 378 806 q 295 821 310 806 q 279 861 279 837 z "},"¨":{"ha":772,"x_min":277,"x_max":790,"o":"m 790 877 q 766 831 790 852 q 683 810 741 810 q 637 824 657 810 q 617 860 617 839 q 641 917 617 897 q 728 936 664 936 q 770 917 751 936 q 790 877 790 898 m 443 873 q 410 822 443 842 q 351 803 377 803 q 277 858 277 803 q 309 911 277 891 q 363 930 340 930 q 443 873 443 930 z "},"≠":{"ha":709,"x_min":104,"x_max":686,"o":"m 205 189 q 122 195 140 183 q 104 232 104 207 q 277 314 104 322 l 416 555 l 298 557 q 225 553 288 557 q 154 602 154 549 q 272 677 154 677 l 479 677 l 528 768 q 561 807 537 785 q 609 829 584 829 q 658 787 658 829 q 609 676 658 759 q 686 627 686 676 q 670 582 686 600 q 634 559 654 564 q 541 555 614 555 l 406 313 l 566 310 q 618 260 618 309 q 597 211 618 232 q 547 189 576 189 l 338 192 l 291 109 q 222 57 262 57 q 167 107 167 57 q 205 189 167 121 z "},"Æ":{"ha":1510,"x_min":39,"x_max":1659,"o":"m 850 456 q 665 443 768 452 l 478 427 q 261 165 389 327 l 160 39 q 100 8 136 8 q 58 26 76 8 q 39 66 39 43 q 51 102 39 80 q 226 322 62 123 q 509 639 390 521 l 730 873 q 903 1024 825 974 q 1023 1075 981 1075 q 1069 1055 1053 1075 q 1367 1100 1247 1100 q 1659 1007 1659 1100 q 1635 949 1659 974 q 1581 924 1611 924 q 1560 926 1572 924 q 1345 960 1440 960 q 1074 918 1231 960 q 1066 823 1074 871 q 1018 589 1058 775 l 1318 616 q 1480 631 1472 631 q 1540 573 1540 631 q 1468 492 1540 505 l 986 449 q 939 146 939 236 q 955 94 939 106 q 1050 82 972 82 l 1102 82 l 1304 86 q 1367 93 1311 86 q 1448 43 1448 102 q 1406 -33 1448 -8 q 1230 -58 1363 -58 l 1080 -58 q 912 -40 977 -58 q 826 17 848 -22 q 804 135 804 56 q 850 456 804 225 m 618 572 q 882 590 762 587 q 937 895 939 857 q 774 737 859 831 l 618 572 z "},"Ø":{"ha":1109,"x_min":55,"x_max":1261,"o":"m 188 140 q 141 316 141 219 q 208 592 141 436 q 431 888 275 748 q 775 1028 587 1028 q 1072 945 979 1028 q 1206 1046 1186 1046 q 1245 1031 1230 1046 q 1261 995 1261 1016 q 1137 852 1261 963 q 1162 707 1162 792 q 977 199 1162 439 q 545 -41 793 -41 q 254 58 368 -41 l 180 -9 q 109 -61 124 -61 q 70 -45 85 -61 q 55 -7 55 -30 q 114 71 55 16 l 188 140 m 629 546 l 958 842 q 753 889 897 889 q 424 697 566 889 q 282 338 282 506 q 300 245 282 289 l 629 546 m 1017 746 q 800 555 926 672 l 589 359 l 368 160 q 567 97 448 97 q 885 290 749 97 q 1021 690 1021 484 q 1017 746 1021 721 z "},"∞":{"ha":1162,"x_min":153,"x_max":1119,"o":"m 649 522 q 917 644 769 644 q 1065 598 1011 644 q 1119 471 1119 552 q 1046 286 1119 361 q 859 210 973 210 q 699 277 760 210 l 627 358 q 357 207 508 207 q 210 263 267 207 q 153 398 153 319 q 234 579 153 505 q 421 653 314 653 q 518 632 467 653 q 649 522 570 610 m 575 440 q 404 550 490 550 q 297 506 339 550 q 254 408 254 463 q 288 343 254 369 q 378 317 322 317 q 575 440 469 317 m 703 439 q 876 309 777 309 q 981 360 948 309 q 1013 469 1013 412 q 893 546 1013 546 q 814 530 852 546 q 703 439 775 514 z "},"±":{"ha":667,"x_min":18,"x_max":679,"o":"m 427 378 l 418 325 q 405 250 415 303 q 372 176 394 196 q 322 157 349 157 q 279 218 271 157 l 303 375 q 186 371 222 371 q 90 423 90 371 q 111 476 90 460 q 205 492 133 492 q 322 496 241 492 l 338 599 q 418 710 355 710 q 457 695 441 710 q 472 659 472 680 q 468 634 472 652 q 463 613 465 624 l 458 593 q 454 576 455 583 l 444 498 l 493 496 q 559 499 498 496 q 679 446 679 506 q 659 396 679 419 q 610 374 639 374 l 562 379 l 493 378 q 427 378 431 376 m 371 41 l 437 41 l 476 43 q 606 -10 606 47 q 586 -61 606 -39 q 538 -83 565 -83 q 501 -79 529 -83 q 302 -82 483 -76 q 114 -87 201 -87 q 18 -35 18 -87 q 103 35 18 35 q 238 37 147 35 q 371 41 328 41 z "},"≤":{"ha":530,"x_min":8,"x_max":518,"o":"m 258 416 q 337 330 291 390 q 412 240 391 261 q 431 202 431 222 q 409 154 431 176 q 359 132 387 132 q 324 145 340 132 q 226 258 308 157 q 109 354 167 331 q 66 404 66 370 q 123 467 66 441 q 279 576 192 498 l 410 692 q 468 720 441 720 q 504 704 490 720 q 518 667 518 688 q 509 634 518 648 q 426 555 499 619 q 258 416 352 492 m 93 35 l 155 35 q 245 36 193 35 l 335 37 q 471 31 444 39 q 498 -7 498 24 q 467 -60 498 -38 q 409 -82 436 -82 q 256 -85 354 -82 q 105 -87 159 -87 q 8 -37 8 -87 q 93 35 8 35 z "},"≥":{"ha":530,"x_min":8,"x_max":560,"o":"m 387 437 q 249 568 329 479 q 170 696 170 656 q 192 740 170 718 q 243 762 215 762 q 286 741 270 762 q 529 501 415 564 q 560 457 560 484 q 542 416 560 437 q 410 311 524 395 q 211 177 296 228 q 109 126 125 126 q 73 142 88 126 q 57 180 57 157 q 92 236 57 214 l 387 437 m 93 35 l 155 35 q 245 36 193 35 l 335 37 q 471 31 444 39 q 498 -7 498 24 q 467 -60 498 -38 q 409 -82 436 -82 q 256 -85 354 -82 q 105 -87 159 -87 q 8 -37 8 -87 q 93 35 8 35 z "},"¥":{"ha":883,"x_min":205,"x_max":934,"o":"m 449 412 q 400 509 434 439 q 305 516 380 509 q 218 534 230 523 q 205 565 205 545 q 273 631 205 631 q 353 627 311 631 q 231 931 231 916 q 252 969 231 949 q 298 989 273 989 q 325 980 314 989 q 361 918 336 970 q 401 821 386 865 q 458 675 435 726 l 519 534 q 690 745 606 621 l 828 949 q 885 985 848 985 q 920 971 906 985 q 934 939 934 958 q 842 783 934 917 l 728 627 l 806 635 q 854 593 854 640 q 787 521 854 521 q 715 514 766 521 q 675 510 692 511 q 646 507 658 509 q 555 410 593 452 l 551 378 l 586 376 q 693 383 626 375 q 756 336 756 391 q 728 283 756 300 q 623 267 701 267 q 534 269 586 267 l 513 132 q 507 77 511 123 q 487 -16 501 5 q 436 -36 473 -36 q 388 6 388 -36 l 396 85 q 404 149 397 94 l 424 271 q 339 277 382 277 q 231 332 231 279 q 311 393 231 393 l 371 390 l 415 390 q 445 389 434 390 l 449 412 z "},"µ":{"ha":722,"x_min":-20,"x_max":907,"o":"m 100 -232 q 36 -275 78 -275 q -4 -260 12 -275 q -20 -223 -20 -245 q 57 -52 -20 -199 q 150 144 137 104 l 172 236 q 272 531 210 393 q 362 696 333 669 q 425 724 391 724 q 473 685 473 724 q 428 567 473 656 q 325 311 355 416 q 286 155 295 206 l 282 129 q 359 104 319 104 q 564 134 450 104 l 659 397 q 762 645 720 571 q 859 720 803 720 q 907 683 907 720 q 854 541 907 655 l 793 396 l 685 103 l 659 21 q 622 -36 647 -18 q 564 -54 597 -54 q 521 9 513 -54 q 310 -33 421 -33 q 211 -17 250 -33 l 100 -232 z "},"∂":{"ha":707,"x_min":145,"x_max":722,"o":"m 552 627 q 425 879 498 805 l 375 924 q 350 972 350 946 q 372 1021 350 998 q 421 1043 393 1043 q 545 926 466 1043 q 672 672 623 810 q 722 433 722 534 q 625 124 722 277 q 359 -28 528 -28 q 207 43 268 -28 q 145 199 145 115 q 262 467 145 340 q 552 627 378 593 m 581 518 l 474 488 q 328 383 385 463 q 270 220 270 304 q 302 132 270 171 q 378 93 334 93 q 543 199 489 93 q 597 387 597 304 q 581 518 597 433 z "},"∑":{"ha":1038,"x_min":7,"x_max":1072,"o":"m 535 428 q 465 547 500 467 q 343 717 427 628 q 227 860 251 821 q 203 923 203 899 q 241 983 203 958 q 332 1008 279 1008 q 675 1003 490 1008 q 1017 999 907 999 q 1057 982 1042 999 q 1072 942 1072 966 q 937 860 1072 860 q 787 865 869 860 q 640 871 710 871 l 407 869 l 510 749 q 593 614 562 688 q 636 533 616 557 l 697 473 q 713 434 713 458 q 663 363 713 393 q 444 164 557 295 l 252 -58 q 589 -69 420 -69 q 747 -74 654 -69 q 905 -78 853 -78 q 964 -132 964 -78 q 941 -189 964 -166 q 884 -212 918 -212 q 518 -201 764 -212 q 150 -191 270 -191 q 108 -195 136 -191 q 66 -200 79 -200 q 24 -182 41 -200 q 7 -140 7 -163 q 20 -106 7 -124 q 92 -29 33 -87 l 258 142 l 363 258 q 535 428 481 388 z "},"∏":{"ha":1261,"x_min":106,"x_max":1084,"o":"m 397 924 q 350 517 369 650 q 300 262 331 384 q 267 39 300 262 q 228 -140 247 -101 q 163 -179 210 -179 q 106 -124 106 -179 q 135 73 106 -101 l 168 265 q 175 302 171 279 q 186 357 179 324 q 262 926 212 460 l 258 936 q 251 970 251 951 q 373 1064 251 1064 q 503 1059 425 1064 q 605 1053 580 1053 l 995 1051 q 1084 995 1084 1051 q 1070 918 1084 987 q 1002 519 1030 753 l 951 119 q 930 -46 930 -24 q 925 -123 930 -103 q 899 -161 920 -143 q 848 -179 878 -179 q 791 -115 791 -179 q 805 34 791 -81 q 826 176 820 149 q 867 519 826 178 q 917 807 880 629 q 933 902 933 885 q 890 920 933 920 q 397 924 498 920 z "},"π":{"ha":872,"x_min":115,"x_max":951,"o":"m 714 294 q 675 129 687 207 q 713 87 675 124 q 736 48 736 68 q 720 1 736 25 q 663 -22 703 -22 q 577 10 613 -22 q 541 90 541 42 q 582 285 541 138 l 671 575 l 463 582 l 371 275 l 345 159 q 307 13 315 32 q 282 -18 298 -6 q 241 -29 267 -29 q 197 -11 214 -29 q 184 33 180 7 l 334 583 q 231 550 274 581 q 172 519 192 519 q 132 536 149 519 q 115 574 115 553 q 186 666 115 621 q 391 711 258 711 l 761 705 l 789 705 q 827 707 805 705 l 865 708 q 937 696 922 710 q 951 659 951 683 q 919 594 951 613 q 800 575 886 575 l 714 294 z "},"∫":{"ha":972,"x_min":33,"x_max":1040,"o":"m 264 -273 q 99 -211 165 -273 q 33 -65 33 -149 q 115 53 33 53 q 172 -1 172 53 q 170 -25 172 -12 q 168 -47 168 -37 q 200 -112 168 -86 q 294 -138 231 -138 q 516 554 407 -138 q 604 945 559 835 q 716 1111 648 1056 q 876 1166 785 1166 q 985 1128 930 1166 q 1040 1043 1040 1090 q 1013 986 1040 1010 q 957 962 987 962 q 905 997 928 962 q 854 1032 884 1032 q 755 966 797 1032 q 692 793 713 900 q 645 471 670 686 q 566 116 632 358 q 430 -200 500 -127 q 264 -273 360 -273 z "},"ª":{"ha":732,"x_min":229,"x_max":736,"o":"m 586 659 q 502 628 558 641 q 407 615 445 615 q 276 666 322 615 q 229 797 229 716 q 318 1026 229 921 q 570 1131 406 1131 q 689 1113 642 1131 q 736 1063 736 1095 q 717 1010 736 1026 q 680 798 680 914 q 682 764 680 777 q 686 750 681 762 q 710 668 710 686 q 684 630 710 651 q 625 610 659 610 q 586 659 610 610 m 603 1026 q 535 1036 585 1036 q 407 965 457 1036 q 356 812 356 895 q 440 726 356 726 q 559 760 519 726 q 574 906 559 819 q 603 1026 588 993 z "},"º":{"ha":624,"x_min":231,"x_max":738,"o":"m 231 812 q 318 1037 231 936 q 559 1139 406 1139 q 691 1088 645 1139 q 738 949 738 1038 q 657 719 738 819 q 437 618 576 618 q 287 671 342 618 q 231 812 231 725 m 359 829 q 385 753 359 783 q 457 722 410 722 q 568 782 525 722 q 612 916 612 842 q 589 1000 612 966 q 530 1035 566 1035 q 406 967 452 1035 q 359 829 359 900 z "},"Ω":{"ha":1333,"x_min":35,"x_max":1315,"o":"m 352 72 q 341 112 349 85 q 280 429 280 315 q 327 689 280 583 q 481 891 374 794 q 734 1047 588 989 q 1016 1105 881 1105 q 1241 1038 1168 1105 q 1315 823 1315 970 q 960 64 1315 409 q 1242 49 1200 64 q 1284 1 1284 35 q 1261 -58 1284 -34 q 1206 -82 1238 -82 q 1091 -77 1153 -82 q 973 -71 1021 -71 l 947 -71 l 849 -74 q 801 -45 822 -74 q 780 14 780 -16 q 866 147 780 60 l 980 260 q 1064 385 1011 291 q 1151 612 1118 479 q 1183 811 1183 745 q 994 971 1183 971 q 617 841 817 971 q 418 474 418 711 q 437 287 418 399 q 499 85 457 175 q 511 43 511 60 q 497 -9 511 16 q 461 -44 483 -35 q 296 -74 439 -53 q 91 -94 152 -94 q 50 -78 64 -94 q 35 -38 35 -62 q 50 8 35 -13 q 102 39 66 30 q 352 72 138 48 z "},"æ":{"ha":1266,"x_min":72,"x_max":1221,"o":"m 536 36 q 450 -11 505 12 q 353 -33 395 -33 q 146 47 220 -33 q 72 246 72 127 q 217 565 72 430 q 538 700 363 700 q 631 687 582 700 q 700 667 681 675 q 712 590 718 659 q 828 676 755 644 q 968 708 900 708 q 1148 669 1082 708 q 1214 555 1214 629 q 1179 458 1214 498 q 1108 398 1145 418 q 959 328 1072 378 l 680 204 q 890 92 738 92 q 1015 113 950 92 q 1114 168 1080 134 q 1171 204 1145 204 q 1206 190 1192 204 q 1221 155 1221 176 q 1101 25 1221 80 q 870 -31 982 -31 q 652 46 712 -31 l 652 0 q 594 -29 652 -29 q 556 -20 574 -29 q 536 36 539 -12 m 564 585 q 512 590 554 590 q 299 485 393 590 q 205 269 205 380 q 253 134 205 191 q 376 77 301 77 q 541 146 466 77 q 542 243 541 223 q 564 375 543 263 q 606 561 585 487 l 564 585 m 688 329 l 901 419 q 1103 532 1017 469 q 948 586 1054 586 q 688 329 784 586 z "},"ø":{"ha":730,"x_min":35,"x_max":804,"o":"m 123 103 q 97 233 97 163 q 211 552 97 402 q 509 703 325 703 q 669 627 615 703 l 680 639 q 769 710 747 710 q 794 699 784 710 q 804 672 804 687 q 730 583 804 657 l 702 555 q 718 444 718 505 q 608 100 718 241 q 341 -40 497 -40 q 162 39 231 -40 q 150 28 155 31 l 144 22 q 79 -35 94 -35 q 35 -2 35 -35 q 65 51 35 19 q 115 96 95 82 q 123 103 119 98 m 235 205 l 565 525 q 477 566 534 566 q 301 461 370 566 q 231 248 231 356 q 235 205 231 226 m 266 140 q 363 97 303 97 q 532 193 461 97 q 591 449 602 290 l 266 140 z "},"¿":{"ha":728,"x_min":59,"x_max":680,"o":"m 680 943 q 648 861 680 903 q 574 819 616 819 q 520 873 520 819 q 548 962 520 920 q 612 1003 575 1003 q 660 985 641 1003 q 680 943 680 968 m 487 559 l 307 436 q 196 273 196 361 q 255 148 196 206 q 390 89 313 89 q 504 132 431 89 q 593 176 578 176 q 633 159 616 176 q 650 117 650 142 q 541 4 650 57 q 368 -49 431 -49 q 150 42 241 -49 q 59 247 59 133 q 112 423 59 349 q 315 595 165 497 q 479 717 434 671 q 533 745 507 745 q 576 727 559 745 q 594 685 594 709 q 487 559 594 633 z "},"¡":{"ha":330,"x_min":81,"x_max":387,"o":"m 321 1089 q 366 1060 345 1089 q 387 1001 387 1030 q 363 953 387 974 q 314 932 340 932 q 269 962 290 932 q 248 1019 248 991 q 270 1067 248 1046 q 321 1089 293 1089 m 208 770 q 277 831 218 831 q 329 786 329 831 l 317 688 q 305 606 309 627 l 229 138 q 203 1 214 47 q 139 -45 193 -45 q 89 16 81 -45 l 208 770 z "},"¬":{"ha":667,"x_min":90,"x_max":679,"o":"m 640 229 q 570 168 629 168 q 519 229 509 168 l 542 385 q 186 371 305 371 q 90 423 90 371 q 112 476 90 460 q 205 492 135 492 l 265 492 l 493 496 q 559 499 502 496 q 679 446 679 506 q 659 332 679 427 l 640 229 z "},"√":{"ha":844,"x_min":77,"x_max":978,"o":"m 249 175 l 368 418 q 472 667 431 546 l 536 863 q 610 1040 575 981 q 688 1099 645 1099 q 802 1101 724 1099 q 918 1105 879 1105 q 978 1054 978 1105 q 957 995 978 1021 q 848 968 937 968 q 785 972 836 968 q 724 975 737 977 q 602 643 689 901 q 386 165 549 487 l 309 1 q 236 -47 286 -47 q 125 81 174 -47 q 77 279 77 209 q 101 343 77 321 q 157 366 125 366 q 214 311 205 366 q 249 175 226 231 z "},"ƒ":{"ha":593,"x_min":-155,"x_max":881,"o":"m 271 433 q 171 428 203 428 q 122 465 122 428 q 205 554 122 537 l 326 562 q 569 968 459 878 q 804 1059 680 1059 q 881 1018 881 1059 q 854 957 881 985 q 765 929 827 929 q 610 852 681 929 q 458 574 538 774 q 599 581 568 581 q 684 538 684 581 q 662 483 684 507 q 614 456 639 460 q 501 452 589 452 l 404 444 l 317 195 q 211 -48 257 24 q 85 -172 165 -121 q -86 -243 5 -224 l -94 -244 q -136 -233 -117 -248 q -155 -190 -155 -218 q -94 -118 -155 -135 q 56 -45 -3 -94 q 171 151 115 3 l 271 433 z "},"≈":{"ha":861,"x_min":121,"x_max":932,"o":"m 605 768 l 661 682 q 741 631 694 631 q 805 707 768 631 q 881 786 842 786 q 932 739 932 786 q 870 595 932 677 q 720 513 808 513 q 626 537 671 513 q 534 650 582 561 q 491 699 505 699 q 345 576 436 699 q 291 545 321 545 q 253 558 268 545 q 239 591 239 572 q 326 722 239 631 q 509 812 413 812 q 605 768 562 812 m 487 422 l 544 336 q 625 285 578 285 q 688 363 651 285 q 764 441 726 441 q 814 395 814 441 q 749 247 814 328 q 605 167 685 167 q 512 192 557 167 q 416 304 467 216 q 374 353 389 353 q 229 232 318 353 q 173 199 203 199 q 136 213 152 199 q 121 248 121 228 q 208 376 121 284 q 393 468 294 468 q 487 422 450 468 z "},"Δ":{"ha":1103,"x_min":60,"x_max":1085,"o":"m 821 1060 l 849 953 l 963 572 q 1039 289 994 470 q 1085 47 1085 108 q 966 -49 1085 -49 q 850 -41 926 -49 l 735 -29 q 582 -24 684 -24 l 519 -24 q 432 -25 482 -24 l 344 -26 q 195 -31 227 -28 q 107 -36 149 -36 q 60 1 60 -36 q 179 222 60 33 l 323 452 l 546 848 l 628 999 q 698 1101 669 1075 q 755 1128 726 1128 q 821 1060 798 1128 m 954 85 q 848 496 916 277 l 721 900 q 473 452 568 615 l 371 278 q 261 109 315 183 l 604 111 q 954 85 726 112 z "},"«":{"ha":802,"x_min":75,"x_max":834,"o":"m 267 416 q 346 330 300 390 q 421 240 400 261 q 439 202 439 222 q 417 154 439 176 q 368 132 395 132 q 333 145 349 132 q 235 258 317 157 q 118 354 176 331 q 75 404 75 370 q 132 467 75 441 q 288 576 201 498 l 419 692 q 477 720 450 720 q 513 704 498 720 q 527 667 527 688 q 517 634 527 648 q 434 555 508 619 q 267 416 361 492 m 571 401 q 653 317 602 378 q 726 225 694 262 q 745 187 745 208 q 722 139 745 161 q 673 117 699 117 q 631 137 653 117 q 539 244 608 157 q 424 339 482 315 q 381 388 381 355 q 436 453 381 427 q 591 561 500 479 q 728 681 696 656 q 781 705 760 705 q 818 689 802 705 q 834 650 834 673 q 809 602 834 626 q 724 527 784 578 q 571 401 664 476 z "},"»":{"ha":802,"x_min":55,"x_max":797,"o":"m 608 416 q 480 559 526 504 q 428 626 435 615 q 422 650 422 637 q 445 697 422 675 q 494 720 467 720 q 531 704 513 720 q 637 576 548 688 q 758 467 699 498 q 797 418 797 447 q 736 354 797 376 q 589 258 667 329 q 463 150 491 168 q 416 132 435 132 q 380 148 395 132 q 365 185 365 163 q 396 240 365 217 q 500 330 444 278 q 608 416 574 395 m 297 401 q 173 542 226 479 q 116 613 121 604 q 112 633 112 622 q 136 684 112 663 q 184 705 160 705 q 222 688 203 705 q 326 561 242 671 q 449 453 392 479 q 487 402 487 432 q 427 339 487 359 q 279 244 363 318 q 151 135 178 154 q 106 117 125 117 q 70 132 85 117 q 55 170 55 148 q 86 225 55 199 q 192 317 112 245 q 297 401 269 384 z "},"…":{"ha":938,"x_min":113,"x_max":851,"o":"m 699 2 q 709 38 699 16 q 720 61 715 48 q 793 110 734 110 q 851 70 851 110 q 830 -2 851 35 q 760 -40 808 -40 q 717 -28 734 -40 q 699 2 699 -16 m 407 12 l 414 57 q 489 107 421 107 q 546 57 554 107 l 539 12 q 465 -37 532 -37 q 407 12 399 -37 m 121 4 l 126 43 q 200 93 133 93 q 258 43 267 93 l 253 4 q 178 -46 246 -46 q 121 4 113 -46 z "}," ":{"ha":415,"x_min":0,"x_max":0,"o":""},"À":{"ha":1016,"x_min":94,"x_max":928,"o":"m 755 353 q 570 319 681 344 l 383 282 q 216 11 243 37 q 154 -16 189 -16 q 112 1 129 -16 q 94 41 94 18 q 237 300 94 77 q 230 330 230 313 q 309 411 230 394 q 578 772 396 541 q 799 1003 761 1003 q 860 928 852 1003 l 865 700 l 893 229 l 914 121 q 923 56 923 77 q 898 3 923 26 q 842 -21 873 -21 q 777 69 798 -21 q 755 353 757 159 m 733 754 l 489 441 q 747 493 556 459 l 733 754 m 809 1141 l 756 1240 q 687 1328 730 1289 q 668 1368 668 1345 q 691 1418 668 1396 q 739 1439 714 1439 q 853 1333 779 1439 q 928 1180 928 1227 q 905 1133 928 1155 q 854 1112 882 1112 q 809 1141 823 1112 z "},"Ã":{"ha":1016,"x_min":94,"x_max":1183,"o":"m 755 353 q 570 319 681 344 l 383 282 q 216 11 243 37 q 154 -16 189 -16 q 112 1 129 -16 q 94 41 94 18 q 237 300 94 77 q 230 330 230 313 q 309 411 230 394 q 578 772 396 541 q 799 1003 761 1003 q 860 928 852 1003 l 865 700 l 893 229 l 914 121 q 923 56 923 77 q 898 3 923 26 q 842 -21 873 -21 q 777 69 798 -21 q 755 353 757 159 m 733 754 l 489 441 q 747 493 556 459 l 733 754 m 859 1320 l 905 1249 q 974 1208 931 1208 q 1035 1234 1012 1208 l 1075 1293 l 1096 1334 q 1141 1353 1105 1353 q 1183 1316 1183 1353 q 1123 1195 1183 1282 q 979 1109 1063 1109 q 867 1131 901 1109 q 799 1220 832 1154 q 741 1259 775 1259 q 669 1227 699 1259 l 629 1170 q 582 1139 608 1139 q 536 1179 536 1139 l 538 1195 q 605 1295 541 1231 q 757 1360 669 1360 q 859 1320 825 1360 z "},"Õ":{"ha":1109,"x_min":109,"x_max":1189,"o":"m 109 312 q 183 606 109 441 q 410 899 257 770 q 743 1028 562 1028 q 1128 707 1128 1028 q 946 201 1128 444 q 513 -41 763 -41 q 221 59 333 -41 q 109 312 109 160 m 249 336 q 329 163 249 230 q 534 97 409 97 q 851 289 714 97 q 988 685 988 480 q 923 845 988 800 q 721 889 857 889 q 393 700 538 889 q 249 336 249 511 m 864 1321 l 910 1251 q 979 1210 937 1210 q 1040 1235 1017 1210 l 1080 1295 l 1101 1335 q 1146 1354 1111 1354 q 1189 1317 1189 1354 q 1129 1197 1189 1283 q 985 1110 1069 1110 q 872 1133 907 1110 q 804 1221 838 1155 q 746 1260 781 1260 q 675 1228 705 1260 l 635 1171 q 587 1141 613 1141 q 541 1181 541 1141 l 544 1196 q 610 1297 547 1232 q 762 1361 674 1361 q 864 1321 830 1361 z "},"Œ":{"ha":1658,"x_min":109,"x_max":1774,"o":"m 1187 924 q 1131 593 1187 841 l 1432 621 q 1596 635 1586 635 q 1655 581 1655 635 q 1580 496 1655 505 l 1099 453 q 1053 153 1053 239 q 1067 99 1053 113 q 1162 86 1082 86 q 1290 89 1202 86 q 1418 92 1375 92 q 1482 98 1426 92 q 1561 45 1561 108 q 1509 -34 1561 -16 q 1214 -52 1457 -52 q 953 3 995 -52 q 917 164 911 58 q 513 -41 743 -41 q 221 60 334 -41 q 109 312 109 161 q 182 603 109 439 q 408 897 256 766 q 743 1028 559 1028 q 1053 933 958 1028 q 1137 1080 1053 1080 q 1182 1060 1166 1080 q 1479 1104 1358 1104 q 1640 1092 1573 1104 q 1741 1063 1708 1080 q 1774 1011 1774 1046 q 1751 955 1774 983 q 1694 928 1727 928 q 1675 932 1683 928 q 1457 964 1563 964 q 1187 924 1348 964 m 250 336 q 330 163 250 230 q 534 97 410 97 q 852 289 715 97 q 989 685 989 480 q 920 847 989 804 q 721 889 850 889 q 395 700 539 889 q 250 336 250 511 z "},"œ":{"ha":1246,"x_min":93,"x_max":1237,"o":"m 604 104 q 336 -40 494 -40 q 159 39 225 -40 q 93 235 93 117 q 207 550 93 398 q 505 703 320 703 q 696 557 652 703 q 983 708 814 708 q 1162 668 1095 708 q 1229 554 1229 628 q 1203 472 1229 511 q 1133 406 1177 433 q 974 328 1089 378 l 696 204 q 904 92 755 92 q 1031 113 962 92 q 1129 168 1101 134 q 1185 204 1157 204 q 1222 189 1207 204 q 1237 153 1237 174 q 1117 25 1237 81 q 885 -31 997 -31 q 604 104 675 -31 m 1120 532 q 964 586 1070 586 q 705 329 800 586 l 928 429 q 1120 532 1065 491 m 583 414 q 473 566 583 566 q 298 462 368 566 q 228 257 228 359 q 262 142 228 187 q 359 97 296 97 q 512 174 441 97 q 583 414 583 252 z "},"–":{"ha":613,"x_min":93,"x_max":627,"o":"m 163 370 l 152 370 q 93 426 93 370 q 129 491 93 466 q 347 515 165 515 q 458 509 385 515 q 570 503 526 503 q 627 450 627 503 q 605 393 627 416 q 549 370 583 370 q 437 374 512 370 q 326 379 378 379 q 163 370 225 379 z "},"—":{"ha":1226,"x_min":104,"x_max":1220,"o":"m 831 497 l 991 501 l 1130 507 l 1169 507 q 1220 462 1220 507 q 1090 370 1220 370 l 1065 370 l 970 374 l 802 374 q 566 372 701 374 l 332 371 l 160 371 q 117 386 130 372 q 104 422 104 399 q 121 477 104 456 q 172 503 139 498 q 336 507 205 507 q 583 501 418 507 q 831 497 747 497 z "},"“":{"ha":547,"x_min":206,"x_max":578,"o":"m 545 1044 l 565 916 q 578 808 578 833 q 556 760 578 781 q 505 739 534 739 q 473 747 486 739 q 456 770 461 755 q 435 895 451 785 q 419 1031 419 1004 q 441 1075 419 1054 q 492 1096 463 1096 q 545 1044 543 1096 m 332 1032 l 361 803 q 340 765 363 789 q 287 741 318 741 q 245 760 258 741 q 220 883 233 779 q 206 1012 206 987 q 229 1056 206 1036 q 281 1076 251 1076 q 332 1032 324 1076 z "},"”":{"ha":547,"x_min":182,"x_max":653,"o":"m 649 1011 l 585 861 q 541 734 563 811 q 471 676 525 676 q 416 725 416 676 q 468 893 416 765 q 540 1046 520 1021 q 593 1071 560 1071 q 636 1053 620 1071 q 649 1011 653 1034 m 415 1011 l 351 861 q 307 734 330 810 q 237 676 292 676 q 182 726 182 676 q 235 894 182 766 q 308 1047 288 1023 q 360 1071 327 1071 q 403 1053 387 1071 q 415 1011 419 1036 z "},"‘":{"ha":250,"x_min":203,"x_max":328,"o":"m 203 810 q 219 1036 203 996 q 278 1076 236 1076 q 328 1017 328 1076 q 311 779 328 817 q 253 742 294 742 q 203 810 203 742 z "},"’":{"ha":250,"x_min":157,"x_max":342,"o":"m 191 901 l 235 1021 q 294 1074 254 1074 q 342 1025 342 1074 q 298 869 342 997 q 203 742 255 742 q 157 789 157 742 q 191 901 157 812 z "},"÷":{"ha":667,"x_min":90,"x_max":679,"o":"m 472 726 q 399 653 472 653 q 346 697 346 653 q 420 774 346 774 q 472 726 472 774 m 578 500 q 679 446 679 500 q 658 396 679 419 q 610 374 637 374 q 573 378 601 374 q 372 375 555 381 q 186 371 249 371 q 90 423 90 371 q 114 477 90 463 q 205 492 138 492 q 324 496 245 492 q 446 500 406 500 q 483 496 450 500 q 559 499 494 495 q 578 500 571 500 m 347 249 q 384 234 370 249 q 398 198 398 219 q 377 148 398 169 q 328 126 356 126 q 291 141 305 126 q 277 176 277 156 q 298 227 277 205 q 347 249 319 249 z "},"◊":{"ha":1003,"x_min":109,"x_max":1050,"o":"m 865 811 l 977 663 q 1050 541 1050 567 q 1008 472 1050 505 q 622 41 892 376 q 509 -56 545 -56 q 459 -24 476 -56 q 133 419 273 294 q 109 466 109 439 q 132 522 109 486 q 272 709 155 557 q 481 967 388 861 q 600 1090 574 1073 q 650 1108 625 1108 q 687 1088 669 1108 q 768 962 705 1068 q 865 811 816 880 m 712 350 q 877 533 805 460 q 673 825 770 656 l 612 929 l 533 839 l 271 493 q 534 140 403 361 l 712 350 z "},"ÿ":{"ha":599,"x_min":102,"x_max":808,"o":"m 479 97 q 296 -212 348 -116 l 231 -345 q 163 -393 207 -393 q 120 -378 137 -393 q 102 -338 102 -363 q 311 65 102 -276 l 142 532 l 119 582 q 109 624 109 605 q 135 680 109 656 q 191 704 161 704 q 230 688 212 704 q 304 535 248 671 q 410 225 361 399 l 547 458 q 638 601 582 517 q 712 694 694 684 q 747 705 730 705 q 790 688 773 705 q 808 648 808 671 q 795 606 808 629 l 479 97 m 732 877 q 708 831 732 852 q 625 810 684 810 q 579 824 600 810 q 559 860 559 839 q 583 917 559 897 q 671 936 606 936 q 713 917 693 936 q 732 877 732 898 m 385 873 q 352 822 385 842 q 293 803 319 803 q 220 858 220 803 q 251 911 220 891 q 306 930 283 930 q 385 873 385 930 z "},"Ÿ":{"ha":882,"x_min":169,"x_max":982,"o":"m 453 318 q 334 566 354 475 q 261 749 315 643 q 197 878 224 821 q 169 954 169 936 q 194 1007 169 983 q 250 1032 220 1032 q 301 1000 282 1032 l 343 916 q 435 724 413 774 q 469 615 456 673 q 541 463 481 564 l 755 840 l 828 950 q 881 1019 865 1007 q 922 1031 896 1031 q 965 1014 947 1031 q 982 974 982 998 q 905 835 982 942 q 873 787 891 814 l 713 500 q 539 216 654 394 l 431 65 l 383 -8 q 317 -47 357 -47 q 274 -31 292 -47 q 257 9 257 -14 q 343 165 257 37 l 453 318 m 883 1185 q 859 1139 883 1160 q 776 1118 834 1118 q 730 1133 750 1118 q 710 1168 710 1147 q 733 1225 710 1206 q 821 1244 757 1244 q 863 1225 844 1244 q 883 1185 883 1206 m 536 1182 q 503 1131 536 1150 q 444 1112 470 1112 q 370 1166 370 1112 q 402 1219 370 1200 q 456 1239 433 1239 q 536 1182 536 1239 z "},"⁄":{"ha":1126,"x_min":-488,"x_max":696,"o":"m -462 68 l -327 184 l -84 414 q 52 538 6 499 q 318 804 109 582 q 551 1039 497 994 l 597 1088 q 646 1114 621 1114 q 696 1068 696 1114 q 626 974 696 1034 q 491 842 608 959 l 288 627 q 73 424 197 530 q -220 147 27 387 q -441 -28 -401 -28 q -475 -14 -462 -28 q -488 18 -488 -1 q -462 68 -488 43 z "},"€":{"ha":848,"x_min":50,"x_max":1015,"o":"m 477 697 l 781 697 q 832 648 832 697 q 811 597 832 618 q 762 576 791 576 l 405 576 q 358 461 368 499 l 598 458 q 650 410 650 458 q 629 359 650 380 q 578 338 608 338 q 329 340 551 338 q 325 274 325 304 q 366 149 325 183 q 481 115 407 115 q 571 133 532 115 q 692 212 609 151 q 765 245 736 245 q 806 228 789 245 q 822 188 822 211 q 761 100 822 147 q 629 15 699 53 q 459 -24 559 -24 q 255 55 324 -24 q 186 258 186 133 q 193 342 186 298 l 148 339 q 104 336 121 336 q 50 382 50 336 q 74 440 50 416 q 220 463 98 464 q 263 576 247 536 l 138 574 q 87 624 87 574 q 106 668 87 649 q 153 692 124 688 q 328 697 182 697 q 793 1051 542 1051 q 897 1039 859 1051 q 965 1074 925 1074 q 1015 996 1015 1074 q 995 853 1015 901 q 924 804 975 804 q 867 854 882 804 q 839 909 855 901 q 772 918 823 918 q 477 697 635 918 z "},"‹":{"ha":530,"x_min":134,"x_max":587,"o":"m 325 416 q 404 330 358 390 q 479 240 458 261 q 498 202 498 222 q 476 154 498 176 q 427 132 454 132 q 384 153 407 132 q 293 258 361 174 q 176 354 234 331 q 134 404 134 371 q 191 467 134 442 q 346 576 258 497 q 492 703 469 686 q 535 720 515 720 q 572 704 558 720 q 587 667 587 688 q 578 636 587 648 q 491 555 570 623 q 325 416 412 486 z "},"›":{"ha":530,"x_min":116,"x_max":548,"o":"m 358 416 q 212 584 252 533 q 173 651 173 634 q 196 697 173 675 q 246 720 218 720 q 291 694 267 720 q 387 576 315 669 q 510 467 452 498 q 548 418 548 447 q 488 354 548 376 q 340 258 419 329 q 211 148 234 164 q 168 132 187 132 q 131 148 146 132 q 116 185 116 163 q 147 240 116 216 q 252 330 191 275 q 358 416 322 393 z "},"ﬁ":{"ha":915,"x_min":140,"x_max":979,"o":"m 885 859 q 854 865 868 859 q 831 881 841 871 q 818 906 822 892 q 817 937 814 921 q 828 968 819 954 q 849 992 836 982 q 878 1009 862 1003 q 909 1015 893 1015 q 939 1009 926 1015 q 962 992 953 1003 q 975 968 971 982 q 977 937 979 954 q 965 906 974 921 q 944 881 957 892 q 917 865 932 871 q 885 859 901 859 m 829 309 q 821 257 825 288 q 811 186 817 227 q 802 115 806 145 q 794 64 798 85 q 768 16 789 35 q 717 -3 747 -3 q 671 16 687 -3 q 661 64 656 35 q 677 186 667 105 q 687 257 683 227 q 696 309 692 288 q 706 373 700 339 q 721 443 713 406 l 749 568 l 697 570 q 614 565 676 570 q 446 553 551 561 l 415 399 q 408 345 412 377 q 397 271 404 313 q 388 198 392 229 q 380 146 384 167 q 334 -54 360 19 q 262 -109 314 -109 q 237 -104 248 -109 q 217 -91 225 -99 q 206 -71 210 -82 q 204 -46 202 -59 q 206 -39 205 -43 q 208 -32 206 -36 q 234 61 223 13 q 254 160 245 109 l 281 346 l 311 542 q 241 536 269 538 q 203 534 214 534 q 154 551 168 534 q 146 602 140 568 q 275 671 156 669 l 340 673 q 351 718 345 692 q 367 777 357 744 q 478 999 408 925 q 713 1084 564 1084 q 799 1018 809 1084 q 700 954 788 954 q 563 897 617 954 q 481 725 509 840 l 471 684 q 785 700 719 700 q 892 627 902 700 q 878 554 886 594 q 860 467 870 515 q 842 380 849 420 q 829 309 835 341 z "},"ﬂ":{"ha":911,"x_min":119,"x_max":1010,"o":"m 860 981 q 836 983 844 982 q 827 983 828 983 q 566 918 637 983 q 519 847 540 895 q 481 725 499 799 q 470 677 475 707 q 457 606 465 648 q 552 612 515 610 q 607 614 590 614 q 704 546 715 614 q 597 481 694 481 q 592 481 595 481 q 572 480 588 481 q 523 478 556 479 q 429 475 490 477 q 421 435 424 454 q 415 399 418 416 q 408 345 412 377 q 397 271 404 313 q 388 198 392 229 q 380 146 384 167 q 334 -54 360 19 q 262 -109 314 -109 q 237 -104 248 -109 q 217 -91 225 -99 q 206 -71 210 -82 q 204 -46 202 -59 q 206 -39 205 -43 q 208 -32 206 -36 q 234 60 223 13 q 254 160 245 106 l 301 464 q 229 459 258 460 q 187 457 199 457 q 129 522 119 457 q 167 574 134 557 q 260 593 200 591 l 325 596 l 367 777 q 417 910 385 854 q 490 999 450 966 q 631 1070 545 1044 q 840 1096 718 1096 q 864 1096 852 1096 q 893 1095 876 1096 q 925 1093 913 1093 q 945 1092 938 1092 q 1000 1023 1010 1092 q 981 909 991 970 q 958 778 971 848 q 936 648 947 709 q 917 533 925 587 l 852 196 q 842 131 848 170 q 822 39 835 92 q 795 -13 814 4 q 746 -29 775 -29 q 690 40 680 -29 q 708 142 696 81 q 736 286 720 203 q 782 533 770 452 l 823 764 l 860 981 z "},"‡":{"ha":829,"x_min":138,"x_max":922,"o":"m 387 452 l 450 768 l 357 768 q 207 780 245 768 q 169 829 169 791 q 191 884 169 859 q 248 909 214 909 q 311 905 267 909 q 376 901 353 901 l 477 903 l 510 1083 q 587 1152 523 1152 q 632 1132 617 1152 q 643 1083 647 1113 l 611 900 q 717 897 680 897 q 790 903 752 897 q 867 909 843 909 q 907 893 892 909 q 922 853 922 876 q 884 788 922 813 q 699 762 846 762 l 585 765 l 521 447 q 749 436 716 447 q 782 391 782 426 q 761 332 782 356 q 705 307 739 307 q 603 310 672 307 l 500 314 l 439 -74 q 411 -123 434 -104 q 359 -142 389 -142 q 315 -122 330 -142 q 304 -74 300 -103 l 367 318 l 321 318 q 211 309 255 318 q 192 306 200 306 q 138 363 138 306 q 321 453 138 453 l 387 452 z "},"·":{"ha":346,"x_min":169,"x_max":340,"o":"m 169 471 q 199 539 169 509 q 268 570 230 570 q 320 548 300 570 q 340 498 340 526 q 309 431 340 460 q 240 401 278 401 q 189 422 208 401 q 169 471 169 443 z "},"‚":{"ha":415,"x_min":34,"x_max":280,"o":"m 34 -86 q 111 59 34 -33 q 227 151 189 151 q 265 136 250 151 q 280 100 280 121 q 220 11 280 72 q 153 -74 161 -48 q 83 -132 138 -132 q 34 -86 34 -132 z "},"„":{"ha":572,"x_min":34,"x_max":522,"o":"m 34 -86 q 111 59 34 -33 q 227 151 189 151 q 265 136 250 151 q 280 100 280 121 q 220 11 280 72 q 153 -74 161 -48 q 83 -132 138 -132 q 34 -86 34 -132 m 274 -85 q 352 59 274 -33 q 469 151 429 151 q 507 136 492 151 q 522 99 522 120 q 460 11 522 73 q 395 -74 401 -47 q 326 -132 380 -132 q 274 -85 274 -132 z "},"‰":{"ha":1724,"x_min":238,"x_max":1643,"o":"m 238 881 q 322 1048 238 983 q 476 1114 406 1114 q 609 1062 563 1114 q 656 931 656 1011 q 579 765 656 825 q 408 705 503 705 q 281 756 325 705 q 238 881 238 808 m 352 898 q 426 819 352 819 q 502 838 463 819 q 541 916 541 857 q 455 1000 541 1000 q 388 977 424 1000 q 352 898 352 953 m 576 533 l 825 940 q 863 1006 845 974 q 959 1088 916 1088 q 994 1073 979 1088 q 1008 1038 1008 1058 q 991 996 1008 1021 q 920 888 958 951 l 854 778 l 471 170 l 431 100 q 352 -12 370 -3 q 321 -21 334 -21 q 287 -7 302 -21 q 271 26 271 7 q 425 297 271 64 q 576 533 545 477 m 1179 157 q 1251 346 1179 261 q 1434 431 1323 431 q 1583 382 1524 431 q 1643 263 1643 334 q 1565 78 1643 167 q 1364 -11 1487 -11 q 1227 37 1276 -11 q 1179 157 1179 85 m 1294 176 q 1398 103 1294 103 q 1498 152 1468 103 q 1528 242 1528 200 q 1494 295 1528 272 q 1416 318 1460 318 q 1326 272 1358 318 q 1294 176 1294 225 m 661 155 q 734 344 661 258 q 916 429 807 429 q 1065 381 1004 429 q 1126 257 1126 332 q 1049 74 1126 160 q 848 -12 971 -12 q 711 35 761 -12 q 661 155 661 81 m 776 173 q 882 100 776 100 q 980 148 949 100 q 1011 239 1011 196 q 978 293 1011 271 q 898 315 945 315 q 809 269 842 315 q 776 173 776 222 z "},"Â":{"ha":1016,"x_min":94,"x_max":1086,"o":"m 755 353 q 570 319 681 344 l 383 282 q 216 11 243 37 q 154 -16 189 -16 q 112 1 129 -16 q 94 41 94 18 q 237 300 94 77 q 230 330 230 313 q 309 411 230 394 q 578 772 396 541 q 799 1003 761 1003 q 860 928 852 1003 l 865 700 l 893 229 l 914 121 q 923 56 923 77 q 898 3 923 26 q 842 -21 873 -21 q 777 69 798 -21 q 755 353 757 159 m 733 754 l 489 441 q 747 493 556 459 l 733 754 m 832 1274 q 578 1061 625 1061 q 541 1077 557 1061 q 526 1114 526 1093 q 553 1168 526 1144 q 796 1396 582 1190 q 840 1417 817 1417 q 897 1394 868 1417 q 985 1295 925 1372 l 1074 1180 q 1086 1148 1086 1164 q 1064 1100 1086 1122 q 1014 1078 1042 1078 q 966 1106 985 1078 q 832 1274 947 1135 z "},"Ê":{"ha":867,"x_min":119,"x_max":994,"o":"m 391 907 q 332 578 391 842 l 635 607 q 796 619 762 619 q 857 563 857 619 q 782 481 857 490 l 300 437 q 254 135 254 227 q 272 82 254 94 q 366 71 289 71 l 620 77 q 683 83 629 77 q 762 31 762 94 q 713 -49 762 -31 q 415 -66 664 -66 q 171 -26 222 -66 q 119 123 119 14 q 172 472 119 243 q 169 496 169 488 q 191 547 169 526 q 242 799 232 735 q 253 909 253 862 q 276 1033 258 1000 q 339 1065 294 1065 q 386 1044 368 1065 q 682 1089 559 1089 q 862 1072 786 1089 q 956 1038 938 1055 q 975 996 975 1021 q 950 938 975 963 q 896 913 926 913 q 875 917 888 913 q 660 949 762 949 q 391 907 547 949 m 741 1388 q 486 1175 534 1175 q 450 1191 465 1175 q 434 1228 434 1207 q 461 1282 434 1258 q 705 1510 490 1304 q 749 1531 726 1531 q 805 1508 777 1531 q 893 1409 833 1486 l 982 1294 q 994 1262 994 1278 q 972 1214 994 1236 q 922 1192 951 1192 q 875 1220 894 1192 q 741 1388 856 1249 z "},"Á":{"ha":1016,"x_min":94,"x_max":1091,"o":"m 755 353 q 570 319 681 344 l 383 282 q 216 11 243 37 q 154 -16 189 -16 q 112 1 129 -16 q 94 41 94 18 q 237 300 94 77 q 230 330 230 313 q 309 411 230 394 q 578 772 396 541 q 799 1003 761 1003 q 860 928 852 1003 l 865 700 l 893 229 l 914 121 q 923 56 923 77 q 898 3 923 26 q 842 -21 873 -21 q 777 69 798 -21 q 755 353 757 159 m 733 754 l 489 441 q 747 493 556 459 l 733 754 m 751 1160 q 780 1211 751 1185 q 886 1319 814 1240 q 964 1391 917 1354 q 1040 1429 1012 1429 q 1076 1413 1060 1429 q 1091 1376 1091 1398 q 1057 1318 1091 1342 q 951 1221 997 1276 q 803 1105 850 1105 q 767 1121 782 1105 q 751 1160 751 1137 z "},"Ë":{"ha":867,"x_min":119,"x_max":979,"o":"m 391 907 q 332 578 391 842 l 635 607 q 796 619 762 619 q 857 563 857 619 q 782 481 857 490 l 300 437 q 254 135 254 227 q 272 82 254 94 q 366 71 289 71 l 620 77 q 683 83 629 77 q 762 31 762 94 q 713 -49 762 -31 q 415 -66 664 -66 q 171 -26 222 -66 q 119 123 119 14 q 172 472 119 243 q 169 496 169 488 q 191 547 169 526 q 242 799 232 735 q 253 909 253 862 q 276 1033 258 1000 q 339 1065 294 1065 q 386 1044 368 1065 q 682 1089 559 1089 q 862 1072 786 1089 q 956 1038 938 1055 q 975 996 975 1021 q 950 938 975 963 q 896 913 926 913 q 875 917 888 913 q 660 949 762 949 q 391 907 547 949 m 979 1261 q 955 1215 979 1236 q 872 1194 930 1194 q 826 1209 846 1194 q 806 1244 806 1223 q 830 1301 806 1282 q 918 1320 853 1320 q 960 1301 940 1320 q 979 1261 979 1282 m 632 1258 q 599 1207 632 1226 q 540 1187 566 1187 q 467 1242 467 1187 q 498 1295 467 1276 q 553 1315 530 1315 q 632 1258 632 1315 z "},"È":{"ha":867,"x_min":119,"x_max":975,"o":"m 391 907 q 332 578 391 842 l 635 607 q 796 619 762 619 q 857 563 857 619 q 782 481 857 490 l 300 437 q 254 135 254 227 q 272 82 254 94 q 366 71 289 71 l 620 77 q 683 83 629 77 q 762 31 762 94 q 713 -49 762 -31 q 415 -66 664 -66 q 171 -26 222 -66 q 119 123 119 14 q 172 472 119 243 q 169 496 169 488 q 191 547 169 526 q 242 799 232 735 q 253 909 253 862 q 276 1033 258 1000 q 339 1065 294 1065 q 386 1044 368 1065 q 682 1089 559 1089 q 862 1072 786 1089 q 956 1038 938 1055 q 975 996 975 1021 q 950 938 975 963 q 896 913 926 913 q 875 917 888 913 q 660 949 762 949 q 391 907 547 949 m 625 1214 l 572 1314 q 503 1401 546 1362 q 484 1441 484 1418 q 507 1491 484 1470 q 554 1512 530 1512 q 669 1407 595 1512 q 743 1253 743 1301 q 720 1206 743 1228 q 669 1185 697 1185 q 625 1214 639 1185 z "},"Í":{"ha":759,"x_min":69,"x_max":863,"o":"m 566 868 q 484 438 509 621 q 435 140 446 163 l 650 143 q 691 127 676 143 q 707 87 707 111 q 684 30 707 56 q 628 4 662 4 q 514 1 591 4 l 447 0 q 262 -12 338 -2 q 127 -25 175 -25 q 85 -8 101 -25 q 69 32 69 9 q 93 90 69 64 q 150 115 117 115 q 297 129 202 115 q 344 431 318 195 q 432 873 358 564 l 254 868 q 214 883 230 867 q 197 924 197 899 q 216 982 197 960 q 271 1008 234 1004 q 478 1013 309 1013 q 688 1000 572 1013 q 823 982 804 987 q 852 964 842 977 q 863 928 863 951 q 837 866 863 888 q 781 844 811 844 q 673 854 733 844 l 566 868 m 478 1179 q 507 1229 478 1204 q 613 1337 541 1258 q 691 1410 644 1372 q 766 1447 739 1447 q 802 1432 787 1447 q 818 1394 818 1416 q 784 1336 818 1360 q 677 1239 724 1294 q 530 1124 576 1124 q 493 1139 509 1124 q 478 1179 478 1155 z "},"Î":{"ha":759,"x_min":69,"x_max":865,"o":"m 566 868 q 484 438 509 621 q 435 140 446 163 l 650 143 q 691 127 676 143 q 707 87 707 111 q 684 30 707 56 q 628 4 662 4 q 514 1 591 4 l 447 0 q 262 -12 338 -2 q 127 -25 175 -25 q 85 -8 101 -25 q 69 32 69 9 q 93 90 69 64 q 150 115 117 115 q 297 129 202 115 q 344 431 318 195 q 432 873 358 564 l 254 868 q 214 883 230 867 q 197 924 197 899 q 216 982 197 960 q 271 1008 234 1004 q 478 1013 309 1013 q 688 1000 572 1013 q 823 982 804 987 q 852 964 842 977 q 863 928 863 951 q 837 866 863 888 q 781 844 811 844 q 673 854 733 844 l 566 868 m 611 1333 q 357 1120 404 1120 q 320 1137 336 1120 q 304 1174 304 1153 q 332 1227 304 1204 q 575 1455 361 1250 q 619 1476 596 1476 q 675 1454 647 1476 q 764 1355 704 1432 l 852 1240 q 865 1208 865 1223 q 843 1159 865 1181 q 793 1137 821 1137 q 745 1166 764 1137 q 611 1333 726 1194 z "},"Ï":{"ha":759,"x_min":69,"x_max":863,"o":"m 566 868 q 484 438 509 621 q 435 140 446 163 l 650 143 q 691 127 676 143 q 707 87 707 111 q 684 30 707 56 q 628 4 662 4 q 514 1 591 4 l 447 0 q 262 -12 338 -2 q 127 -25 175 -25 q 85 -8 101 -25 q 69 32 69 9 q 93 90 69 64 q 150 115 117 115 q 297 129 202 115 q 344 431 318 195 q 432 873 358 564 l 254 868 q 214 883 230 867 q 197 924 197 899 q 216 982 197 960 q 271 1008 234 1004 q 478 1013 309 1013 q 688 1000 572 1013 q 823 982 804 987 q 852 964 842 977 q 863 928 863 951 q 837 866 863 888 q 781 844 811 844 q 673 854 733 844 l 566 868 m 842 1195 q 817 1149 842 1170 q 734 1128 793 1128 q 689 1142 709 1128 q 669 1178 669 1157 q 692 1235 669 1215 q 780 1254 715 1254 q 822 1235 802 1254 q 842 1195 842 1216 m 494 1192 q 461 1140 494 1160 q 402 1121 429 1121 q 329 1176 329 1121 q 360 1229 329 1209 q 415 1249 392 1249 q 494 1192 494 1249 z "},"Ì":{"ha":759,"x_min":69,"x_max":863,"o":"m 566 868 q 484 438 509 621 q 435 140 446 163 l 650 143 q 691 127 676 143 q 707 87 707 111 q 684 30 707 56 q 628 4 662 4 q 514 1 591 4 l 447 0 q 262 -12 338 -2 q 127 -25 175 -25 q 85 -8 101 -25 q 69 32 69 9 q 93 90 69 64 q 150 115 117 115 q 297 129 202 115 q 344 431 318 195 q 432 873 358 564 l 254 868 q 214 883 230 867 q 197 924 197 899 q 216 982 197 960 q 271 1008 234 1004 q 478 1013 309 1013 q 688 1000 572 1013 q 823 982 804 987 q 852 964 842 977 q 863 928 863 951 q 837 866 863 888 q 781 844 811 844 q 673 854 733 844 l 566 868 m 578 1167 l 526 1267 q 456 1354 500 1315 q 437 1394 437 1371 q 460 1444 437 1423 q 508 1466 484 1466 q 623 1360 549 1466 q 697 1206 697 1254 q 674 1160 697 1181 q 623 1138 651 1138 q 578 1167 593 1138 z "},"Ó":{"ha":1109,"x_min":109,"x_max":1128,"o":"m 109 312 q 183 606 109 441 q 410 899 257 770 q 743 1028 562 1028 q 1128 707 1128 1028 q 946 201 1128 444 q 513 -41 763 -41 q 221 59 333 -41 q 109 312 109 160 m 249 336 q 329 163 249 230 q 534 97 409 97 q 851 289 714 97 q 988 685 988 480 q 923 845 988 800 q 721 889 857 889 q 393 700 538 889 q 249 336 249 511 m 778 1166 q 806 1217 778 1192 q 913 1325 841 1246 q 991 1397 943 1360 q 1066 1435 1038 1435 q 1102 1419 1086 1435 q 1118 1382 1118 1404 q 1084 1324 1118 1348 q 977 1227 1023 1282 q 829 1112 876 1112 q 793 1127 808 1112 q 778 1166 778 1143 z "},"Ô":{"ha":1109,"x_min":109,"x_max":1136,"o":"m 109 312 q 183 606 109 441 q 410 899 257 770 q 743 1028 562 1028 q 1128 707 1128 1028 q 946 201 1128 444 q 513 -41 763 -41 q 221 59 333 -41 q 109 312 109 160 m 249 336 q 329 163 249 230 q 534 97 409 97 q 851 289 714 97 q 988 685 988 480 q 923 845 988 800 q 721 889 857 889 q 393 700 538 889 q 249 336 249 511 m 882 1309 q 628 1096 675 1096 q 591 1112 607 1096 q 576 1149 576 1128 q 603 1203 576 1179 q 846 1431 632 1225 q 890 1452 867 1452 q 947 1430 918 1452 q 1035 1331 975 1407 l 1124 1215 q 1136 1183 1136 1199 q 1114 1135 1136 1157 q 1064 1113 1093 1113 q 1017 1141 1036 1113 q 882 1309 998 1170 z "},"Ò":{"ha":1109,"x_min":109,"x_max":1128,"o":"m 109 312 q 183 606 109 441 q 410 899 257 770 q 743 1028 562 1028 q 1128 707 1128 1028 q 946 201 1128 444 q 513 -41 763 -41 q 221 59 333 -41 q 109 312 109 160 m 249 336 q 329 163 249 230 q 534 97 409 97 q 851 289 714 97 q 988 685 988 480 q 923 845 988 800 q 721 889 857 889 q 393 700 538 889 q 249 336 249 511 m 892 1146 l 840 1246 q 770 1333 814 1294 q 751 1373 751 1350 q 774 1423 751 1402 q 822 1444 798 1444 q 937 1339 863 1444 q 1011 1185 1011 1233 q 988 1139 1011 1160 q 937 1117 965 1117 q 892 1146 907 1117 z "},"Ú":{"ha":1023,"x_min":155,"x_max":1070,"o":"m 366 901 l 304 503 q 292 365 292 426 q 526 92 292 92 q 907 783 795 92 l 926 904 q 1015 1019 946 1019 q 1070 958 1070 1019 q 1067 926 1070 943 l 1041 758 q 511 -28 920 -28 q 243 60 332 -28 q 155 349 155 149 q 192 679 155 429 q 257 972 230 930 q 321 1015 284 1015 q 370 947 370 1015 q 366 901 370 927 m 628 1171 q 656 1221 628 1196 q 763 1329 691 1250 q 841 1401 793 1364 q 916 1439 888 1439 q 952 1423 937 1439 q 968 1386 968 1408 q 934 1328 968 1352 q 827 1231 873 1286 q 680 1116 726 1116 q 643 1131 659 1116 q 628 1171 628 1147 z "},"Û":{"ha":1023,"x_min":155,"x_max":1070,"o":"m 366 901 l 304 503 q 292 365 292 426 q 526 92 292 92 q 907 783 795 92 l 926 904 q 1015 1019 946 1019 q 1070 958 1070 1019 q 1067 926 1070 943 l 1041 758 q 511 -28 920 -28 q 243 60 332 -28 q 155 349 155 149 q 192 679 155 429 q 257 972 230 930 q 321 1015 284 1015 q 370 947 370 1015 q 366 901 370 927 m 760 1313 q 506 1100 553 1100 q 469 1116 485 1100 q 454 1154 454 1133 q 481 1207 454 1183 q 724 1435 510 1230 q 768 1456 745 1456 q 825 1434 796 1456 q 913 1335 853 1411 l 1002 1219 q 1014 1187 1014 1203 q 992 1139 1014 1161 q 942 1117 970 1117 q 895 1145 913 1117 q 760 1313 876 1174 z "},"Ù":{"ha":1023,"x_min":155,"x_max":1070,"o":"m 366 901 l 304 503 q 292 365 292 426 q 526 92 292 92 q 907 783 795 92 l 926 904 q 1015 1019 946 1019 q 1070 958 1070 1019 q 1067 926 1070 943 l 1041 758 q 511 -28 920 -28 q 243 60 332 -28 q 155 349 155 149 q 192 679 155 429 q 257 972 230 930 q 321 1015 284 1015 q 370 947 370 1015 q 366 901 370 927 m 652 1138 l 599 1238 q 530 1325 573 1286 q 511 1365 511 1342 q 534 1415 511 1394 q 581 1436 557 1436 q 696 1331 622 1436 q 770 1177 770 1225 q 747 1131 770 1152 q 696 1109 724 1109 q 652 1138 666 1109 z "},"ı":{"ha":389,"x_min":131,"x_max":364,"o":"m 188 -3 q 131 50 131 -3 l 158 257 q 197 467 168 338 q 229 627 222 583 q 307 694 241 694 q 364 642 364 694 q 331 467 364 624 q 291 257 298 323 q 264 67 277 137 q 188 -3 251 -3 z "},"ˆ":{"ha":772,"x_min":264,"x_max":825,"o":"m 571 1003 q 317 790 364 790 q 280 806 296 790 q 264 844 264 823 q 292 897 264 873 q 535 1125 321 920 q 579 1146 556 1146 q 635 1124 607 1146 q 724 1025 664 1101 l 812 909 q 825 878 825 893 q 803 829 825 851 q 753 807 781 807 q 705 836 724 807 q 571 1003 686 864 z "},"˜":{"ha":772,"x_min":251,"x_max":899,"o":"m 574 1014 l 620 943 q 689 903 646 903 q 750 928 727 903 l 790 987 l 811 1028 q 856 1047 821 1047 q 899 1010 899 1047 q 839 889 899 976 q 694 803 779 803 q 582 825 616 803 q 514 914 547 848 q 456 953 490 953 q 385 921 414 953 l 345 864 q 297 833 323 833 q 251 873 251 833 l 254 889 q 320 989 256 925 q 472 1054 384 1054 q 574 1014 540 1054 z "},"ˉ":{"ha":772,"x_min":317,"x_max":787,"o":"m 576 905 l 610 905 q 660 907 631 905 l 708 908 q 772 902 757 909 q 787 871 787 894 q 735 808 787 818 l 659 804 l 513 804 l 359 808 q 317 846 317 808 q 339 898 317 885 q 417 911 362 911 q 496 908 444 911 q 576 905 551 905 z "},"˘":{"ha":772,"x_min":290,"x_max":848,"o":"m 804 1053 q 848 1013 848 1053 q 751 866 848 932 q 500 800 654 800 q 352 856 413 800 q 290 988 290 911 q 351 1078 290 1078 q 396 1039 396 1078 l 393 1008 q 429 931 393 962 q 515 901 465 901 q 747 1010 700 901 q 804 1053 766 1053 z "},"˙":{"ha":772,"x_min":350,"x_max":513,"o":"m 431 803 q 380 833 410 803 q 350 884 350 863 q 378 930 350 907 q 433 953 406 953 q 483 921 454 953 q 513 871 513 889 q 485 825 513 847 q 431 803 458 803 z "},"˚":{"ha":772,"x_min":321,"x_max":788,"o":"m 602 1192 q 738 1147 687 1192 q 788 1038 788 1103 q 722 876 788 948 q 509 804 656 804 q 368 851 416 804 q 321 955 321 898 q 399 1123 321 1054 q 602 1192 477 1192 m 684 1022 q 655 1072 684 1051 q 587 1092 627 1092 q 461 1055 497 1092 q 425 975 425 1017 q 459 925 425 947 q 536 904 492 904 q 651 941 618 904 q 684 1022 684 978 z "},"¸":{"ha":772,"x_min":212,"x_max":563,"o":"m 371 -301 q 256 -276 301 -301 q 212 -212 212 -251 q 265 -165 212 -165 q 318 -182 280 -165 q 380 -199 355 -199 q 456 -126 456 -199 q 424 -63 456 -92 q 342 -24 391 -35 q 305 17 305 -15 q 361 78 305 78 q 501 21 439 78 q 563 -106 563 -37 q 518 -241 563 -180 q 371 -301 474 -301 z "},"˝":{"ha":772,"x_min":275,"x_max":800,"o":"m 371 960 l 493 1064 q 534 1082 513 1082 q 566 1068 553 1082 q 578 1038 578 1055 q 555 994 578 1018 q 460 909 532 969 q 360 822 400 860 q 318 803 340 803 q 275 846 275 803 q 371 960 275 874 m 768 965 l 653 869 q 545 803 573 803 q 514 817 526 803 q 502 847 502 830 q 529 895 502 874 l 644 990 q 758 1061 730 1061 q 800 1019 800 1061 q 768 965 800 990 z "},"˛":{"ha":772,"x_min":174,"x_max":519,"o":"m 302 -127 q 355 -189 302 -189 q 449 -172 405 -189 q 477 -164 467 -164 q 519 -210 519 -164 q 466 -273 519 -248 q 330 -298 413 -298 q 214 -262 254 -298 q 174 -163 174 -227 q 248 0 174 -71 q 370 72 321 72 q 415 35 415 72 q 407 8 415 20 q 360 -35 399 -3 q 302 -127 302 -82 z "},"ˇ":{"ha":772,"x_min":356,"x_max":805,"o":"m 726 1055 q 761 1069 745 1069 q 792 1056 779 1069 q 805 1025 805 1043 q 797 996 805 1007 q 706 920 788 984 q 582 826 624 855 q 529 798 540 798 q 489 822 507 798 l 461 865 l 396 956 q 356 1045 356 1011 q 374 1085 356 1067 q 416 1103 393 1103 q 456 1076 444 1103 q 555 922 471 1040 l 726 1055 z "},"Ł":{"ha":765,"x_min":20,"x_max":798,"o":"m 195 403 q 77 342 102 342 q 36 359 52 342 q 20 401 20 376 q 61 465 20 439 l 229 575 l 298 977 q 326 1025 302 1004 q 376 1046 349 1046 q 419 1029 404 1046 q 434 988 434 1013 q 382 668 434 968 q 507 721 481 721 q 548 703 532 721 q 563 661 563 686 q 513 590 563 616 q 351 505 416 548 l 350 505 l 304 279 l 278 175 q 258 77 272 151 q 721 160 435 75 q 742 163 732 163 q 783 145 768 163 q 798 104 798 127 q 752 32 798 61 q 529 -30 707 3 q 240 -62 351 -62 q 146 -41 173 -62 q 119 27 119 -20 q 122 62 119 43 l 195 403 z "},"ł":{"ha":315,"x_min":34,"x_max":516,"o":"m 335 463 l 266 92 q 246 15 254 33 q 220 -15 237 -4 q 178 -26 203 -26 q 121 26 121 -26 q 168 289 121 37 q 182 354 180 338 q 85 314 111 314 q 48 331 62 314 q 34 370 34 347 q 78 435 34 414 q 214 518 140 465 l 217 536 q 281 912 238 650 l 300 1019 q 327 1079 307 1063 q 376 1095 346 1095 q 436 1042 436 1095 q 392 781 436 1033 l 367 647 l 408 690 q 460 713 429 713 q 500 696 484 713 q 516 656 516 679 q 335 463 516 609 z "},"Š":{"ha":963,"x_min":102,"x_max":1037,"o":"m 183 233 q 236 196 217 233 q 283 127 263 144 q 346 98 303 109 q 447 87 389 87 q 686 153 579 87 q 792 317 792 219 q 718 429 792 387 q 520 476 644 472 q 337 527 403 482 q 271 650 271 572 q 426 887 271 780 q 730 994 582 994 q 891 968 808 994 q 973 902 973 941 q 957 860 973 881 q 903 839 940 839 q 810 852 872 839 q 717 867 745 867 q 508 807 593 867 q 422 679 422 747 q 469 622 422 641 q 654 591 515 604 q 861 514 787 582 q 935 349 935 447 q 783 73 935 185 q 426 -39 631 -39 q 198 13 294 -39 q 102 148 102 64 q 127 213 102 193 q 183 233 152 233 m 958 1361 q 993 1375 977 1375 q 1024 1362 1011 1375 q 1037 1331 1037 1349 q 1028 1301 1037 1313 q 938 1225 1020 1290 q 814 1132 856 1161 q 761 1103 772 1103 q 721 1128 739 1103 l 693 1171 l 628 1261 q 588 1351 588 1317 q 606 1391 588 1373 q 648 1409 625 1409 q 688 1382 676 1409 q 787 1228 703 1346 l 958 1361 z "},"š":{"ha":676,"x_min":31,"x_max":742,"o":"m 570 621 q 503 602 544 613 q 334 539 382 570 q 279 465 286 508 q 317 456 296 459 q 548 370 476 427 q 619 216 619 313 q 528 27 619 94 q 285 -40 436 -40 q 109 -6 186 -40 q 31 82 31 28 q 57 138 31 114 q 113 163 83 163 q 161 131 133 163 q 224 106 176 116 q 306 96 273 96 q 484 191 484 96 q 372 297 484 268 l 304 313 q 172 370 199 337 q 146 444 146 403 q 178 562 146 505 q 268 652 210 618 q 450 720 326 686 q 585 762 548 745 q 648 775 612 775 q 705 720 705 775 l 701 671 l 703 625 q 678 543 704 563 q 624 522 652 522 q 579 542 589 522 q 570 621 570 561 m 663 1055 q 698 1069 682 1069 q 729 1056 716 1069 q 742 1025 742 1043 q 733 996 742 1007 q 643 920 725 984 q 519 826 561 855 q 466 798 477 798 q 426 822 444 798 l 398 865 l 333 956 q 293 1045 293 1011 q 311 1085 293 1067 q 353 1103 330 1103 q 393 1076 381 1103 q 492 922 408 1040 l 663 1055 z "},"Ž":{"ha":963,"x_min":39,"x_max":1079,"o":"m 881 786 q 553 481 766 715 l 220 86 l 485 96 q 750 104 731 104 q 892 93 855 104 q 930 50 930 82 q 905 -8 930 12 q 846 -29 881 -29 q 787 -26 826 -29 l 753 -25 l 109 -35 q 39 18 39 -35 q 100 146 39 68 l 488 587 q 820 899 651 774 l 579 885 l 304 885 l 254 884 q 214 898 229 884 q 199 937 199 911 q 221 998 199 972 q 322 1023 243 1023 q 460 1014 382 1023 q 599 1004 541 1004 q 755 1010 671 1004 q 913 1017 861 1017 q 1079 958 1079 1017 q 982 848 1079 913 l 881 786 m 890 1428 q 925 1442 909 1442 q 956 1429 943 1442 q 969 1398 969 1415 q 961 1368 969 1379 q 870 1292 952 1356 q 746 1199 788 1227 q 693 1170 704 1170 q 653 1194 671 1170 l 625 1238 l 560 1328 q 520 1417 520 1383 q 538 1457 520 1440 q 581 1475 557 1475 q 620 1449 608 1475 q 720 1295 635 1413 l 890 1428 z "},"ž":{"ha":747,"x_min":75,"x_max":803,"o":"m 348 113 q 473 115 420 115 q 549 104 499 115 q 627 94 597 94 q 685 39 685 94 q 663 -17 685 7 q 606 -41 641 -41 q 529 -32 573 -41 q 451 -22 484 -22 q 158 -50 304 -22 q 132 -53 143 -53 q 75 -7 75 -53 q 120 71 75 35 q 583 570 325 233 q 452 564 493 564 q 312 571 400 564 q 211 595 224 578 q 197 632 197 611 q 220 691 197 665 q 275 717 242 717 q 373 708 313 717 q 473 700 441 700 q 612 707 519 700 q 752 714 719 714 q 803 677 803 714 q 733 549 803 619 q 544 339 658 473 q 348 113 393 157 m 713 1055 q 748 1069 732 1069 q 779 1056 766 1069 q 792 1025 792 1043 q 784 996 792 1007 q 693 920 775 984 q 569 826 611 855 q 516 798 527 798 q 476 822 494 798 l 448 865 l 383 956 q 343 1045 343 1011 q 361 1085 343 1067 q 404 1103 380 1103 q 443 1076 431 1103 q 543 922 458 1040 l 713 1055 z "},"¦":{"ha":562,"x_min":227,"x_max":503,"o":"m 494 1099 l 420 644 q 360 595 414 595 q 319 638 319 595 q 340 772 319 646 l 379 1004 q 402 1122 396 1109 q 421 1143 408 1135 q 453 1150 434 1150 q 494 1099 503 1150 m 270 -29 q 227 8 227 -29 q 238 96 227 14 q 250 200 244 140 q 289 436 273 387 q 346 486 304 486 q 388 448 388 486 q 385 423 388 439 q 351 200 369 357 q 328 16 337 62 q 270 -29 319 -29 z "},"Ð":{"ha":1002,"x_min":33,"x_max":991,"o":"m 189 -4 l 182 -4 q 122 47 122 -4 q 155 235 122 77 l 190 404 l 123 401 q 33 457 33 401 q 54 513 33 492 q 97 536 75 534 q 212 539 119 539 l 241 753 l 273 966 q 311 1026 278 996 q 373 1055 343 1055 q 475 1011 387 1055 q 586 954 578 956 q 881 753 771 882 q 991 472 991 624 q 931 235 991 355 q 749 24 871 115 q 406 -66 628 -66 q 284 -48 348 -66 q 189 -4 220 -31 m 348 539 q 434 532 372 539 q 523 526 483 526 q 583 474 583 526 q 559 417 583 441 q 503 393 536 393 q 414 399 460 393 q 326 404 365 404 l 271 118 q 427 69 354 69 q 670 122 589 69 q 801 266 751 176 q 852 448 852 356 q 775 648 852 553 q 397 878 699 743 l 348 539 z "},"ð":{"ha":707,"x_min":117,"x_max":743,"o":"m 353 920 q 322 975 322 950 q 344 1021 322 998 q 393 1043 366 1043 q 517 925 436 1043 q 688 986 647 986 q 743 935 743 986 q 715 885 743 903 l 669 860 l 579 821 q 694 438 694 604 q 597 125 694 277 q 331 -28 500 -28 q 179 43 240 -28 q 117 199 117 115 q 234 467 117 340 q 524 627 351 593 q 471 765 506 689 l 384 718 q 296 681 314 681 q 259 698 273 681 q 244 739 244 715 q 258 778 244 759 q 406 868 271 797 l 353 920 m 553 518 l 507 505 q 292 371 342 462 q 241 221 241 281 q 271 134 241 176 q 351 93 301 93 q 516 205 462 93 q 570 391 570 317 q 553 518 570 428 z "},"Ý":{"ha":882,"x_min":169,"x_max":982,"o":"m 453 318 q 334 566 354 475 q 261 749 315 643 q 197 878 224 821 q 169 954 169 936 q 194 1007 169 983 q 250 1032 220 1032 q 301 1000 282 1032 l 343 916 q 435 724 413 774 q 469 615 456 673 q 541 463 481 564 l 755 840 l 828 950 q 881 1019 865 1007 q 922 1031 896 1031 q 965 1014 947 1031 q 982 974 982 998 q 905 835 982 942 q 873 787 891 814 l 713 500 q 539 216 654 394 l 431 65 l 383 -8 q 317 -47 357 -47 q 274 -31 292 -47 q 257 9 257 -14 q 343 165 257 37 l 453 318 m 582 1227 q 610 1278 582 1253 q 717 1386 645 1307 q 795 1458 747 1421 q 870 1496 842 1496 q 906 1480 890 1496 q 922 1443 922 1465 q 888 1385 922 1409 q 781 1288 827 1343 q 633 1173 680 1173 q 597 1188 612 1173 q 582 1227 582 1204 z "},"Þ":{"ha":723,"x_min":71,"x_max":786,"o":"m 366 916 l 479 921 q 687 853 589 926 q 786 661 786 779 q 652 376 786 496 q 325 256 517 256 q 235 265 292 256 l 199 49 q 173 1 194 18 q 127 -17 153 -17 q 85 2 99 -17 q 75 49 71 20 l 107 248 q 164 528 125 358 q 222 810 166 536 l 236 903 q 267 1011 246 972 q 331 1051 287 1051 q 378 995 378 1051 q 367 929 378 962 l 366 916 m 345 793 l 260 396 q 345 383 324 383 q 570 459 480 383 q 659 633 659 535 q 595 745 659 697 q 443 793 530 793 l 345 793 z "},"þ":{"ha":743,"x_min":41,"x_max":744,"o":"m 232 -1 l 179 -326 q 103 -395 168 -395 q 57 -375 73 -395 q 46 -326 41 -356 l 135 215 q 167 486 153 326 q 232 945 201 877 q 313 1013 262 1013 q 353 995 338 1013 q 364 949 368 977 l 310 619 q 539 700 438 700 q 744 444 744 700 q 640 103 744 229 q 378 -24 536 -24 q 232 -1 309 -24 m 298 464 q 257 142 289 363 q 399 113 322 113 q 554 194 498 113 q 609 421 609 275 q 518 564 609 564 q 425 547 471 564 q 298 464 378 530 z "},"−":{"ha":667,"x_min":90,"x_max":679,"o":"m 578 500 q 679 446 679 500 q 659 396 679 419 q 610 374 639 374 q 573 378 601 374 q 372 375 555 381 q 186 371 249 371 q 90 423 90 371 q 114 477 90 463 q 205 492 138 492 q 324 496 245 492 q 446 500 406 500 q 483 496 450 500 q 559 499 494 495 q 578 500 571 500 z "},"¹":{"ha":904,"x_min":203,"x_max":584,"o":"m 349 660 l 397 968 q 311 939 345 939 q 268 973 268 939 q 317 1036 268 1022 q 347 1053 325 1040 q 484 1128 469 1128 q 517 1099 517 1128 q 511 1046 517 1080 l 450 660 l 481 661 q 561 658 538 664 q 584 629 584 652 q 566 590 584 610 q 524 571 547 571 l 248 571 q 216 584 228 571 q 203 614 203 597 q 239 659 203 651 l 255 660 l 349 660 z "},"²":{"ha":904,"x_min":178,"x_max":620,"o":"m 300 661 l 414 659 q 479 664 441 658 q 546 671 526 671 q 587 629 587 671 q 396 557 587 557 l 367 557 q 326 558 349 557 l 287 559 q 222 565 237 562 q 193 582 208 568 q 178 618 178 595 q 432 871 178 719 q 511 982 511 916 q 439 1051 511 1051 q 332 971 380 1051 q 286 943 311 943 q 241 982 241 943 q 312 1092 241 1040 q 468 1145 383 1145 q 577 1102 534 1145 q 620 998 620 1059 q 421 758 620 863 q 300 661 353 721 z "},"³":{"ha":904,"x_min":179,"x_max":605,"o":"m 495 868 q 597 755 597 842 q 523 608 597 665 q 336 551 449 551 q 179 612 179 551 q 195 653 179 631 q 231 675 210 675 q 248 671 235 675 q 352 654 298 654 q 484 748 484 654 q 468 791 484 782 q 370 810 451 800 q 338 840 338 816 q 355 884 338 869 q 419 909 372 898 q 494 994 494 928 q 421 1038 494 1038 q 317 1022 370 1038 q 302 1019 308 1019 q 265 1050 265 1019 q 321 1123 265 1107 q 444 1140 377 1140 q 553 1111 501 1140 q 605 1014 605 1082 q 495 868 605 913 z "},"½":{"ha":904,"x_min":173,"x_max":884,"o":"m 514 701 l 564 1010 q 477 981 510 981 q 435 1014 435 981 q 482 1078 435 1064 q 570 1129 494 1082 q 650 1169 632 1169 q 683 1133 683 1169 q 677 1083 683 1119 l 615 701 l 648 703 q 727 700 705 705 q 749 673 749 694 q 731 631 749 650 q 689 612 713 612 l 412 612 q 370 655 370 612 q 404 700 370 692 l 420 701 l 514 701 m 732 493 q 862 482 840 490 q 884 446 884 474 q 824 386 884 386 l 685 393 q 403 401 533 401 q 310 399 372 401 l 256 397 q 188 404 203 396 q 173 437 173 412 q 233 498 173 498 l 272 498 l 420 503 l 732 493 m 346 -139 l 458 -142 q 525 -135 478 -142 q 592 -127 576 -127 q 633 -171 633 -127 q 441 -243 633 -243 l 412 -243 q 372 -241 395 -243 l 292 -239 q 256 -230 272 -237 q 232 -211 241 -222 q 224 -184 224 -199 q 246 -107 224 -155 q 321 -18 268 -60 l 468 72 q 555 174 555 125 q 534 215 555 193 q 494 237 513 237 q 417 210 448 237 l 376 158 q 330 129 353 129 q 284 170 284 129 q 356 279 284 227 q 511 330 428 330 q 615 287 571 330 q 659 189 659 243 q 620 67 659 123 q 469 -49 581 10 q 346 -139 389 -92 z "},"¼":{"ha":904,"x_min":171,"x_max":883,"o":"m 513 701 l 563 1010 q 475 981 509 981 q 433 1014 433 981 q 481 1078 433 1064 q 568 1129 493 1082 q 649 1169 631 1169 q 682 1140 682 1169 q 677 1088 682 1122 l 614 701 l 646 703 q 726 700 704 705 q 748 673 748 694 q 730 631 748 650 q 688 612 711 612 l 411 612 q 369 655 369 612 q 403 700 369 692 l 419 701 l 513 701 m 730 493 q 861 482 839 490 q 883 446 883 474 q 823 386 883 386 l 684 393 q 401 401 532 401 q 309 399 371 401 l 255 397 q 187 404 202 396 q 172 437 172 412 q 232 498 172 498 l 271 498 l 418 503 l 730 493 m 549 9 l 588 11 q 666 -31 666 14 q 616 -71 666 -71 q 576 -68 602 -71 l 538 -64 l 521 -180 q 461 -232 513 -232 q 420 -180 412 -232 l 437 -65 l 217 -77 q 171 -37 171 -79 q 212 37 171 3 q 436 258 257 78 q 512 328 492 315 q 562 340 533 340 q 594 328 581 340 q 608 297 608 315 q 582 227 608 286 q 576 207 577 215 l 549 9 m 452 12 l 477 165 l 317 12 q 366 16 344 16 l 452 12 z "},"¾":{"ha":904,"x_min":171,"x_max":884,"o":"m 711 892 q 755 785 755 856 q 681 628 755 677 q 505 579 606 579 q 374 637 374 579 q 393 680 374 661 q 433 699 412 699 q 468 690 441 699 q 519 682 499 682 q 598 693 566 682 q 642 718 631 704 q 653 762 653 731 q 620 819 653 806 l 542 829 q 505 867 505 834 q 586 933 505 912 q 667 1002 667 955 q 571 1051 667 1051 q 543 1046 565 1051 q 511 1040 519 1040 q 476 1071 476 1040 q 510 1131 476 1108 q 588 1154 544 1154 q 719 1118 669 1154 q 769 1021 769 1082 q 711 892 769 941 m 823 386 l 684 393 q 401 401 532 401 q 309 399 371 401 l 255 397 q 187 404 202 396 q 172 437 172 412 q 232 498 172 498 l 271 498 l 418 503 q 730 493 575 503 q 778 491 750 492 q 867 481 850 488 q 884 448 884 473 q 823 386 884 386 m 549 9 l 581 11 q 666 -31 666 14 q 616 -71 666 -71 q 576 -68 602 -71 q 538 -64 547 -64 l 521 -180 q 461 -232 513 -232 q 420 -180 412 -232 l 437 -65 l 217 -77 q 171 -37 171 -79 q 212 37 171 5 q 356 172 279 92 l 493 314 q 562 340 519 340 q 608 297 608 340 q 593 254 608 289 q 576 207 578 221 l 549 9 m 452 12 l 477 165 l 317 12 q 366 16 344 16 l 452 12 z "},"ý":{"ha":723,"x_min":102,"x_max":808,"o":"m 479 97 q 296 -212 348 -116 l 231 -345 q 163 -393 207 -393 q 120 -378 137 -393 q 102 -338 102 -363 q 311 65 102 -276 l 142 532 l 119 582 q 109 624 109 605 q 135 680 109 656 q 191 704 161 704 q 230 688 212 704 q 304 535 248 671 q 410 225 361 399 l 547 458 q 638 601 582 517 q 712 694 694 684 q 747 705 730 705 q 790 688 773 705 q 808 648 808 671 q 795 606 808 629 l 479 97 m 363 861 q 391 911 363 886 q 498 1019 426 940 q 576 1092 528 1054 q 651 1129 623 1129 q 687 1114 671 1129 q 703 1076 703 1098 q 669 1018 703 1042 q 562 921 608 976 q 414 806 461 806 q 378 821 393 806 q 363 861 363 837 z "},"×":{"ha":667,"x_min":129,"x_max":673,"o":"m 471 433 q 596 252 596 322 q 575 199 596 225 q 526 174 553 174 q 435 262 479 174 q 381 326 422 292 q 245 179 265 208 q 189 151 224 151 q 146 166 163 151 q 129 203 129 180 q 177 294 129 249 q 227 342 211 326 q 245 359 243 358 q 288 415 247 363 q 161 546 209 508 q 136 589 136 563 q 161 646 136 621 q 215 671 186 671 q 385 524 262 671 q 515 633 449 589 q 557 665 539 650 q 612 692 584 692 q 655 674 637 692 q 673 633 673 656 q 655 588 673 609 q 572 521 636 566 q 471 433 528 490 z "},"₣":{"ha":1374,"x_min":111,"x_max":1417,"o":"m 401 901 l 353 608 q 556 643 490 643 q 710 637 618 643 q 813 613 802 631 q 823 577 823 596 q 800 516 823 541 q 744 492 777 492 q 638 497 696 492 q 534 503 583 503 q 327 464 484 503 l 248 -3 q 220 -53 243 -33 q 169 -72 197 -72 q 126 -55 142 -72 q 111 -14 111 -39 q 140 164 111 3 l 220 625 q 263 889 252 808 q 271 942 267 920 l 276 979 q 303 1030 281 1010 q 355 1050 324 1050 q 393 1038 377 1050 q 666 1067 555 1067 q 862 1039 760 1067 q 965 969 965 1011 q 942 918 965 943 q 887 892 919 892 q 862 897 873 892 q 644 928 784 928 q 401 901 553 928 m 1405 501 q 1381 446 1402 475 q 1323 416 1360 416 q 1274 465 1274 416 l 1278 501 q 1280 530 1278 513 l 1287 587 q 984 395 1085 567 l 927 24 q 849 -46 916 -46 q 801 24 791 -46 l 876 498 q 914 672 899 644 q 970 701 929 701 q 1024 627 1024 701 q 1021 589 1024 610 q 1330 715 1169 715 q 1417 608 1417 715 q 1412 549 1417 582 l 1405 501 z "},"Ğ":{"ha":944,"x_min":45,"x_max":1025,"o":"m 895 410 q 666 79 821 206 q 328 -47 511 -47 q 45 220 45 -47 q 104 508 45 348 q 269 799 163 668 q 466 998 374 930 q 650 1065 558 1065 q 812 1022 711 1065 q 913 927 913 979 q 889 871 913 897 q 833 846 865 846 q 793 863 818 846 q 627 926 702 926 q 356 700 530 926 q 182 239 182 474 q 224 122 182 153 q 350 92 266 92 q 580 175 475 92 q 740 401 686 258 q 407 329 551 391 q 375 321 389 321 q 335 339 351 321 q 319 381 319 357 q 365 453 319 422 q 538 514 410 484 q 883 543 667 543 q 927 527 910 543 q 944 486 944 510 q 895 410 944 432 m 981 1358 q 1025 1318 1025 1358 q 927 1172 1025 1238 q 677 1106 830 1106 q 528 1162 589 1106 q 467 1294 467 1217 q 527 1383 467 1383 q 572 1345 572 1383 l 570 1314 q 606 1237 570 1267 q 692 1207 642 1207 q 924 1316 876 1207 q 981 1358 943 1358 z "},"ğ":{"ha":737,"x_min":-16,"x_max":848,"o":"m 691 292 l 612 -49 q 575 -158 597 -104 q 521 -254 553 -212 q 447 -323 489 -295 q 347 -366 406 -351 q 208 -382 288 -382 q -16 -309 -16 -382 q -1 -262 -16 -286 q 52 -239 14 -239 q 85 -242 64 -239 q 245 -261 187 -261 q 430 -177 364 -261 q 532 118 495 -93 q 308 -17 433 -17 q 135 48 199 -17 q 72 218 72 113 q 198 547 72 399 q 544 694 324 694 q 704 629 671 694 q 766 570 766 627 q 705 341 766 536 q 691 292 694 309 m 519 586 q 289 478 373 586 q 205 231 205 370 q 328 96 205 96 q 457 158 389 96 q 552 286 525 220 q 630 545 578 352 q 519 586 581 586 m 804 1053 q 848 1013 848 1053 q 751 866 848 932 q 500 800 654 800 q 352 856 413 800 q 290 988 290 911 q 351 1078 290 1078 q 396 1039 396 1078 l 393 1008 q 429 931 393 962 q 515 901 465 901 q 747 1010 700 901 q 804 1053 766 1053 z "},"İ":{"ha":759,"x_min":69,"x_max":863,"o":"m 566 868 q 484 438 509 621 q 435 140 446 163 l 650 143 q 691 127 676 143 q 707 87 707 111 q 684 30 707 56 q 628 4 662 4 q 514 1 591 4 l 447 0 q 262 -12 338 -2 q 127 -25 175 -25 q 85 -8 101 -25 q 69 32 69 9 q 93 90 69 64 q 150 115 117 115 q 297 129 202 115 q 344 431 318 195 q 432 873 358 564 l 254 868 q 214 883 230 867 q 197 924 197 899 q 216 982 197 960 q 271 1008 234 1004 q 478 1013 309 1013 q 688 1000 572 1013 q 823 982 804 987 q 852 964 842 977 q 863 928 863 951 q 837 866 863 888 q 781 844 811 844 q 673 854 733 844 l 566 868 m 560 1109 q 509 1139 539 1109 q 479 1190 479 1169 q 507 1236 479 1213 q 562 1259 535 1259 q 612 1227 583 1259 q 642 1177 642 1195 q 614 1131 642 1153 q 560 1109 587 1109 z "},"Ş":{"ha":963,"x_min":102,"x_max":973,"o":"m 183 233 q 236 196 217 233 q 283 127 263 144 q 346 98 303 109 q 447 87 389 87 q 686 153 579 87 q 792 317 792 219 q 718 429 792 387 q 520 476 644 472 q 337 527 403 482 q 271 650 271 572 q 426 887 271 780 q 730 994 582 994 q 891 968 808 994 q 973 902 973 941 q 957 860 973 881 q 903 839 940 839 q 810 852 872 839 q 717 867 745 867 q 508 807 593 867 q 422 679 422 747 q 469 622 422 641 q 654 591 515 604 q 861 514 787 582 q 935 349 935 447 q 783 73 935 185 q 426 -39 631 -39 q 198 13 294 -39 q 102 148 102 64 q 127 213 102 193 q 183 233 152 233 m 371 -301 q 256 -276 301 -301 q 212 -212 212 -251 q 265 -165 212 -165 q 318 -182 280 -165 q 380 -199 355 -199 q 456 -126 456 -199 q 424 -63 456 -92 q 342 -24 391 -35 q 305 17 305 -15 q 361 78 305 78 q 501 21 439 78 q 563 -106 563 -37 q 518 -241 563 -180 q 371 -301 474 -301 z "},"ş":{"ha":676,"x_min":31,"x_max":705,"o":"m 570 621 q 503 602 544 613 q 334 539 382 570 q 279 465 286 508 q 317 456 296 459 q 548 370 476 427 q 619 216 619 313 q 528 27 619 94 q 285 -40 436 -40 q 109 -6 186 -40 q 31 82 31 28 q 57 138 31 114 q 113 163 83 163 q 161 131 133 163 q 224 106 176 116 q 306 96 273 96 q 484 191 484 96 q 372 297 484 268 l 304 313 q 172 370 199 337 q 146 444 146 403 q 178 562 146 505 q 268 652 210 618 q 450 720 326 686 q 585 762 548 745 q 648 775 612 775 q 705 720 705 775 l 701 671 l 703 625 q 678 543 704 563 q 624 522 652 522 q 579 542 589 522 q 570 621 570 561 m 215 -301 q 100 -276 145 -301 q 56 -212 56 -251 q 109 -165 56 -165 q 162 -182 124 -165 q 224 -199 199 -199 q 300 -126 300 -199 q 268 -63 300 -92 q 186 -24 235 -35 q 149 17 149 -15 q 205 78 149 78 q 345 21 283 78 q 407 -106 407 -37 q 362 -241 407 -180 q 215 -301 318 -301 z "},"Ć":{"ha":837,"x_min":102,"x_max":958,"o":"m 836 999 q 902 1034 865 1034 q 953 954 953 1034 q 928 800 953 839 q 862 761 904 761 q 805 811 819 761 q 774 867 791 862 q 709 872 758 872 q 415 665 590 872 q 241 298 241 458 q 286 176 241 229 q 404 122 330 122 q 520 145 463 122 q 684 239 576 168 q 747 267 728 267 q 789 249 772 267 q 806 206 806 231 q 792 165 806 186 q 696 90 779 144 q 535 9 613 36 q 382 -17 457 -17 q 180 70 258 -17 q 102 275 102 157 q 322 752 102 492 q 731 1011 543 1011 q 836 999 806 1011 m 618 1166 q 647 1217 618 1192 q 753 1325 682 1246 q 831 1397 784 1360 q 907 1435 879 1435 q 943 1419 927 1435 q 958 1382 958 1404 q 924 1324 958 1348 q 818 1227 864 1282 q 670 1112 717 1112 q 634 1127 649 1112 q 618 1166 618 1143 z "},"ć":{"ha":713,"x_min":91,"x_max":762,"o":"m 486 107 l 570 149 q 602 160 594 160 q 638 144 624 160 q 653 104 653 127 q 544 3 653 49 q 376 -43 435 -43 q 168 31 244 -43 q 91 214 91 104 q 223 547 91 372 q 487 721 355 721 q 640 686 561 721 q 720 602 720 651 q 698 550 720 574 q 650 526 677 526 q 594 559 623 526 q 467 593 564 593 q 305 462 395 593 q 214 237 214 331 q 263 128 214 171 q 395 85 311 85 q 486 107 437 85 m 422 861 q 451 911 422 886 q 557 1019 486 940 q 635 1092 588 1054 q 711 1129 683 1129 q 747 1114 731 1129 q 762 1076 762 1098 q 728 1018 762 1042 q 622 921 668 976 q 474 806 521 806 q 438 821 453 806 q 422 861 422 837 z "},"Č":{"ha":837,"x_min":102,"x_max":996,"o":"m 836 999 q 902 1034 865 1034 q 953 954 953 1034 q 928 800 953 839 q 862 761 904 761 q 805 811 819 761 q 774 867 791 862 q 709 872 758 872 q 415 665 590 872 q 241 298 241 458 q 286 176 241 229 q 404 122 330 122 q 520 145 463 122 q 684 239 576 168 q 747 267 728 267 q 789 249 772 267 q 806 206 806 231 q 792 165 806 186 q 696 90 779 144 q 535 9 613 36 q 382 -17 457 -17 q 180 70 258 -17 q 102 275 102 157 q 322 752 102 492 q 731 1011 543 1011 q 836 999 806 1011 m 917 1361 q 951 1375 935 1375 q 983 1362 970 1375 q 996 1331 996 1349 q 987 1301 996 1313 q 897 1225 979 1290 q 772 1132 814 1161 q 720 1103 730 1103 q 680 1128 698 1103 l 652 1171 l 587 1261 q 547 1351 547 1317 q 565 1391 547 1373 q 607 1409 583 1409 q 646 1382 635 1409 q 746 1228 662 1346 l 917 1361 z "},"č":{"ha":837,"x_min":91,"x_max":805,"o":"m 486 107 l 570 149 q 602 160 594 160 q 638 144 624 160 q 653 104 653 127 q 544 3 653 49 q 376 -43 435 -43 q 168 31 244 -43 q 91 214 91 104 q 223 547 91 372 q 487 721 355 721 q 640 686 561 721 q 720 602 720 651 q 698 550 720 574 q 650 526 677 526 q 594 559 623 526 q 467 593 564 593 q 305 462 395 593 q 214 237 214 331 q 263 128 214 171 q 395 85 311 85 q 486 107 437 85 m 726 1055 q 761 1069 745 1069 q 792 1056 779 1069 q 805 1025 805 1043 q 797 996 805 1007 q 706 920 788 984 q 582 826 624 855 q 529 798 540 798 q 489 822 507 798 l 461 865 l 396 956 q 356 1045 356 1011 q 374 1085 356 1067 q 416 1103 393 1103 q 456 1076 444 1103 q 555 922 471 1040 l 726 1055 z "},"đ":{"ha":837,"x_min":94,"x_max":945,"o":"m 595 41 q 373 -31 488 -31 q 169 48 244 -31 q 94 242 94 126 q 210 564 94 420 q 507 707 326 707 q 681 636 617 707 l 713 804 l 514 804 q 474 849 474 804 q 495 897 474 883 q 574 911 516 911 q 654 908 600 911 q 735 905 706 905 q 779 1052 759 1023 q 837 1080 800 1080 q 888 1034 888 1080 q 866 908 888 1013 l 899 908 q 945 870 945 908 q 844 804 945 804 l 842 804 q 795 599 821 708 q 742 312 764 472 q 722 58 720 152 l 722 50 q 700 4 722 27 q 646 -20 678 -20 q 595 41 605 -20 m 600 196 l 616 313 l 644 471 q 491 581 610 581 q 281 480 346 581 q 217 275 217 379 q 266 151 217 204 q 393 97 315 97 q 476 111 442 97 q 577 174 511 125 l 600 196 z "},"μ":{"ha":722,"x_min":50,"x_max":762,"o":"m 196 -9 q 189 -159 194 -45 q 103 -272 184 -272 q 50 -204 50 -272 q 54 -160 50 -185 l 115 175 l 122 299 q 137 439 126 368 q 171 590 147 509 q 204 689 194 671 q 231 715 215 706 q 267 724 246 724 q 310 709 294 724 q 326 671 326 694 q 299 554 326 646 q 262 381 277 487 q 248 197 248 275 q 252 129 248 157 q 334 104 293 104 q 532 134 425 104 l 571 403 q 604 580 582 477 q 648 701 626 682 q 701 720 671 720 q 747 701 731 720 q 757 653 762 682 l 705 396 q 682 250 701 376 l 659 103 q 654 58 657 93 q 644 -8 650 7 q 618 -39 637 -24 q 571 -54 599 -54 q 515 9 519 -54 q 313 -33 424 -33 q 196 -9 248 -33 z "},"Ω":{"ha":1333,"x_min":35,"x_max":1315,"o":"m 352 72 q 341 112 349 85 q 280 429 280 315 q 327 689 280 583 q 481 891 374 794 q 734 1047 588 989 q 1016 1105 881 1105 q 1241 1038 1168 1105 q 1315 823 1315 970 q 960 64 1315 409 q 1242 49 1200 64 q 1284 1 1284 35 q 1261 -58 1284 -34 q 1206 -82 1238 -82 q 1091 -77 1153 -82 q 973 -71 1021 -71 l 947 -71 l 849 -74 q 801 -45 822 -74 q 780 14 780 -16 q 866 147 780 60 l 980 260 q 1064 385 1011 291 q 1151 612 1118 479 q 1183 811 1183 745 q 994 971 1183 971 q 617 841 817 971 q 418 474 418 711 q 437 287 418 399 q 499 85 457 175 q 511 43 511 60 q 497 -9 511 16 q 461 -44 483 -35 q 296 -74 439 -53 q 91 -94 152 -94 q 50 -78 64 -94 q 35 -38 35 -62 q 50 8 35 -13 q 102 39 66 30 q 352 72 138 48 z "},"∆":{"ha":1103,"x_min":60,"x_max":1085,"o":"m 821 1060 l 849 953 l 963 572 q 1039 289 994 470 q 1085 47 1085 108 q 966 -49 1085 -49 q 850 -41 926 -49 l 735 -29 q 582 -24 684 -24 l 519 -24 q 432 -25 482 -24 l 344 -26 q 195 -31 227 -28 q 107 -36 149 -36 q 60 1 60 -36 q 179 222 60 33 l 323 452 l 546 848 l 628 999 q 698 1101 669 1075 q 755 1128 726 1128 q 821 1060 798 1128 m 954 85 q 848 496 916 277 l 721 900 q 473 452 568 615 l 371 278 q 261 109 315 183 l 604 111 q 954 85 726 112 z "},"­":{"ha":578,"x_min":123,"x_max":565,"o":"m 172 313 q 123 351 123 313 q 189 418 123 418 q 351 422 256 418 q 513 428 437 428 q 565 387 565 428 q 522 326 565 339 q 172 313 478 313 z "},"¯":{"ha":871,"x_min":317,"x_max":787,"o":"m 576 905 l 610 905 q 660 907 631 905 l 708 908 q 772 902 757 909 q 787 871 787 894 q 735 808 787 818 l 659 804 l 513 804 l 359 808 q 317 846 317 808 q 339 898 317 885 q 417 911 362 911 q 496 908 444 911 q 576 905 551 905 z "},"Ă":{"ha":1016,"x_min":94,"x_max":1099,"o":"m 755 353 q 570 319 681 344 l 383 282 q 216 11 243 37 q 154 -16 189 -16 q 112 1 129 -16 q 94 41 94 18 q 237 300 94 77 q 230 330 230 313 q 309 411 230 394 q 578 772 396 541 q 799 1003 761 1003 q 860 928 852 1003 l 865 700 l 893 229 l 914 121 q 923 56 923 77 q 898 3 923 26 q 842 -21 873 -21 q 777 69 798 -21 q 755 353 757 159 m 733 754 l 489 441 q 747 493 556 459 l 733 754 m 1055 1358 q 1099 1318 1099 1358 q 1001 1172 1099 1238 q 751 1106 904 1106 q 602 1162 663 1106 q 541 1294 541 1217 q 601 1383 541 1383 q 646 1345 646 1383 l 644 1314 q 680 1237 644 1267 q 766 1207 715 1207 q 998 1316 950 1207 q 1055 1358 1017 1358 z "},"ă":{"ha":711,"x_min":56,"x_max":802,"o":"m 518 35 q 309 -36 372 -36 q 56 205 56 -36 q 198 569 56 430 q 509 708 340 708 q 645 674 575 708 q 715 596 715 641 q 697 553 715 568 q 659 400 684 526 q 634 218 634 273 q 669 29 634 149 l 672 18 q 597 -45 657 -45 q 559 -17 587 -45 q 518 35 531 10 m 568 562 q 500 587 525 587 q 289 485 387 587 q 191 231 191 383 q 319 82 191 82 q 509 157 420 82 q 568 562 520 441 m 758 1053 q 802 1013 802 1053 q 704 866 802 932 q 454 800 607 800 q 305 856 366 800 q 243 988 243 911 q 304 1078 243 1078 q 349 1039 349 1078 l 347 1008 q 382 931 347 962 q 469 901 418 901 q 701 1010 653 901 q 758 1053 720 1053 z "},"Ą":{"ha":1016,"x_min":94,"x_max":1027,"o":"m 755 353 q 570 319 681 344 l 383 282 q 216 11 243 37 q 154 -16 189 -16 q 112 1 129 -16 q 94 41 94 18 q 237 300 94 77 q 230 330 230 313 q 309 411 230 394 q 578 772 396 541 q 799 1003 761 1003 q 860 928 852 1003 l 865 700 l 893 229 l 914 121 q 923 56 923 77 q 898 3 923 26 q 842 -21 873 -21 q 777 69 798 -21 q 755 353 757 159 m 733 754 l 489 441 q 747 493 556 459 l 733 754 m 810 -127 q 864 -189 810 -189 q 958 -172 913 -189 q 985 -164 975 -164 q 1027 -210 1027 -164 q 975 -273 1027 -248 q 838 -298 922 -298 q 723 -262 763 -298 q 683 -163 683 -227 q 756 0 683 -71 q 878 72 830 72 q 924 35 924 72 q 916 8 924 20 q 869 -35 908 -3 q 810 -127 810 -82 z "},"ą":{"ha":711,"x_min":56,"x_max":743,"o":"m 518 35 q 309 -36 372 -36 q 56 205 56 -36 q 198 569 56 430 q 509 708 340 708 q 645 674 575 708 q 715 596 715 641 q 697 553 715 568 q 659 400 684 526 q 634 218 634 273 q 669 29 634 149 l 672 18 q 597 -45 657 -45 q 559 -17 587 -45 q 518 35 531 10 m 568 562 q 500 587 525 587 q 289 485 387 587 q 191 231 191 383 q 319 82 191 82 q 509 157 420 82 q 568 562 520 441 m 526 -163 q 579 -224 526 -224 q 673 -208 629 -224 q 701 -199 690 -199 q 743 -245 743 -199 q 690 -308 743 -283 q 553 -334 637 -334 q 438 -298 478 -334 q 398 -199 398 -262 q 472 -35 398 -106 q 593 37 545 37 q 639 0 639 37 q 631 -27 639 -16 q 584 -71 623 -39 q 526 -163 526 -117 z "},"Ď":{"ha":1002,"x_min":129,"x_max":998,"o":"m 195 -4 l 189 -4 q 145 13 161 -4 q 129 53 129 29 q 146 155 129 69 l 194 401 q 266 868 210 486 l 279 962 q 318 1026 284 997 q 380 1055 351 1055 q 481 1010 395 1055 q 593 954 576 959 q 884 757 770 889 q 998 471 998 625 q 915 196 998 330 q 714 -3 831 61 q 413 -66 596 -66 q 292 -48 359 -66 q 195 -4 225 -31 m 404 878 l 347 489 l 277 118 q 282 115 279 117 q 434 69 346 69 q 690 132 608 69 q 815 278 772 194 q 859 449 859 362 q 810 610 859 536 q 680 735 762 684 q 404 878 597 785 m 814 1361 q 848 1375 832 1375 q 880 1362 867 1375 q 892 1331 892 1349 q 884 1301 892 1313 q 793 1225 876 1290 q 669 1132 711 1161 q 616 1103 627 1103 q 576 1128 595 1103 l 549 1171 l 484 1261 q 444 1351 444 1317 q 462 1391 444 1373 q 504 1409 480 1409 q 543 1382 532 1409 q 643 1228 559 1346 l 814 1361 z "},"ď":{"ha":1152,"x_min":94,"x_max":1139,"o":"m 1010 916 q 963 989 963 945 q 994 1059 963 1029 q 1065 1088 1024 1088 q 1139 1009 1139 1088 q 1084 842 1139 935 q 972 749 1029 749 q 930 787 930 749 q 955 840 930 810 q 971 860 963 850 q 988 879 979 869 q 1010 916 998 892 m 595 41 q 373 -31 488 -31 q 169 48 244 -31 q 94 242 94 126 q 210 564 94 420 q 507 707 326 707 q 681 636 617 707 q 764 1020 744 960 q 837 1080 783 1080 q 888 1034 888 1080 q 795 599 888 987 q 741 302 761 457 q 722 58 720 146 l 722 50 q 700 4 722 27 q 646 -20 678 -20 q 595 41 605 -20 m 600 196 l 616 313 l 644 471 q 491 581 610 581 q 281 480 346 581 q 217 275 217 379 q 266 151 217 204 q 393 97 315 97 q 600 196 498 97 z "},"Đ":{"ha":1002,"x_min":33,"x_max":991,"o":"m 189 -4 l 182 -4 q 122 47 122 -4 q 155 235 122 77 l 190 404 l 123 401 q 33 457 33 401 q 54 513 33 492 q 97 536 75 534 q 212 539 119 539 l 241 753 l 273 966 q 311 1026 278 996 q 373 1055 343 1055 q 475 1011 387 1055 q 586 954 578 956 q 881 753 771 882 q 991 472 991 624 q 931 235 991 355 q 749 24 871 115 q 406 -66 628 -66 q 284 -48 348 -66 q 189 -4 220 -31 m 348 539 q 434 532 372 539 q 523 526 483 526 q 583 474 583 526 q 559 417 583 441 q 503 393 536 393 q 414 399 460 393 q 326 404 365 404 l 271 118 q 427 69 354 69 q 670 122 589 69 q 801 266 751 176 q 852 448 852 356 q 775 648 852 553 q 397 878 699 743 l 348 539 z "},"Ę":{"ha":867,"x_min":119,"x_max":975,"o":"m 391 907 q 332 578 391 842 l 635 607 q 796 619 762 619 q 857 563 857 619 q 782 481 857 490 l 300 437 q 254 135 254 227 q 272 82 254 94 q 366 71 289 71 l 620 77 q 683 83 629 77 q 762 31 762 94 q 713 -49 762 -31 q 415 -66 664 -66 q 171 -26 222 -66 q 119 123 119 14 q 172 472 119 243 q 169 496 169 488 q 191 547 169 526 q 242 799 232 735 q 253 909 253 862 q 276 1033 258 1000 q 339 1065 294 1065 q 386 1044 368 1065 q 682 1089 559 1089 q 862 1072 786 1089 q 956 1038 938 1055 q 975 996 975 1021 q 950 938 975 963 q 896 913 926 913 q 875 917 888 913 q 660 949 762 949 q 391 907 547 949 m 545 -174 q 598 -236 545 -236 q 692 -219 648 -236 q 720 -211 709 -211 q 762 -256 762 -211 q 709 -320 762 -294 q 572 -345 656 -345 q 457 -309 497 -345 q 417 -210 417 -273 q 491 -46 417 -118 q 612 25 564 25 q 658 -12 658 25 q 650 -39 658 -27 q 603 -82 642 -50 q 545 -174 545 -129 z "},"ę":{"ha":761,"x_min":78,"x_max":738,"o":"m 197 204 q 406 92 256 92 q 531 113 458 92 q 630 168 604 135 q 686 204 658 204 q 723 189 708 204 q 738 153 738 174 q 620 27 738 84 q 386 -31 501 -31 q 159 38 241 -31 q 78 221 78 106 q 191 548 78 388 q 484 708 304 708 q 667 668 604 708 q 730 555 730 628 q 689 451 730 494 q 600 385 648 408 q 475 328 552 361 l 197 204 m 205 329 l 427 429 q 619 532 568 493 q 465 586 570 586 q 205 329 298 586 m 470 -130 q 524 -191 470 -191 q 617 -174 573 -191 q 645 -166 635 -166 q 687 -212 687 -166 q 634 -275 687 -250 q 498 -300 581 -300 q 382 -264 422 -300 q 342 -165 342 -229 q 416 -2 342 -73 q 538 70 490 70 q 583 33 583 70 q 575 6 583 18 q 528 -37 568 -5 q 470 -130 470 -84 z "},"Ě":{"ha":867,"x_min":119,"x_max":975,"o":"m 391 907 q 332 578 391 842 l 635 607 q 796 619 762 619 q 857 563 857 619 q 782 481 857 490 l 300 437 q 254 135 254 227 q 272 82 254 94 q 366 71 289 71 l 620 77 q 683 83 629 77 q 762 31 762 94 q 713 -49 762 -31 q 415 -66 664 -66 q 171 -26 222 -66 q 119 123 119 14 q 172 472 119 243 q 169 496 169 488 q 191 547 169 526 q 242 799 232 735 q 253 909 253 862 q 276 1033 258 1000 q 339 1065 294 1065 q 386 1044 368 1065 q 682 1089 559 1089 q 862 1072 786 1089 q 956 1038 938 1055 q 975 996 975 1021 q 950 938 975 963 q 896 913 926 913 q 875 917 888 913 q 660 949 762 949 q 391 907 547 949 m 872 1380 q 907 1394 890 1394 q 938 1381 925 1394 q 951 1350 951 1368 q 942 1320 951 1332 q 852 1244 934 1309 q 728 1151 770 1180 q 675 1122 686 1122 q 635 1147 653 1122 l 607 1190 l 542 1280 q 502 1370 502 1336 q 520 1410 502 1392 q 562 1428 538 1428 q 602 1401 590 1428 q 701 1247 617 1365 l 872 1380 z "},"ě":{"ha":761,"x_min":78,"x_max":805,"o":"m 197 204 q 406 92 256 92 q 531 113 458 92 q 630 168 604 135 q 686 204 658 204 q 723 189 708 204 q 738 153 738 174 q 620 27 738 84 q 386 -31 501 -31 q 159 38 241 -31 q 78 221 78 106 q 191 548 78 388 q 484 708 304 708 q 667 668 604 708 q 730 555 730 628 q 689 451 730 494 q 600 385 648 408 q 475 328 552 361 l 197 204 m 205 329 l 427 429 q 619 532 568 493 q 465 586 570 586 q 205 329 298 586 m 726 1055 q 761 1069 745 1069 q 792 1056 779 1069 q 805 1025 805 1043 q 797 996 805 1007 q 706 920 788 984 q 582 826 624 855 q 529 798 540 798 q 489 822 507 798 l 461 865 l 396 956 q 356 1045 356 1011 q 374 1085 356 1067 q 416 1103 393 1103 q 456 1076 444 1103 q 555 922 471 1040 l 726 1055 z "},"Ĺ":{"ha":765,"x_min":65,"x_max":795,"o":"m 204 77 q 667 160 382 75 q 688 163 677 163 q 744 104 744 163 q 699 33 744 62 q 475 -30 654 3 q 186 -62 296 -62 q 91 -40 117 -62 q 65 26 65 -18 q 68 62 65 43 l 117 288 q 245 977 188 620 q 272 1026 249 1006 q 322 1046 294 1046 q 380 989 380 1046 q 337 726 380 970 q 250 279 294 481 l 224 175 q 214 123 220 162 q 204 77 209 98 m 456 1166 q 484 1217 456 1192 q 591 1325 519 1246 q 669 1397 621 1360 q 744 1435 716 1435 q 780 1419 764 1435 q 795 1382 795 1404 q 762 1324 795 1348 q 655 1227 701 1282 q 507 1112 554 1112 q 471 1127 486 1112 q 456 1166 456 1143 z "},"ĺ":{"ha":380,"x_min":113,"x_max":672,"o":"m 341 533 l 258 90 q 238 12 247 31 q 213 -18 230 -7 q 170 -29 195 -29 q 113 23 113 -29 q 134 142 113 39 l 208 533 l 292 1017 q 320 1078 299 1065 q 369 1092 342 1092 q 427 1042 427 1092 q 361 648 427 1013 q 341 533 349 587 m 332 1200 q 361 1250 332 1225 q 467 1358 395 1279 q 545 1431 498 1393 q 621 1468 593 1468 q 656 1453 641 1468 q 672 1415 672 1437 q 638 1357 672 1381 q 532 1260 578 1315 q 384 1145 431 1145 q 348 1160 363 1145 q 332 1200 332 1176 z "},"Ľ":{"ha":765,"x_min":65,"x_max":758,"o":"m 204 77 q 667 160 382 75 q 688 163 677 163 q 744 104 744 163 q 699 33 744 62 q 475 -30 654 3 q 186 -62 296 -62 q 91 -40 117 -62 q 65 26 65 -18 q 68 62 65 43 l 117 288 q 245 977 188 620 q 272 1026 249 1006 q 322 1046 294 1046 q 380 989 380 1046 q 337 726 380 970 q 250 279 294 481 l 224 175 q 214 123 220 162 q 204 77 209 98 m 628 868 q 581 944 581 899 q 611 1010 581 981 q 684 1040 641 1040 q 758 965 758 1040 q 703 795 758 889 q 591 701 648 701 q 549 737 549 701 q 558 772 549 756 q 606 832 568 789 q 628 868 620 847 z "},"ľ":{"ha":645,"x_min":113,"x_max":671,"o":"m 341 533 l 258 90 q 238 12 247 31 q 213 -18 230 -7 q 170 -29 195 -29 q 113 23 113 -29 q 134 142 113 39 l 208 533 l 292 1017 q 320 1078 299 1065 q 369 1092 342 1092 q 427 1042 427 1092 q 361 648 427 1013 q 341 533 349 587 m 543 916 q 495 989 495 945 q 526 1059 495 1029 q 598 1088 557 1088 q 671 1010 671 1088 q 617 842 671 935 q 505 749 563 749 q 463 787 463 749 q 487 840 463 810 q 503 860 496 850 q 520 879 511 869 q 543 916 530 889 z "},"Ŀ":{"ha":765,"x_min":65,"x_max":744,"o":"m 204 77 q 667 160 382 75 q 688 163 677 163 q 744 104 744 163 q 699 33 744 62 q 475 -30 654 3 q 186 -62 296 -62 q 91 -40 117 -62 q 65 26 65 -18 q 68 62 65 43 l 117 288 q 245 977 188 620 q 272 1026 249 1006 q 322 1046 294 1046 q 380 989 380 1046 q 337 726 380 970 q 250 279 294 481 l 224 175 q 214 123 220 162 q 204 77 209 98 m 607 401 q 557 422 577 401 q 536 473 536 443 q 566 541 536 511 q 633 570 596 570 q 686 549 665 570 q 707 498 707 528 q 675 431 707 461 q 607 401 644 401 z "},"ŀ":{"ha":549,"x_min":113,"x_max":618,"o":"m 341 533 l 258 90 q 238 12 247 31 q 213 -18 230 -7 q 170 -29 195 -29 q 113 23 113 -29 q 134 142 113 39 l 208 533 l 292 1017 q 320 1078 299 1065 q 369 1092 342 1092 q 427 1042 427 1092 q 361 648 427 1013 q 341 533 349 587 m 519 401 q 469 422 489 401 q 448 473 448 443 q 478 541 448 511 q 545 570 508 570 q 597 549 576 570 q 618 498 618 528 q 587 431 618 461 q 519 401 556 401 z "},"Ń":{"ha":1107,"x_min":87,"x_max":1165,"o":"m 357 777 l 304 467 q 266 200 288 375 q 155 -54 233 -54 q 105 -34 122 -54 q 87 9 87 -14 q 106 106 87 33 q 142 287 112 127 q 179 500 172 446 l 201 659 q 220 842 217 770 l 231 958 q 268 1025 235 999 q 333 1051 301 1051 q 410 974 368 1051 q 940 174 660 477 q 954 260 945 192 l 989 518 q 1009 692 1001 604 q 1017 818 1017 781 q 1009 890 1017 836 q 1006 940 1006 923 q 1091 1040 1006 1040 q 1165 865 1165 1040 q 1134 566 1165 747 l 1076 223 q 1029 18 1049 62 q 952 -26 1008 -26 q 870 22 922 -26 q 674 272 819 71 q 357 777 528 474 m 611 1166 q 640 1217 611 1192 q 746 1325 674 1246 q 824 1397 777 1360 q 899 1435 871 1435 q 935 1419 920 1435 q 951 1382 951 1404 q 917 1324 951 1348 q 810 1227 857 1282 q 663 1112 709 1112 q 626 1127 642 1112 q 611 1166 611 1143 z "},"ń":{"ha":727,"x_min":93,"x_max":750,"o":"m 322 574 q 581 725 459 725 q 727 543 727 725 q 720 440 727 498 l 697 310 q 688 164 688 258 q 669 -13 688 24 q 602 -49 650 -49 q 546 16 542 -49 l 550 164 q 566 316 551 224 q 591 441 581 409 q 597 513 597 484 q 558 587 597 587 q 376 470 469 587 q 262 260 283 353 q 253 224 258 243 q 236 132 239 177 l 229 47 q 204 -11 226 10 q 150 -32 182 -32 q 93 21 93 -32 l 103 132 q 146 351 107 198 q 193 610 184 509 l 199 667 q 225 720 203 699 q 279 741 248 741 q 334 653 342 741 l 322 574 m 410 861 q 439 911 410 886 q 545 1019 473 940 q 623 1092 576 1054 q 699 1129 671 1129 q 734 1114 719 1129 q 750 1076 750 1098 q 716 1018 750 1042 q 610 921 656 976 q 462 806 509 806 q 426 821 441 806 q 410 861 410 837 z "},"Ň":{"ha":1107,"x_min":87,"x_max":1165,"o":"m 357 777 l 304 467 q 266 200 288 375 q 155 -54 233 -54 q 105 -34 122 -54 q 87 9 87 -14 q 106 106 87 33 q 142 287 112 127 q 179 500 172 446 l 201 659 q 220 842 217 770 l 231 958 q 268 1025 235 999 q 333 1051 301 1051 q 410 974 368 1051 q 940 174 660 477 q 954 260 945 192 l 989 518 q 1009 692 1001 604 q 1017 818 1017 781 q 1009 890 1017 836 q 1006 940 1006 923 q 1091 1040 1006 1040 q 1165 865 1165 1040 q 1134 566 1165 747 l 1076 223 q 1029 18 1049 62 q 952 -26 1008 -26 q 870 22 922 -26 q 674 272 819 71 q 357 777 528 474 m 929 1361 q 964 1375 947 1375 q 995 1362 982 1375 q 1008 1331 1008 1349 q 999 1301 1008 1313 q 909 1225 991 1290 q 785 1132 827 1161 q 732 1103 743 1103 q 692 1128 710 1103 l 664 1171 l 599 1261 q 559 1351 559 1317 q 577 1391 559 1373 q 619 1409 595 1409 q 659 1382 647 1409 q 758 1228 674 1346 l 929 1361 z "},"ň":{"ha":727,"x_min":93,"x_max":813,"o":"m 322 574 q 581 725 459 725 q 727 543 727 725 q 720 440 727 498 l 697 310 q 688 164 688 258 q 669 -13 688 24 q 602 -49 650 -49 q 546 16 542 -49 l 550 164 q 566 316 551 224 q 591 441 581 409 q 597 513 597 484 q 558 587 597 587 q 376 470 469 587 q 262 260 283 353 q 253 224 258 243 q 236 132 239 177 l 229 47 q 204 -11 226 10 q 150 -32 182 -32 q 93 21 93 -32 l 103 132 q 146 351 107 198 q 193 610 184 509 l 199 667 q 225 720 203 699 q 279 741 248 741 q 334 653 342 741 l 322 574 m 734 1055 q 769 1069 753 1069 q 800 1056 787 1069 q 813 1025 813 1043 q 805 996 813 1007 q 714 920 796 984 q 590 826 632 855 q 537 798 548 798 q 497 822 515 798 l 469 865 l 404 956 q 364 1045 364 1011 q 382 1085 364 1067 q 425 1103 401 1103 q 464 1076 452 1103 q 564 922 479 1040 l 734 1055 z "},"Ő":{"ha":1109,"x_min":109,"x_max":1153,"o":"m 109 312 q 183 606 109 441 q 410 899 257 770 q 743 1028 562 1028 q 1128 707 1128 1028 q 946 201 1128 444 q 513 -41 763 -41 q 221 59 333 -41 q 109 312 109 160 m 249 336 q 329 163 249 230 q 534 97 409 97 q 851 289 714 97 q 988 685 988 480 q 923 845 988 800 q 721 889 857 889 q 393 700 538 889 q 249 336 249 511 m 724 1265 l 846 1370 q 886 1388 866 1388 q 918 1374 905 1388 q 931 1343 931 1360 q 908 1299 931 1324 q 812 1215 885 1275 q 713 1128 753 1166 q 671 1109 692 1109 q 627 1152 627 1109 q 724 1265 627 1180 m 1121 1271 l 1006 1175 q 897 1109 926 1109 q 867 1122 879 1109 q 854 1153 854 1136 q 882 1200 854 1180 l 997 1296 q 1111 1367 1083 1367 q 1153 1324 1153 1367 q 1121 1271 1153 1296 z "},"ő":{"ha":730,"x_min":82,"x_max":833,"o":"m 82 232 q 199 557 82 412 q 494 703 315 703 q 649 631 595 703 q 703 442 703 560 q 595 104 703 249 q 326 -40 486 -40 q 149 38 215 -40 q 82 232 82 116 m 458 566 q 284 461 352 566 q 216 250 216 356 q 253 138 216 179 q 348 97 290 97 q 506 178 437 97 q 574 419 574 260 q 462 566 574 566 l 458 566 m 404 960 l 526 1064 q 567 1082 547 1082 q 599 1068 586 1082 q 612 1038 612 1055 q 589 994 612 1018 q 493 909 566 969 q 393 822 433 860 q 351 803 373 803 q 308 846 308 803 q 404 960 308 874 m 802 965 l 686 869 q 578 803 606 803 q 547 817 559 803 q 535 847 535 830 q 562 895 535 874 l 677 990 q 791 1061 764 1061 q 833 1019 833 1061 q 802 965 833 990 z "},"Ŕ":{"ha":873,"x_min":93,"x_max":882,"o":"m 267 346 l 249 179 l 231 46 q 205 -2 227 20 q 151 -24 183 -24 q 109 -7 125 -24 q 93 33 93 10 l 114 205 q 178 551 136 400 q 231 839 223 710 q 244 959 236 927 q 281 1017 252 990 q 349 1042 311 1044 l 511 1029 q 758 916 635 1020 q 882 677 882 811 q 553 347 882 447 q 754 200 667 282 q 842 73 842 117 q 818 18 842 43 q 761 -7 793 -7 q 715 14 736 -7 q 267 346 492 279 m 372 897 l 361 766 q 351 700 359 743 q 326 599 342 657 l 290 463 l 350 463 q 646 525 548 463 q 744 652 744 587 q 659 806 744 734 q 471 889 574 878 l 372 897 m 481 1200 q 509 1250 481 1225 q 616 1358 544 1279 q 694 1431 646 1393 q 769 1468 741 1468 q 805 1453 789 1468 q 821 1415 821 1437 q 787 1357 821 1381 q 680 1260 726 1315 q 532 1145 579 1145 q 496 1160 511 1145 q 481 1200 481 1176 z "},"ŕ":{"ha":667,"x_min":87,"x_max":721,"o":"m 701 501 q 676 445 697 474 q 619 416 656 416 q 571 465 571 416 l 574 501 q 576 530 574 513 l 583 587 q 281 395 380 566 l 224 24 q 146 -46 213 -46 q 97 24 87 -46 l 172 498 q 215 681 198 661 q 267 701 233 701 q 321 625 321 701 q 318 589 321 609 q 627 715 465 715 q 713 609 713 715 q 708 549 713 582 l 701 501 m 381 861 q 410 911 381 886 q 516 1019 444 940 q 594 1092 547 1054 q 669 1129 642 1129 q 705 1114 690 1129 q 721 1076 721 1098 q 687 1018 721 1042 q 581 921 627 976 q 433 806 479 806 q 396 821 412 806 q 381 861 381 837 z "},"Ř":{"ha":873,"x_min":93,"x_max":882,"o":"m 267 346 l 249 179 l 231 46 q 205 -2 227 20 q 151 -24 183 -24 q 109 -7 125 -24 q 93 33 93 10 l 114 205 q 178 551 136 400 q 231 839 223 710 q 244 959 236 927 q 281 1017 252 990 q 349 1042 311 1044 l 511 1029 q 758 916 635 1020 q 882 677 882 811 q 553 347 882 447 q 754 200 667 282 q 842 73 842 117 q 818 18 842 43 q 761 -7 793 -7 q 715 14 736 -7 q 267 346 492 279 m 372 897 l 361 766 q 351 700 359 743 q 326 599 342 657 l 290 463 l 350 463 q 646 525 548 463 q 744 652 744 587 q 659 806 744 734 q 471 889 574 878 l 372 897 m 760 1361 q 794 1375 778 1375 q 825 1362 812 1375 q 838 1331 838 1349 q 830 1301 838 1313 q 739 1225 821 1290 q 615 1132 657 1161 q 562 1103 573 1103 q 522 1128 541 1103 l 494 1171 l 429 1261 q 389 1351 389 1317 q 408 1391 389 1373 q 450 1409 426 1409 q 489 1382 477 1409 q 589 1228 505 1346 l 760 1361 z "},"ř":{"ha":667,"x_min":87,"x_max":738,"o":"m 701 501 q 676 445 697 474 q 619 416 656 416 q 571 465 571 416 l 574 501 q 576 530 574 513 l 583 587 q 281 395 380 566 l 224 24 q 146 -46 213 -46 q 97 24 87 -46 l 172 498 q 215 681 198 661 q 267 701 233 701 q 321 625 321 701 q 318 589 321 609 q 627 715 465 715 q 713 609 713 715 q 708 549 713 582 l 701 501 m 659 1055 q 694 1069 677 1069 q 725 1056 712 1069 q 738 1025 738 1043 q 729 996 738 1007 q 639 920 721 984 q 515 826 557 855 q 462 798 473 798 q 422 822 440 798 l 394 865 l 329 956 q 289 1045 289 1011 q 307 1085 289 1067 q 349 1103 326 1103 q 389 1076 377 1103 q 488 922 404 1040 l 659 1055 z "},"Ś":{"ha":963,"x_min":102,"x_max":973,"o":"m 183 233 q 236 196 217 233 q 283 127 263 144 q 346 98 303 109 q 447 87 389 87 q 686 153 579 87 q 792 317 792 219 q 718 429 792 387 q 520 476 644 472 q 337 527 403 482 q 271 650 271 572 q 426 887 271 780 q 730 994 582 994 q 891 968 808 994 q 973 902 973 941 q 957 860 973 881 q 903 839 940 839 q 810 852 872 839 q 717 867 745 867 q 508 807 593 867 q 422 679 422 747 q 469 622 422 641 q 654 591 515 604 q 861 514 787 582 q 935 349 935 447 q 783 73 935 185 q 426 -39 631 -39 q 198 13 294 -39 q 102 148 102 64 q 127 213 102 193 q 183 233 152 233 m 597 1166 q 626 1217 597 1192 q 732 1325 661 1246 q 810 1397 763 1360 q 886 1435 858 1435 q 922 1419 906 1435 q 937 1382 937 1404 q 903 1324 937 1348 q 797 1227 843 1282 q 649 1112 696 1112 q 613 1127 628 1112 q 597 1166 597 1143 z "},"ś":{"ha":676,"x_min":31,"x_max":755,"o":"m 570 621 q 503 602 544 613 q 334 539 382 570 q 279 465 286 508 q 317 456 296 459 q 548 370 476 427 q 619 216 619 313 q 528 27 619 94 q 285 -40 436 -40 q 109 -6 186 -40 q 31 82 31 28 q 57 138 31 114 q 113 163 83 163 q 161 131 133 163 q 224 106 176 116 q 306 96 273 96 q 484 191 484 96 q 372 297 484 268 l 304 313 q 172 370 199 337 q 146 444 146 403 q 178 562 146 505 q 268 652 210 618 q 450 720 326 686 q 585 762 548 745 q 648 775 612 775 q 705 720 705 775 l 701 671 l 703 625 q 678 543 704 563 q 624 522 652 522 q 579 542 589 522 q 570 621 570 561 m 416 861 q 444 911 416 886 q 551 1019 479 940 q 629 1092 581 1054 q 704 1129 676 1129 q 740 1114 724 1129 q 755 1076 755 1098 q 722 1018 755 1042 q 615 921 661 976 q 467 806 514 806 q 431 821 446 806 q 416 861 416 837 z "},"Ț":{"ha":944,"x_min":155,"x_max":1070,"o":"m 993 871 l 960 871 q 838 873 891 871 l 784 875 l 708 875 q 683 873 694 875 l 635 872 q 621 749 631 825 q 602 568 610 673 q 569 262 585 354 l 562 191 q 462 -5 551 -5 q 419 11 438 -5 q 401 51 401 27 q 410 94 401 62 q 430 222 420 125 q 441 323 438 300 q 469 596 456 408 q 484 758 476 691 l 496 864 l 399 861 q 219 872 282 857 q 155 926 155 888 q 178 989 155 964 q 234 1014 201 1014 q 273 1012 245 1014 q 429 1001 389 1001 q 615 1009 501 1001 q 732 1014 682 1014 q 854 1011 778 1014 l 944 1010 q 1005 1010 973 1009 q 1054 997 1037 1010 q 1070 958 1070 983 q 1049 898 1070 924 q 993 871 1027 871 m 406 -239 q 345 -161 345 -198 q 375 -96 345 -126 q 447 -66 406 -66 q 534 -149 534 -66 q 468 -300 534 -209 q 357 -392 402 -392 q 315 -353 315 -392 q 353 -290 315 -322 q 406 -239 403 -249 z "},"ț":{"ha":654,"x_min":104,"x_max":675,"o":"m 428 574 q 407 498 420 541 q 350 211 350 310 q 404 94 350 94 q 484 127 458 94 q 549 174 519 174 q 592 157 571 174 q 612 113 612 140 q 537 11 612 53 q 389 -32 463 -32 q 214 186 214 -32 q 267 477 214 305 q 294 568 281 523 q 126 593 147 576 q 104 647 104 610 q 125 697 104 677 q 180 717 145 717 l 321 705 q 327 746 325 723 q 332 798 328 769 l 343 882 q 369 928 347 909 q 419 947 390 947 q 476 856 476 947 q 468 787 476 829 l 454 705 q 551 717 545 717 q 648 703 622 717 q 675 652 675 689 q 652 598 675 618 q 597 578 629 578 l 530 581 q 428 574 480 581 m 254 -239 q 194 -161 194 -198 q 224 -96 194 -126 q 296 -66 254 -66 q 383 -149 383 -66 q 317 -300 383 -209 q 205 -392 251 -392 q 163 -353 163 -392 q 202 -290 163 -322 q 254 -239 252 -249 z "},"Ť":{"ha":944,"x_min":155,"x_max":1070,"o":"m 993 871 l 960 871 q 838 873 891 871 l 784 875 l 708 875 q 683 873 694 875 l 635 872 q 621 749 631 825 q 602 568 610 673 q 569 262 585 354 l 562 191 q 462 -5 551 -5 q 419 11 438 -5 q 401 51 401 27 q 410 94 401 62 q 430 222 420 125 q 441 323 438 300 q 469 596 456 408 q 484 758 476 691 l 496 864 l 399 861 q 219 872 282 857 q 155 926 155 888 q 178 989 155 964 q 234 1014 201 1014 q 273 1012 245 1014 q 429 1001 389 1001 q 615 1009 501 1001 q 732 1014 682 1014 q 854 1011 778 1014 l 944 1010 q 1005 1010 973 1009 q 1054 997 1037 1010 q 1070 958 1070 983 q 1049 898 1070 924 q 993 871 1027 871 m 803 1394 q 838 1409 821 1409 q 869 1395 856 1409 q 882 1364 882 1382 q 873 1335 882 1346 q 783 1259 865 1323 q 659 1165 701 1194 q 606 1137 616 1137 q 566 1161 584 1137 l 538 1204 l 473 1295 q 433 1384 433 1350 q 451 1424 433 1407 q 493 1442 469 1442 q 532 1415 521 1442 q 632 1261 548 1379 l 803 1394 z "},"ť":{"ha":888,"x_min":136,"x_max":808,"o":"m 680 977 q 632 1050 632 1007 q 662 1120 632 1090 q 733 1149 692 1149 q 808 1069 808 1149 q 753 902 808 995 q 642 810 698 810 q 600 848 600 810 q 624 901 600 871 q 640 921 632 911 q 657 940 648 930 q 680 977 667 953 m 471 571 l 415 140 l 411 106 q 317 -43 393 -43 q 274 -28 290 -43 q 258 8 258 -14 q 263 51 258 9 q 280 141 266 74 q 286 174 284 160 l 336 570 q 164 586 192 578 q 136 633 136 594 q 158 691 136 666 q 214 717 180 717 l 354 705 q 372 848 358 727 q 397 924 378 901 q 456 947 416 947 q 511 865 511 947 q 501 787 511 836 l 488 705 q 585 717 578 717 q 685 706 661 717 q 709 661 709 695 q 686 602 709 625 q 631 578 663 578 l 564 581 q 471 571 538 581 z "},"Ů":{"ha":1023,"x_min":155,"x_max":1070,"o":"m 366 901 l 304 503 q 292 365 292 426 q 526 92 292 92 q 907 783 795 92 l 926 904 q 1015 1019 946 1019 q 1070 958 1070 1019 q 1067 926 1070 943 l 1041 758 q 511 -28 920 -28 q 243 60 332 -28 q 155 349 155 149 q 192 679 155 429 q 257 972 230 930 q 321 1015 284 1015 q 370 947 370 1015 q 366 901 370 927 m 751 1497 q 886 1453 836 1497 q 937 1343 937 1409 q 870 1182 937 1254 q 658 1110 804 1110 q 517 1157 564 1110 q 469 1261 469 1204 q 547 1429 469 1360 q 751 1497 625 1497 m 833 1328 q 804 1377 833 1357 q 736 1398 775 1398 q 610 1360 646 1398 q 574 1280 574 1323 q 607 1231 574 1253 q 684 1210 641 1210 q 800 1247 767 1210 q 833 1328 833 1284 z "},"ů":{"ha":722,"x_min":119,"x_max":766,"o":"m 708 396 l 684 249 q 658 58 661 107 q 648 -7 654 8 q 621 -38 642 -22 q 574 -54 600 -54 q 519 9 523 -54 q 316 -33 427 -33 q 170 8 222 -33 q 119 127 119 50 q 129 345 119 228 q 169 575 139 463 q 219 705 199 687 q 270 724 240 724 q 313 709 297 724 q 330 671 330 694 q 302 557 330 649 q 266 380 280 486 q 251 197 251 274 q 255 129 251 157 q 337 104 294 104 q 536 134 428 104 l 574 403 q 603 557 580 438 q 648 698 625 676 q 705 720 671 720 q 750 701 734 720 q 760 653 766 682 l 708 396 m 570 1192 q 705 1147 654 1192 q 755 1038 755 1103 q 689 876 755 948 q 477 804 623 804 q 336 851 383 804 q 288 955 288 898 q 366 1123 288 1054 q 570 1192 444 1192 m 652 1022 q 623 1072 652 1051 q 555 1092 594 1092 q 429 1055 465 1092 q 393 975 393 1017 q 426 925 393 947 q 503 904 460 904 q 619 941 586 904 q 652 1022 652 978 z "},"Ű":{"ha":1023,"x_min":155,"x_max":1070,"o":"m 366 901 l 304 503 q 292 365 292 426 q 526 92 292 92 q 907 783 795 92 l 926 904 q 1015 1019 946 1019 q 1070 958 1070 1019 q 1067 926 1070 943 l 1041 758 q 511 -28 920 -28 q 243 60 332 -28 q 155 349 155 149 q 192 679 155 429 q 257 972 230 930 q 321 1015 284 1015 q 370 947 370 1015 q 366 901 370 927 m 614 1265 l 736 1370 q 777 1388 756 1388 q 808 1374 795 1388 q 821 1343 821 1360 q 798 1299 821 1324 q 703 1215 775 1275 q 603 1128 643 1166 q 561 1109 583 1109 q 517 1152 517 1109 q 614 1265 517 1180 m 1011 1271 l 896 1175 q 787 1109 816 1109 q 757 1122 769 1109 q 745 1153 745 1136 q 772 1200 745 1180 l 887 1296 q 1001 1367 973 1367 q 1043 1324 1043 1367 q 1011 1271 1043 1296 z "},"ű":{"ha":722,"x_min":119,"x_max":854,"o":"m 708 396 l 684 249 q 658 58 661 107 q 648 -7 654 8 q 621 -38 642 -22 q 574 -54 600 -54 q 519 9 523 -54 q 316 -33 427 -33 q 170 8 222 -33 q 119 127 119 50 q 129 345 119 228 q 169 575 139 463 q 219 705 199 687 q 270 724 240 724 q 313 709 297 724 q 330 671 330 694 q 302 557 330 649 q 266 380 280 486 q 251 197 251 274 q 255 129 251 157 q 337 104 294 104 q 536 134 428 104 l 574 403 q 603 557 580 438 q 648 698 625 676 q 705 720 671 720 q 750 701 734 720 q 760 653 766 682 l 708 396 m 425 960 l 547 1064 q 588 1082 568 1082 q 620 1068 607 1082 q 633 1038 633 1055 q 610 994 633 1018 q 514 909 587 969 q 414 822 454 860 q 372 803 394 803 q 329 846 329 803 q 425 960 329 874 m 823 965 l 707 869 q 599 803 627 803 q 568 817 581 803 q 556 847 556 830 q 583 895 556 874 l 699 990 q 812 1061 785 1061 q 854 1019 854 1061 q 823 965 854 990 z "},"Ź":{"ha":963,"x_min":39,"x_max":1079,"o":"m 881 786 q 553 481 766 715 l 220 86 l 485 96 q 750 104 731 104 q 892 93 855 104 q 930 50 930 82 q 905 -8 930 12 q 846 -29 881 -29 q 787 -26 826 -29 l 753 -25 l 109 -35 q 39 18 39 -35 q 100 146 39 68 l 488 587 q 820 899 651 774 l 579 885 l 304 885 l 254 884 q 214 898 229 884 q 199 937 199 911 q 221 998 199 972 q 322 1023 243 1023 q 460 1014 382 1023 q 599 1004 541 1004 q 755 1010 671 1004 q 913 1017 861 1017 q 1079 958 1079 1017 q 982 848 1079 913 l 881 786 m 576 1200 q 605 1250 576 1225 q 711 1358 640 1279 q 789 1431 742 1393 q 865 1468 837 1468 q 901 1453 885 1468 q 916 1415 916 1437 q 882 1357 916 1381 q 776 1260 822 1315 q 628 1145 675 1145 q 592 1160 607 1145 q 576 1200 576 1176 z "},"ź":{"ha":747,"x_min":75,"x_max":803,"o":"m 348 113 q 473 115 420 115 q 549 104 499 115 q 627 94 597 94 q 685 39 685 94 q 663 -17 685 7 q 606 -41 641 -41 q 529 -32 573 -41 q 451 -22 484 -22 q 158 -50 304 -22 q 132 -53 143 -53 q 75 -7 75 -53 q 120 71 75 35 q 583 570 325 233 q 452 564 493 564 q 312 571 400 564 q 211 595 224 578 q 197 632 197 611 q 220 691 197 665 q 275 717 242 717 q 373 708 313 717 q 473 700 441 700 q 612 707 519 700 q 752 714 719 714 q 803 677 803 714 q 733 549 803 619 q 544 339 658 473 q 348 113 393 157 m 428 861 q 456 911 428 886 q 563 1019 491 940 q 641 1092 593 1054 q 716 1129 688 1129 q 752 1114 736 1129 q 768 1076 768 1098 q 734 1018 768 1042 q 627 921 673 976 q 479 806 526 806 q 443 821 458 806 q 428 861 428 837 z "},"Ż":{"ha":963,"x_min":39,"x_max":1079,"o":"m 881 786 q 553 481 766 715 l 220 86 l 485 96 q 750 104 731 104 q 892 93 855 104 q 930 50 930 82 q 905 -8 930 12 q 846 -29 881 -29 q 787 -26 826 -29 l 753 -25 l 109 -35 q 39 18 39 -35 q 100 146 39 68 l 488 587 q 820 899 651 774 l 579 885 l 304 885 l 254 884 q 214 898 229 884 q 199 937 199 911 q 221 998 199 972 q 322 1023 243 1023 q 460 1014 382 1023 q 599 1004 541 1004 q 755 1010 671 1004 q 913 1017 861 1017 q 1079 958 1079 1017 q 982 848 1079 913 l 881 786 m 688 1109 q 637 1139 667 1109 q 607 1190 607 1169 q 635 1236 607 1213 q 690 1259 663 1259 q 740 1227 711 1259 q 770 1177 770 1195 q 742 1131 770 1153 q 688 1109 715 1109 z "},"ż":{"ha":747,"x_min":75,"x_max":803,"o":"m 348 113 q 473 115 420 115 q 549 104 499 115 q 627 94 597 94 q 685 39 685 94 q 663 -17 685 7 q 606 -41 641 -41 q 529 -32 573 -41 q 451 -22 484 -22 q 158 -50 304 -22 q 132 -53 143 -53 q 75 -7 75 -53 q 120 71 75 35 q 583 570 325 233 q 452 564 493 564 q 312 571 400 564 q 211 595 224 578 q 197 632 197 611 q 220 691 197 665 q 275 717 242 717 q 373 708 313 717 q 473 700 441 700 q 612 707 519 700 q 752 714 719 714 q 803 677 803 714 q 733 549 803 619 q 544 339 658 473 q 348 113 393 157 m 560 803 q 509 833 539 803 q 479 884 479 863 q 507 930 479 907 q 562 953 535 953 q 612 921 583 953 q 642 871 642 889 q 614 825 642 847 q 560 803 587 803 z "},"Γ":{"ha":856,"x_min":178,"x_max":952,"o":"m 408 871 q 378 568 391 736 q 345 262 360 353 l 338 191 q 237 -5 338 -5 q 194 11 211 -5 q 178 51 178 28 q 187 94 178 62 q 205 222 200 137 q 217 323 214 300 q 246 640 237 452 q 281 982 261 935 q 354 1028 301 1028 q 414 1015 414 1028 q 420 1012 414 1013 q 443 1011 427 1011 l 478 1011 q 686 1003 492 1011 q 893 996 853 996 q 936 979 919 996 q 952 937 952 962 q 927 881 952 905 q 871 857 903 857 q 668 865 825 857 q 465 871 503 873 l 408 871 z "},"Θ":{"ha":1109,"x_min":109,"x_max":1128,"o":"m 109 312 q 183 606 109 441 q 410 899 257 770 q 743 1028 562 1028 q 1128 707 1128 1028 q 946 201 1128 444 q 513 -41 763 -41 q 221 59 333 -41 q 109 312 109 160 m 249 336 q 329 163 249 230 q 534 97 409 97 q 851 289 714 97 q 988 685 988 480 q 923 845 988 800 q 721 889 857 889 q 393 700 538 889 q 249 336 249 511 m 450 456 q 401 498 401 456 q 467 561 401 561 q 628 566 534 561 q 790 571 713 571 q 842 530 842 571 q 801 469 842 481 q 450 456 760 456 z "},"Φ":{"ha":886,"x_min":111,"x_max":1008,"o":"m 433 90 q 199 181 288 102 q 111 376 111 261 q 247 706 111 535 q 576 913 384 876 l 589 974 q 670 1050 605 1050 q 726 994 726 1050 q 715 918 726 972 q 1008 662 1008 901 q 876 304 1008 471 q 573 100 743 136 l 564 43 q 480 -46 549 -46 q 420 9 420 -46 q 433 90 420 25 m 597 235 q 783 396 701 277 q 864 642 864 515 q 823 752 864 718 q 690 791 781 785 l 671 705 q 627 440 647 589 l 606 281 q 597 235 601 258 m 490 482 l 507 579 q 527 684 515 629 l 548 779 q 334 610 414 730 q 255 395 255 490 q 309 277 255 326 q 456 218 363 228 l 472 309 l 490 473 q 490 480 490 478 q 490 482 490 483 z "},"α":{"ha":740,"x_min":69,"x_max":774,"o":"m 538 143 q 430 11 492 57 q 306 -36 368 -36 q 69 206 69 -36 q 204 559 69 420 q 477 697 339 697 q 559 663 521 697 q 611 559 597 629 q 714 697 680 697 q 774 656 774 697 q 756 606 774 641 q 637 304 637 384 q 669 61 637 206 q 685 18 685 33 q 663 -21 685 2 q 610 -45 642 -45 q 578 -30 589 -45 q 553 67 567 -15 q 538 143 542 131 m 532 372 q 505 511 532 444 q 444 578 477 578 q 279 473 355 578 q 203 229 203 368 q 321 82 203 82 q 532 311 420 82 l 532 372 z "},"δ":{"ha":730,"x_min":93,"x_max":828,"o":"m 458 700 q 411 783 439 730 q 350 859 382 834 q 263 969 263 930 q 339 1026 263 1026 l 557 1031 l 567 1031 q 677 1026 602 1031 l 778 1021 q 815 1008 803 1020 q 828 975 828 997 q 805 922 828 943 q 753 900 783 900 q 627 904 677 900 q 547 908 576 908 l 505 908 q 647 676 585 827 q 709 404 709 526 q 600 100 709 241 q 336 -40 490 -40 q 160 40 227 -40 q 93 237 93 121 q 193 530 93 383 q 458 700 292 676 m 587 422 q 473 566 587 566 q 297 463 367 566 q 228 257 228 359 q 262 142 228 187 q 359 97 296 97 q 522 192 458 97 q 587 422 587 288 z "},"ε":{"ha":683,"x_min":117,"x_max":671,"o":"m 254 376 q 196 502 196 443 q 282 645 196 576 q 458 714 369 714 q 610 680 548 714 q 671 594 671 645 q 602 529 671 529 q 541 559 581 529 q 439 591 503 591 q 364 566 412 591 q 316 504 316 541 q 329 464 316 479 q 387 426 342 448 q 447 388 434 401 q 460 356 460 375 q 434 307 460 322 q 345 292 409 292 q 272 243 304 292 q 239 161 239 195 q 282 107 239 128 q 373 86 326 86 q 486 123 416 86 q 569 161 555 161 q 606 145 592 161 q 620 106 620 128 q 532 12 620 58 q 355 -35 444 -35 q 182 13 248 -35 q 117 137 117 61 q 148 262 117 193 q 254 376 178 330 z "},"σ":{"ha":730,"x_min":81,"x_max":882,"o":"m 686 579 q 716 404 716 527 q 603 67 716 174 q 311 -40 490 -40 q 148 38 214 -40 q 81 227 81 116 q 133 411 81 311 q 282 587 184 510 q 481 684 379 663 q 777 705 583 705 q 882 650 882 705 q 863 596 882 621 q 806 572 844 572 q 686 579 780 572 m 555 574 q 372 504 450 562 q 257 384 294 446 q 220 243 220 321 q 349 89 220 89 q 512 152 441 89 q 582 406 582 216 q 568 490 582 465 q 548 540 548 526 q 555 574 548 561 z "},"τ":{"ha":654,"x_min":142,"x_max":715,"o":"m 472 578 q 440 429 449 459 q 413 250 413 333 q 436 151 413 188 q 498 114 458 114 q 579 71 579 114 q 564 12 579 47 q 498 -24 549 -24 q 276 222 276 -24 q 334 576 276 312 q 171 593 199 583 q 142 633 142 604 q 164 691 142 665 q 220 717 186 717 q 290 711 252 717 q 360 705 332 705 l 389 705 q 424 714 405 714 q 458 705 444 714 l 493 705 l 557 713 q 620 717 591 717 q 696 704 677 717 q 715 664 715 691 q 623 586 715 586 q 472 578 529 586 z "},"φ":{"ha":854,"x_min":92,"x_max":918,"o":"m 502 -29 q 453 -240 469 -209 q 392 -271 436 -271 q 351 -254 366 -271 q 339 -212 335 -237 l 355 -149 q 382 -25 372 -87 q 92 227 92 -23 q 157 489 92 334 q 309 644 222 644 q 345 608 345 644 q 298 490 345 562 q 239 341 256 427 q 222 233 222 255 q 268 134 222 171 q 399 97 314 97 q 424 298 413 232 q 431 357 427 318 q 513 622 449 546 q 692 699 577 699 q 865 596 813 699 q 918 381 918 494 q 502 -29 918 8 m 518 92 q 780 341 780 116 q 754 493 780 407 q 661 579 728 579 q 555 389 578 579 l 518 92 z "},"‗":{"ha":871,"x_min":-82,"x_max":890,"o":"m 633 -165 q 489 -163 585 -165 q 345 -160 393 -160 l 43 -160 l -49 -165 l -29 -40 l 54 -40 q 172 -39 104 -40 l 376 -39 q 519 -41 426 -39 q 661 -46 602 -46 l 890 -40 l 871 -165 l 633 -165 m 600 -370 q 457 -367 553 -370 q 313 -364 361 -364 l 11 -364 l -82 -370 l -61 -244 l 23 -244 q 140 -243 73 -244 l 345 -243 q 486 -245 394 -243 q 629 -250 570 -250 l 859 -244 l 838 -370 l 600 -370 z "},"‼":{"ha":625,"x_min":85,"x_max":691,"o":"m 264 273 q 194 212 255 212 q 142 257 142 212 l 148 308 q 169 460 155 380 l 222 788 q 269 1052 262 1035 q 292 1079 277 1069 q 333 1089 308 1089 q 384 1028 393 1089 l 264 273 m 564 273 q 492 212 554 212 q 441 257 441 212 l 447 308 q 467 451 452 353 l 542 911 q 570 1056 564 1042 q 592 1080 576 1071 q 631 1089 608 1089 q 683 1028 691 1089 l 564 273 m 151 -45 q 106 -15 127 -45 q 85 42 85 16 q 107 90 85 69 q 158 111 130 111 q 204 82 184 111 q 224 26 224 54 q 200 -24 224 -4 q 151 -45 176 -45 m 450 -45 q 404 -15 425 -45 q 383 42 383 16 q 406 90 383 69 q 456 111 429 111 q 502 83 482 111 q 522 26 522 54 q 499 -24 522 -3 q 450 -45 475 -45 z "},"ⁿ":{"ha":732,"x_min":225,"x_max":707,"o":"m 410 1089 q 546 1145 476 1145 q 666 1112 625 1145 q 707 995 707 1079 q 697 896 707 953 q 688 781 691 848 q 680 685 685 722 q 656 629 675 648 q 610 611 637 611 q 563 660 563 611 q 591 932 563 806 q 598 974 598 968 q 574 1011 598 994 q 528 1029 551 1029 q 471 1016 496 1029 q 422 971 446 1002 q 385 910 399 939 q 358 813 372 881 q 345 730 345 745 q 328 642 342 664 q 274 619 313 619 q 225 663 225 619 l 231 730 q 260 885 231 758 q 292 1061 286 1009 q 313 1131 296 1109 q 363 1153 330 1153 q 410 1089 414 1153 z "},"₧":{"ha":1651,"x_min":71,"x_max":1682,"o":"m 996 571 q 946 170 972 359 l 940 140 q 937 106 937 127 q 842 -43 913 -43 q 801 -28 817 -43 q 784 9 784 -13 q 798 96 784 31 q 861 570 825 229 q 728 581 771 575 q 557 445 661 490 q 343 399 453 399 q 261 407 323 399 q 199 49 250 366 q 174 2 195 20 q 127 -17 154 -17 q 85 2 99 -17 q 75 49 71 20 l 107 248 q 164 528 125 358 q 222 810 166 536 l 236 903 q 323 1053 258 1053 q 370 1059 336 1053 q 497 1065 404 1065 q 713 985 621 1065 q 805 797 805 904 q 797 735 805 763 q 791 715 793 725 q 880 705 805 713 q 886 746 884 723 q 916 916 896 885 q 981 947 937 947 q 1036 865 1036 947 q 1021 749 1036 817 q 1013 705 1017 732 q 1068 717 1048 717 q 1167 706 1143 717 q 1192 661 1192 696 q 1168 601 1192 625 q 1112 578 1145 578 l 1047 581 q 996 571 1015 581 m 368 930 q 290 536 339 749 q 356 528 326 533 q 485 547 401 522 q 624 639 569 572 q 678 779 678 707 q 613 888 678 841 q 461 936 548 936 q 368 930 392 936 m 1547 621 q 1351 560 1389 577 q 1287 518 1312 543 q 1257 465 1261 494 q 1295 456 1274 459 q 1523 372 1451 428 q 1595 218 1595 315 q 1504 27 1595 94 q 1263 -40 1413 -40 q 1087 -6 1164 -40 q 1009 82 1009 28 q 1035 138 1009 114 q 1090 163 1061 163 q 1139 131 1111 163 q 1203 105 1154 115 q 1283 96 1251 96 q 1461 192 1461 96 q 1329 302 1461 275 q 1165 355 1208 326 q 1122 443 1122 384 q 1155 563 1122 507 q 1246 653 1187 619 q 1428 720 1305 686 q 1563 762 1525 745 q 1625 775 1591 775 q 1682 720 1682 775 l 1678 671 l 1680 625 q 1655 543 1681 563 q 1601 522 1630 522 q 1555 546 1565 522 q 1547 621 1544 570 z "},"Ĳ":{"ha":1565,"x_min":69,"x_max":1669,"o":"m 1425 886 l 1415 806 q 1328 362 1395 634 q 1195 4 1261 91 q 1051 -82 1130 -82 q 836 0 937 -82 q 734 184 734 81 q 818 306 734 306 q 877 248 877 306 q 875 224 877 237 q 936 112 867 165 q 1074 58 1004 58 q 1201 387 1131 58 q 1283 833 1272 715 q 1288 878 1284 850 l 1213 878 q 1166 879 1193 878 l 1120 880 l 1104 880 q 1038 899 1050 882 q 1025 937 1025 916 q 1132 1021 1025 1021 q 1200 1018 1157 1021 l 1238 1017 q 1396 1022 1299 1015 q 1525 1028 1483 1028 q 1669 960 1669 1028 q 1645 903 1669 928 q 1589 878 1620 878 l 1503 888 l 1468 888 q 1425 886 1448 888 m 566 868 q 484 438 509 621 q 435 140 446 163 l 650 143 q 691 127 676 143 q 707 87 707 111 q 684 30 707 56 q 628 4 662 4 q 514 1 591 4 l 447 0 q 262 -12 338 -2 q 127 -25 175 -25 q 85 -8 101 -25 q 69 32 69 9 q 93 90 69 64 q 150 115 117 115 q 297 129 202 115 q 344 431 318 195 q 432 873 358 564 l 254 868 q 214 883 230 867 q 197 924 197 899 q 216 982 197 960 q 271 1008 234 1004 q 478 1013 309 1013 q 688 1000 572 1013 q 823 982 804 987 q 852 964 842 977 q 863 928 863 951 q 837 866 863 888 q 781 844 811 844 q 673 854 733 844 l 566 868 z "},"ĳ":{"ha":736,"x_min":131,"x_max":718,"o":"m 286 924 q 315 988 286 960 q 379 1015 343 1015 q 429 996 410 1015 q 448 950 448 977 q 419 886 448 914 q 354 859 391 859 q 306 878 325 859 q 286 924 286 897 m 555 923 q 584 986 555 958 q 649 1014 613 1014 q 699 994 680 1014 q 718 948 718 975 q 689 886 718 913 q 624 859 660 859 q 575 878 594 859 q 555 923 555 897 m 500 249 l 535 623 q 562 680 538 650 q 616 710 585 710 q 662 692 642 710 q 681 659 682 675 l 640 267 l 592 -150 q 511 -320 582 -235 q 347 -406 439 -406 q 196 -313 248 -406 q 144 -186 144 -220 q 170 -134 144 -157 q 227 -110 195 -110 q 304 -216 265 -110 q 370 -269 323 -269 q 427 -233 399 -269 q 467 -102 456 -197 q 500 249 477 -8 m 188 -3 q 131 50 131 -3 l 158 257 q 197 467 168 338 q 229 627 222 583 q 307 694 241 694 q 364 642 364 694 q 331 467 364 624 q 291 257 298 323 q 264 67 277 137 q 188 -3 251 -3 z "},"ŉ":{"ha":863,"x_min":157,"x_max":861,"o":"m 191 901 l 235 1021 q 294 1074 254 1074 q 342 1025 342 1074 q 298 870 341 999 q 203 742 255 742 q 157 789 157 742 q 191 901 157 812 m 456 574 q 714 725 593 725 q 861 543 861 725 q 853 440 861 498 l 831 310 q 821 164 821 256 q 803 -11 821 26 q 735 -49 784 -49 q 680 16 675 -49 l 684 164 q 724 441 686 268 q 730 515 730 485 q 692 587 730 587 q 511 472 605 587 q 396 260 417 357 q 387 224 392 243 q 370 132 372 179 q 363 47 366 84 q 337 -11 359 10 q 283 -32 314 -32 q 227 21 227 -32 l 236 132 q 279 351 239 194 q 323 572 315 496 l 333 669 q 359 720 336 700 q 412 741 382 741 q 467 653 475 741 l 456 574 z "},"′":{"ha":250,"x_min":157,"x_max":342,"o":"m 191 901 l 235 1021 q 294 1074 254 1074 q 342 1025 342 1074 q 298 869 342 997 q 203 742 255 742 q 157 789 157 742 q 191 901 157 812 z "},"″":{"ha":460,"x_min":157,"x_max":572,"o":"m 191 901 l 235 1021 q 294 1074 254 1074 q 342 1025 342 1074 q 298 869 342 997 q 203 742 255 742 q 157 789 157 742 q 191 901 157 812 m 421 901 l 465 1021 q 525 1074 485 1074 q 572 1025 572 1074 q 529 869 572 997 q 433 742 486 742 q 388 788 388 742 q 421 901 388 812 z "},"℅":{"ha":1139,"x_min":172,"x_max":1126,"o":"m 321 -21 q 285 -7 300 -21 q 271 26 271 7 q 424 297 271 60 q 824 940 562 503 q 958 1088 908 1088 q 993 1073 979 1088 q 1008 1038 1008 1058 q 990 996 1008 1021 q 920 888 956 951 q 853 778 865 794 l 469 165 q 406 58 424 93 q 367 1 387 24 q 321 -21 347 -21 m 374 570 q 228 623 283 570 q 172 762 172 676 q 256 972 172 887 q 522 1057 339 1057 q 575 1013 575 1057 q 503 936 575 936 q 328 885 361 936 q 295 785 295 833 q 322 716 295 742 q 393 690 350 690 q 473 704 412 690 q 493 707 485 707 q 536 658 536 707 q 374 570 536 570 m 847 -12 q 710 35 760 -12 q 660 155 660 81 q 733 344 660 259 q 916 429 806 429 q 1064 380 1002 429 q 1126 256 1126 331 q 1048 74 1126 160 q 847 -12 971 -12 m 1010 239 q 977 293 1010 271 q 897 315 944 315 q 808 269 841 315 q 775 173 775 222 q 881 100 775 100 q 980 148 949 100 q 1010 239 1010 196 z "},"ℓ":{"ha":679,"x_min":82,"x_max":701,"o":"m 222 414 q 146 393 161 393 q 100 407 119 393 q 82 441 82 421 q 94 481 82 456 q 145 521 106 506 q 246 564 183 536 l 250 593 q 358 987 288 862 q 541 1112 429 1112 q 660 1056 618 1112 q 701 918 701 1000 q 366 478 701 657 l 349 370 q 338 260 338 306 q 441 107 338 107 q 483 118 450 107 q 524 129 515 129 q 559 113 545 129 q 573 75 573 98 q 528 1 573 30 q 420 -28 484 -28 q 203 216 203 -28 q 222 414 203 297 m 389 631 q 520 755 475 678 q 565 895 565 831 q 553 951 565 925 q 519 978 542 978 q 389 631 452 978 z "},"΄":{"ha":772,"x_min":439,"x_max":658,"o":"m 484 779 q 439 825 439 779 q 495 954 439 847 q 566 1078 551 1061 q 604 1096 581 1096 q 642 1078 627 1096 q 658 1033 658 1059 q 626 950 658 1002 q 551 839 593 899 q 484 779 509 779 z "},"Ā":{"ha":1016,"x_min":94,"x_max":1065,"o":"m 755 353 q 570 319 681 344 l 383 282 q 216 11 243 37 q 154 -16 189 -16 q 112 1 129 -16 q 94 41 94 18 q 237 300 94 77 q 230 330 230 313 q 309 411 230 394 q 578 772 396 541 q 799 1003 761 1003 q 860 928 852 1003 l 865 700 l 893 229 l 914 121 q 923 56 923 77 q 898 3 923 26 q 842 -21 873 -21 q 777 69 798 -21 q 755 353 757 159 m 733 754 l 489 441 q 747 493 556 459 l 733 754 m 854 1211 l 888 1211 q 938 1213 909 1211 l 986 1214 q 1050 1207 1035 1215 q 1065 1177 1065 1200 q 1013 1114 1065 1124 l 937 1110 l 791 1110 l 637 1114 q 595 1152 595 1114 q 617 1204 595 1191 q 695 1217 640 1217 q 774 1214 722 1217 q 854 1211 829 1211 z "},"ā":{"ha":711,"x_min":56,"x_max":774,"o":"m 518 35 q 309 -36 372 -36 q 56 205 56 -36 q 198 569 56 430 q 509 708 340 708 q 645 674 575 708 q 715 596 715 641 q 697 553 715 568 q 659 400 684 526 q 634 218 634 273 q 669 29 634 149 l 672 18 q 597 -45 657 -45 q 559 -17 587 -45 q 518 35 531 10 m 568 562 q 500 587 525 587 q 289 485 387 587 q 191 231 191 383 q 319 82 191 82 q 509 157 420 82 q 568 562 520 441 m 564 905 l 597 905 q 647 907 618 905 l 695 908 q 759 902 744 909 q 774 871 774 894 q 722 808 774 818 l 646 804 l 500 804 l 346 808 q 304 846 304 808 q 327 898 304 885 q 404 911 349 911 q 483 908 431 911 q 564 905 538 905 z "},"Ĉ":{"ha":837,"x_min":102,"x_max":1001,"o":"m 836 999 q 902 1034 865 1034 q 953 954 953 1034 q 928 800 953 839 q 862 761 904 761 q 805 811 819 761 q 774 867 791 862 q 709 872 758 872 q 415 665 590 872 q 241 298 241 458 q 286 176 241 229 q 404 122 330 122 q 520 145 463 122 q 684 239 576 168 q 747 267 728 267 q 789 249 772 267 q 806 206 806 231 q 792 165 806 186 q 696 90 779 144 q 535 9 613 36 q 382 -17 457 -17 q 180 70 258 -17 q 102 275 102 157 q 322 752 102 492 q 731 1011 543 1011 q 836 999 806 1011 m 747 1309 q 493 1096 541 1096 q 456 1112 472 1096 q 441 1149 441 1128 q 468 1203 441 1179 q 711 1431 497 1225 q 755 1452 732 1452 q 812 1430 783 1452 q 900 1331 840 1407 l 989 1215 q 1001 1183 1001 1199 q 979 1135 1001 1157 q 929 1113 958 1113 q 882 1141 901 1113 q 747 1309 863 1170 z "},"ĉ":{"ha":713,"x_min":91,"x_max":816,"o":"m 486 107 l 570 149 q 602 160 594 160 q 638 144 624 160 q 653 104 653 127 q 544 3 653 49 q 376 -43 435 -43 q 168 31 244 -43 q 91 214 91 104 q 223 547 91 372 q 487 721 355 721 q 640 686 561 721 q 720 602 720 651 q 698 550 720 574 q 650 526 677 526 q 594 559 623 526 q 467 593 564 593 q 305 462 395 593 q 214 237 214 331 q 263 128 214 171 q 395 85 311 85 q 486 107 437 85 m 562 936 q 308 723 355 723 q 271 739 287 723 q 256 777 256 755 q 283 830 256 806 q 526 1058 312 852 q 570 1079 547 1079 q 627 1057 598 1079 q 715 958 655 1034 l 804 842 q 816 810 816 826 q 794 762 816 784 q 744 740 772 740 q 696 768 715 740 q 562 936 677 797 z "},"Ċ":{"ha":837,"x_min":102,"x_max":953,"o":"m 836 999 q 902 1034 865 1034 q 953 954 953 1034 q 928 800 953 839 q 862 761 904 761 q 805 811 819 761 q 774 867 791 862 q 709 872 758 872 q 415 665 590 872 q 241 298 241 458 q 286 176 241 229 q 404 122 330 122 q 520 145 463 122 q 684 239 576 168 q 747 267 728 267 q 789 249 772 267 q 806 206 806 231 q 792 165 806 186 q 696 90 779 144 q 535 9 613 36 q 382 -17 457 -17 q 180 70 258 -17 q 102 275 102 157 q 322 752 102 492 q 731 1011 543 1011 q 836 999 806 1011 m 763 1109 q 712 1139 742 1109 q 682 1190 682 1169 q 710 1236 682 1213 q 764 1259 738 1259 q 815 1227 785 1259 q 844 1177 844 1195 q 817 1131 844 1153 q 763 1109 789 1109 z "},"ċ":{"ha":713,"x_min":91,"x_max":720,"o":"m 486 107 l 570 149 q 602 160 594 160 q 638 144 624 160 q 653 104 653 127 q 544 3 653 49 q 376 -43 435 -43 q 168 31 244 -43 q 91 214 91 104 q 223 547 91 372 q 487 721 355 721 q 640 686 561 721 q 720 602 720 651 q 698 550 720 574 q 650 526 677 526 q 594 559 623 526 q 467 593 564 593 q 305 462 395 593 q 214 237 214 331 q 263 128 214 171 q 395 85 311 85 q 486 107 437 85 m 547 803 q 495 833 526 803 q 465 884 465 863 q 493 930 465 907 q 548 953 522 953 q 598 921 569 953 q 628 871 628 889 q 601 825 628 847 q 547 803 573 803 z "},"Ē":{"ha":867,"x_min":119,"x_max":975,"o":"m 391 907 q 332 578 391 842 l 635 607 q 796 619 762 619 q 857 563 857 619 q 782 481 857 490 l 300 437 q 254 135 254 227 q 272 82 254 94 q 366 71 289 71 l 620 77 q 683 83 629 77 q 762 31 762 94 q 713 -49 762 -31 q 415 -66 664 -66 q 171 -26 222 -66 q 119 123 119 14 q 172 472 119 243 q 169 496 169 488 q 191 547 169 526 q 242 799 232 735 q 253 909 253 862 q 276 1033 258 1000 q 339 1065 294 1065 q 386 1044 368 1065 q 682 1089 559 1089 q 862 1072 786 1089 q 956 1038 938 1055 q 975 996 975 1021 q 950 938 975 963 q 896 913 926 913 q 875 917 888 913 q 660 949 762 949 q 391 907 547 949 m 700 1289 l 734 1289 q 783 1290 755 1289 l 831 1291 q 896 1285 880 1293 q 911 1254 911 1277 q 859 1192 911 1201 l 782 1187 l 636 1187 l 482 1192 q 440 1230 440 1192 q 463 1281 440 1268 q 541 1294 486 1294 q 619 1291 568 1294 q 700 1289 675 1289 z "},"ē":{"ha":761,"x_min":78,"x_max":774,"o":"m 197 204 q 406 92 256 92 q 531 113 458 92 q 630 168 604 135 q 686 204 658 204 q 723 189 708 204 q 738 153 738 174 q 620 27 738 84 q 386 -31 501 -31 q 159 38 241 -31 q 78 221 78 106 q 191 548 78 388 q 484 708 304 708 q 667 668 604 708 q 730 555 730 628 q 689 451 730 494 q 600 385 648 408 q 475 328 552 361 l 197 204 m 205 329 l 427 429 q 619 532 568 493 q 465 586 570 586 q 205 329 298 586 m 564 905 l 597 905 q 647 907 618 905 l 695 908 q 759 902 744 909 q 774 871 774 894 q 722 808 774 818 l 646 804 l 500 804 l 346 808 q 304 846 304 808 q 327 898 304 885 q 404 911 349 911 q 483 908 431 911 q 564 905 538 905 z "},"Ĕ":{"ha":867,"x_min":119,"x_max":996,"o":"m 391 907 q 332 578 391 842 l 635 607 q 796 619 762 619 q 857 563 857 619 q 782 481 857 490 l 300 437 q 254 135 254 227 q 272 82 254 94 q 366 71 289 71 l 620 77 q 683 83 629 77 q 762 31 762 94 q 713 -49 762 -31 q 415 -66 664 -66 q 171 -26 222 -66 q 119 123 119 14 q 172 472 119 243 q 169 496 169 488 q 191 547 169 526 q 242 799 232 735 q 253 909 253 862 q 276 1033 258 1000 q 339 1065 294 1065 q 386 1044 368 1065 q 682 1089 559 1089 q 862 1072 786 1089 q 956 1038 938 1055 q 975 996 975 1021 q 950 938 975 963 q 896 913 926 913 q 875 917 888 913 q 660 949 762 949 q 391 907 547 949 m 951 1392 q 996 1352 996 1392 q 898 1205 996 1272 q 648 1139 801 1139 q 499 1195 560 1139 q 437 1327 437 1251 q 498 1417 437 1417 q 543 1378 543 1417 l 541 1347 q 576 1271 541 1301 q 663 1240 612 1240 q 895 1349 847 1240 q 951 1392 913 1392 z "},"ĕ":{"ha":761,"x_min":78,"x_max":816,"o":"m 197 204 q 406 92 256 92 q 531 113 458 92 q 630 168 604 135 q 686 204 658 204 q 723 189 708 204 q 738 153 738 174 q 620 27 738 84 q 386 -31 501 -31 q 159 38 241 -31 q 78 221 78 106 q 191 548 78 388 q 484 708 304 708 q 667 668 604 708 q 730 555 730 628 q 689 451 730 494 q 600 385 648 408 q 475 328 552 361 l 197 204 m 205 329 l 427 429 q 619 532 568 493 q 465 586 570 586 q 205 329 298 586 m 772 1053 q 816 1013 816 1053 q 719 866 816 932 q 468 800 621 800 q 319 856 380 800 q 258 988 258 911 q 318 1078 258 1078 q 363 1039 363 1078 l 361 1008 q 397 931 361 962 q 483 901 433 901 q 715 1010 667 901 q 772 1053 734 1053 z "},"Ė":{"ha":867,"x_min":119,"x_max":975,"o":"m 391 907 q 332 578 391 842 l 635 607 q 796 619 762 619 q 857 563 857 619 q 782 481 857 490 l 300 437 q 254 135 254 227 q 272 82 254 94 q 366 71 289 71 l 620 77 q 683 83 629 77 q 762 31 762 94 q 713 -49 762 -31 q 415 -66 664 -66 q 171 -26 222 -66 q 119 123 119 14 q 172 472 119 243 q 169 496 169 488 q 191 547 169 526 q 242 799 232 735 q 253 909 253 862 q 276 1033 258 1000 q 339 1065 294 1065 q 386 1044 368 1065 q 682 1089 559 1089 q 862 1072 786 1089 q 956 1038 938 1055 q 975 996 975 1021 q 950 938 975 963 q 896 913 926 913 q 875 917 888 913 q 660 949 762 949 q 391 907 547 949 m 663 1177 q 612 1207 642 1177 q 582 1258 582 1237 q 610 1304 582 1281 q 665 1326 638 1326 q 715 1295 686 1326 q 745 1245 745 1263 q 717 1199 745 1221 q 663 1177 690 1177 z "},"ė":{"ha":761,"x_min":78,"x_max":738,"o":"m 197 204 q 406 92 256 92 q 531 113 458 92 q 630 168 604 135 q 686 204 658 204 q 723 189 708 204 q 738 153 738 174 q 620 27 738 84 q 386 -31 501 -31 q 159 38 241 -31 q 78 221 78 106 q 191 548 78 388 q 484 708 304 708 q 667 668 604 708 q 730 555 730 628 q 689 451 730 494 q 600 385 648 408 q 475 328 552 361 l 197 204 m 205 329 l 427 429 q 619 532 568 493 q 465 586 570 586 q 205 329 298 586 m 513 803 q 462 833 492 803 q 432 884 432 863 q 460 930 432 907 q 515 953 488 953 q 565 921 536 953 q 595 871 595 889 q 567 825 595 847 q 513 803 540 803 z "},"Ĝ":{"ha":944,"x_min":45,"x_max":1027,"o":"m 895 410 q 666 79 821 206 q 328 -47 511 -47 q 45 220 45 -47 q 104 508 45 348 q 269 799 163 668 q 466 998 374 930 q 650 1065 558 1065 q 812 1022 711 1065 q 913 927 913 979 q 889 871 913 897 q 833 846 865 846 q 793 863 818 846 q 627 926 702 926 q 356 700 530 926 q 182 239 182 474 q 224 122 182 153 q 350 92 266 92 q 580 175 475 92 q 740 401 686 258 q 407 329 551 391 q 375 321 389 321 q 335 339 351 321 q 319 381 319 357 q 365 453 319 422 q 538 514 410 484 q 883 543 667 543 q 927 527 910 543 q 944 486 944 510 q 895 410 944 432 m 774 1309 q 519 1096 567 1096 q 483 1112 498 1096 q 467 1149 467 1128 q 494 1203 467 1179 q 738 1431 524 1225 q 782 1452 759 1452 q 838 1430 810 1452 q 926 1331 867 1407 l 1015 1215 q 1027 1183 1027 1199 q 1006 1135 1027 1157 q 956 1113 984 1113 q 908 1141 927 1113 q 774 1309 889 1170 z "},"ĝ":{"ha":737,"x_min":-16,"x_max":838,"o":"m 691 292 l 612 -49 q 575 -158 597 -104 q 521 -254 553 -212 q 447 -323 489 -295 q 347 -366 406 -351 q 208 -382 288 -382 q -16 -309 -16 -382 q -1 -262 -16 -286 q 52 -239 14 -239 q 85 -242 64 -239 q 245 -261 187 -261 q 430 -177 364 -261 q 532 118 495 -93 q 308 -17 433 -17 q 135 48 199 -17 q 72 218 72 113 q 198 547 72 399 q 544 694 324 694 q 704 629 671 694 q 766 570 766 627 q 705 341 766 536 q 691 292 694 309 m 519 586 q 289 478 373 586 q 205 231 205 370 q 328 96 205 96 q 457 158 389 96 q 552 286 525 220 q 630 545 578 352 q 519 586 581 586 m 585 1003 q 330 790 378 790 q 294 806 309 790 q 278 844 278 823 q 305 897 278 873 q 549 1125 334 920 q 593 1146 570 1146 q 649 1124 621 1146 q 737 1025 677 1101 l 826 909 q 838 878 838 893 q 817 829 838 851 q 766 807 795 807 q 719 836 738 807 q 585 1003 700 864 z "},"Ġ":{"ha":944,"x_min":45,"x_max":944,"o":"m 895 410 q 666 79 821 206 q 328 -47 511 -47 q 45 220 45 -47 q 104 508 45 348 q 269 799 163 668 q 466 998 374 930 q 650 1065 558 1065 q 812 1022 711 1065 q 913 927 913 979 q 889 871 913 897 q 833 846 865 846 q 793 863 818 846 q 627 926 702 926 q 356 700 530 926 q 182 239 182 474 q 224 122 182 153 q 350 92 266 92 q 580 175 475 92 q 740 401 686 258 q 407 329 551 391 q 375 321 389 321 q 335 339 351 321 q 319 381 319 357 q 365 453 319 422 q 538 514 410 484 q 883 543 667 543 q 927 527 910 543 q 944 486 944 510 q 895 410 944 432 m 763 1146 q 712 1176 742 1146 q 682 1227 682 1206 q 710 1273 682 1251 q 764 1296 738 1296 q 815 1264 785 1296 q 844 1215 844 1232 q 817 1168 844 1190 q 763 1146 789 1146 z "}}}
